<svg width="40" height="40" viewBox="0 0 40 40" fill="none" xmlns="http://www.w3.org/2000/svg">
<g clip-path="url(#clip0_635_600)">
<path d="M20 0C24.0092 4.78087e-08 27.9258 1.20491 31.2417 3.45839L28.4313 7.59379C25.9443 5.90368 23.0069 5 20 5V0Z" fill="#DA291C" fill-opacity="0.25"/>
<path d="M31.7577 3.82108C35.0008 6.17799 37.4608 9.45521 38.8184 13.2275L34.1138 14.9206C33.0956 12.0914 31.2506 9.6335 28.8182 7.86581L31.7577 3.82108Z" fill="#DA291C" fill-opacity="0.25"/>
<path d="M38.9918 13.73C40.2486 17.537 40.3323 21.634 39.232 25.4892L34.424 24.1169C35.2492 21.2255 35.1865 18.1528 34.2438 15.2975L38.9918 13.73Z" fill="#DA291C" fill-opacity="0.25"/>
<path d="M39.0571 26.0685C37.8406 29.8886 35.5041 33.255 32.3508 35.7308L29.2631 31.7981C31.6281 29.9412 33.3805 27.4165 34.2928 24.5514L39.0571 26.0685Z" fill="#DA291C" fill-opacity="0.25"/>
<path d="M31.8549 36.1078C28.6259 38.4842 24.7573 39.8354 20.751 39.9859L20.5632 34.9894C23.568 34.8765 26.4694 33.8632 28.8911 32.0809L31.8549 36.1078Z" fill="#DA291C" fill-opacity="0.25"/>
<path d="M20 40C15.9908 40 12.0742 38.7951 8.75833 36.5416L11.5688 32.4062C14.0557 34.0963 16.9931 35 20 35V40Z" fill="#DA291C" fill-opacity="0.25"/>
<path d="M8.34916 36.256C5.09052 33.9205 2.609 30.6596 1.22658 26.8963L5.91994 25.1722C6.95675 27.9947 8.81789 30.4404 11.2619 32.192L8.34916 36.256Z" fill="#DA291C" fill-opacity="0.25"/>
<path d="M1.02053 26.3071C-0.24378 22.5025 -0.335482 18.4058 0.757323 14.5485L5.56799 15.9113C4.74839 18.8043 4.81716 21.8769 5.7654 24.7303L1.02053 26.3071Z" fill="#DA291C" fill-opacity="0.25"/>
<path d="M0.927817 13.979C2.13476 10.1559 4.46287 6.78369 7.61004 4.30003L10.7075 8.22502C8.34715 10.0878 6.60107 12.6169 5.69586 15.4843L0.927817 13.979Z" fill="#DA291C" fill-opacity="0.25"/>
<path d="M8.13285 3.90122C11.36 1.52235 15.2276 0.168278 19.2338 0.0146828L19.4253 5.01101C16.4207 5.12621 13.52 6.14177 11.0996 7.92591L8.13285 3.90122Z" fill="#DA291C" fill-opacity="0.25"/>
<path d="M18.21 20.4209C18.21 21.0003 18.166 21.5179 18.0781 21.9736C17.9902 22.4294 17.8519 22.8151 17.6631 23.1309C17.4743 23.4466 17.2301 23.6875 16.9307 23.8535C16.6312 24.0163 16.2715 24.0977 15.8516 24.0977C15.321 24.0977 14.8815 23.9528 14.5332 23.6631C14.1882 23.3734 13.9294 22.9551 13.7568 22.4082C13.5876 21.8581 13.5029 21.1956 13.5029 20.4209C13.5029 19.6592 13.5794 19.0049 13.7324 18.458C13.8887 17.9079 14.1393 17.4863 14.4844 17.1934C14.8294 16.8971 15.2852 16.749 15.8516 16.749C16.3887 16.749 16.8314 16.8955 17.1797 17.1885C17.528 17.4782 17.7868 17.8981 17.9561 18.4482C18.1253 18.9951 18.21 19.6527 18.21 20.4209ZM14.3184 20.4209C14.3184 21.085 14.3688 21.6383 14.4697 22.0811C14.5706 22.5238 14.7334 22.8558 14.958 23.0771C15.1859 23.2952 15.4837 23.4043 15.8516 23.4043C16.2194 23.4043 16.5156 23.2952 16.7402 23.0771C16.9681 22.859 17.1325 22.5286 17.2334 22.0859C17.3376 21.6432 17.3896 21.0882 17.3896 20.4209C17.3896 19.7666 17.3392 19.2197 17.2383 18.7803C17.1374 18.3376 16.9746 18.0055 16.75 17.7842C16.5254 17.5596 16.2259 17.4473 15.8516 17.4473C15.4772 17.4473 15.1777 17.5596 14.9531 17.7842C14.7285 18.0055 14.5658 18.3376 14.4648 18.7803C14.3672 19.2197 14.3184 19.7666 14.3184 20.4209ZM20.6709 16.7588C21.1592 16.7588 21.5286 16.9541 21.7793 17.3447C22.0332 17.7321 22.1602 18.2806 22.1602 18.9902C22.1602 19.6999 22.0381 20.2533 21.7939 20.6504C21.5498 21.0443 21.1755 21.2412 20.6709 21.2412C20.2021 21.2412 19.8424 21.0443 19.5918 20.6504C19.3444 20.2533 19.2207 19.6999 19.2207 18.9902C19.2207 18.2806 19.3395 17.7321 19.5771 17.3447C19.8148 16.9541 20.1794 16.7588 20.6709 16.7588ZM20.6709 17.3398C20.4072 17.3398 20.2135 17.4782 20.0898 17.7549C19.9661 18.0283 19.9043 18.4401 19.9043 18.9902C19.9043 19.5404 19.9661 19.9554 20.0898 20.2354C20.2135 20.5153 20.4072 20.6553 20.6709 20.6553C20.9443 20.6553 21.1478 20.5153 21.2812 20.2354C21.4147 19.9554 21.4814 19.5404 21.4814 18.9902C21.4814 18.4434 21.4147 18.0316 21.2812 17.7549C21.151 17.4782 20.9476 17.3398 20.6709 17.3398ZM25.1924 16.8613L21.2324 24H20.5195L24.4795 16.8613H25.1924ZM25.002 19.6201C25.487 19.6201 25.8564 19.8154 26.1104 20.2061C26.3643 20.5934 26.4912 21.1419 26.4912 21.8516C26.4912 22.5579 26.3691 23.1097 26.125 23.5068C25.8809 23.9007 25.5065 24.0977 25.002 24.0977C24.5299 24.0977 24.1702 23.9007 23.9229 23.5068C23.6755 23.1097 23.5518 22.5579 23.5518 21.8516C23.5518 21.1419 23.6689 20.5934 23.9033 20.2061C24.141 19.8154 24.5072 19.6201 25.002 19.6201ZM25.002 20.2061C24.7383 20.2061 24.5446 20.3428 24.4209 20.6162C24.2972 20.8896 24.2354 21.3014 24.2354 21.8516C24.2354 22.4017 24.2972 22.8167 24.4209 23.0967C24.5446 23.3734 24.7383 23.5117 25.002 23.5117C25.2754 23.5117 25.4788 23.375 25.6123 23.1016C25.7458 22.8249 25.8125 22.4082 25.8125 21.8516C25.8125 21.3047 25.7458 20.8945 25.6123 20.6211C25.4821 20.3444 25.2786 20.2061 25.002 20.2061Z" fill="#373A36"/>
</g>
<defs>
<clipPath id="clip0_635_600">
<rect width="40" height="40" fill="white"/>
</clipPath>
</defs>
</svg>
