<svg width="16" height="16" viewBox="0 0 16 16" fill="none" xmlns="http://www.w3.org/2000/svg">
<path d="M2.66667 10.9997V13.333C2.66667 13.6866 2.80714 14.0258 3.05719 14.2758C3.30724 14.5259 3.64638 14.6663 4 14.6663H12C12.3536 14.6663 12.6928 14.5259 12.9428 14.2758C13.1929 14.0258 13.3333 13.6866 13.3333 13.333V10.9997M2 9.33301V8.66634C2 8.31272 2.14048 7.97358 2.39052 7.72353C2.64057 7.47348 2.97971 7.33301 3.33333 7.33301H12.6667C13.0203 7.33301 13.3594 7.47348 13.6095 7.72353C13.8595 7.97358 14 8.31272 14 8.66634V9.33301M8 5.33301V7.33301M8 5.33301C8.84133 5.33301 9.33333 4.68767 9.33333 3.58301C9.33333 2.47834 8 1.33301 8 1.33301C8 1.33301 6.66667 2.47834 6.66667 3.58301C6.66667 4.68767 7.15867 5.33301 8 5.33301Z" stroke="#373A36" stroke-width="1.5" stroke-linecap="round" stroke-linejoin="round"/>
<path d="M2 9.33301C2 9.86344 2.21071 10.3721 2.58579 10.7472C2.96086 11.1223 3.46957 11.333 4 11.333C4.53043 11.333 5.03914 11.1223 5.41421 10.7472C5.78929 10.3721 6 9.86344 6 9.33301C6 9.86344 6.21071 10.3721 6.58579 10.7472C6.96086 11.1223 7.46957 11.333 8 11.333C8.53043 11.333 9.03914 11.1223 9.41421 10.7472C9.78929 10.3721 10 9.86344 10 9.33301C10 9.86344 10.2107 10.3721 10.5858 10.7472C10.9609 11.1223 11.4696 11.333 12 11.333C12.5304 11.333 13.0391 11.1223 13.4142 10.7472C13.7893 10.3721 14 9.86344 14 9.33301" stroke="#373A36" stroke-width="1.5" stroke-linecap="round" stroke-linejoin="round"/>
</svg>
