<svg width="25" height="24" viewBox="0 0 25 24" fill="none" xmlns="http://www.w3.org/2000/svg">
<path d="M12.5 2.25C7.12391 2.25 2.75 6.62391 2.75 12C2.75 17.3761 7.12391 21.75 12.5 21.75C17.8761 21.75 22.25 17.3761 22.25 12C22.25 6.62391 17.8761 2.25 12.5 2.25ZM17.5742 8.73234L11.2742 16.2323C11.2051 16.3147 11.1191 16.3812 11.0221 16.4273C10.925 16.4735 10.8192 16.4983 10.7117 16.5H10.6991C10.5939 16.5 10.49 16.4778 10.394 16.435C10.298 16.3922 10.212 16.3297 10.1417 16.2516L7.44172 13.2516C7.37315 13.1788 7.31981 13.0931 7.28483 12.9995C7.24986 12.9059 7.23395 12.8062 7.23805 12.7063C7.24215 12.6064 7.26617 12.5084 7.3087 12.4179C7.35124 12.3275 7.41142 12.2464 7.48572 12.1796C7.56002 12.1127 7.64694 12.0614 7.74136 12.0286C7.83579 11.9958 7.93581 11.9822 8.03556 11.9886C8.13531 11.995 8.23277 12.0213 8.32222 12.0659C8.41166 12.1106 8.49128 12.1726 8.55641 12.2484L10.6794 14.6072L16.4258 7.76766C16.5547 7.61863 16.737 7.52631 16.9335 7.51066C17.1299 7.49501 17.3246 7.55728 17.4754 7.68402C17.6263 7.81075 17.7212 7.99176 17.7397 8.18793C17.7582 8.3841 17.6988 8.57966 17.5742 8.73234Z" fill="#52C15D"/>
</svg>
