<svg width="80" height="80" viewBox="0 0 80 80" fill="none" xmlns="http://www.w3.org/2000/svg">
<rect x="0.75" y="0.75" width="78.5" height="78.5" rx="39.25" stroke="#373A36" stroke-width="1.5" stroke-dasharray="6 6"/>
<path d="M40 23.75C31.0258 23.75 23.75 31.0258 23.75 40C23.75 48.9742 31.0258 56.25 40 56.25C48.9742 56.25 56.25 48.9742 56.25 40C56.25 31.0258 48.9742 23.75 40 23.75Z" stroke="#373A36" stroke-width="3" stroke-miterlimit="10"/>
<path d="M40.0001 23.75C35.4634 23.75 31.1978 31.0258 31.1978 40C31.1978 48.9742 35.4634 56.25 40.0001 56.25C44.5368 56.25 48.8024 48.9742 48.8024 40C48.8024 31.0258 44.5368 23.75 40.0001 23.75Z" stroke="#373A36" stroke-width="2" stroke-miterlimit="10"/>
<path d="M29.1665 29.1665C32.154 31.2876 35.9149 32.5524 40.0001 32.5524C44.0853 32.5524 47.8462 31.2876 50.8337 29.1665M50.8337 50.8337C47.8462 48.7126 44.0853 47.4478 40.0001 47.4478C35.9149 47.4478 32.154 48.7126 29.1665 50.8337" stroke="#373A36" stroke-width="2" stroke-linecap="round" stroke-linejoin="round"/>
<path d="M40 23.75V56.25M56.25 40H23.75" stroke="#373A36" stroke-width="2" stroke-miterlimit="10"/>
</svg>
