<svg width="32" height="32" viewBox="0 0 32 32" fill="none" xmlns="http://www.w3.org/2000/svg">
<rect width="32" height="32" rx="4" fill="#F9E9EB"/>
<path d="M22.6667 11.8333H19.3334V10.1667L17.6667 8.5H14.3334L12.6667 10.1667V11.8333H9.33335C8.41669 11.8333 7.66669 12.5833 7.66669 13.5V17.6667C7.66669 18.2917 8.00002 18.8167 8.50002 19.1083V21.8333C8.50002 22.7583 9.24169 23.5 10.1667 23.5H21.8334C22.7584 23.5 23.5 22.7583 23.5 21.8333V19.1C23.9917 18.8083 24.3334 18.275 24.3334 17.6667V13.5C24.3334 12.5833 23.5834 11.8333 22.6667 11.8333ZM14.3334 10.1667H17.6667V11.8333H14.3334V10.1667ZM9.33335 13.5H22.6667V17.6667H18.5V15.1667H13.5V17.6667H9.33335V13.5ZM16.8334 18.5H15.1667V16.8333H16.8334V18.5ZM21.8334 21.8333H10.1667V19.3333H13.5V20.1667H18.5V19.3333H21.8334V21.8333Z" fill="#EAA1A6"/>
</svg>
