<svg width="123" height="120" viewBox="0 0 123 120" fill="none" xmlns="http://www.w3.org/2000/svg">
<circle cx="60" cy="60" r="58.5" fill="#D9D9D9" stroke="white" stroke-width="3"/>
<path fill-rule="evenodd" clip-rule="evenodd" d="M21 102.841C21.67 101.261 22.4785 99.733 23.4134 98.2681C28.9111 89.0522 37.241 82.4386 46.9316 79.2721C42.0461 76.3637 38.2504 71.932 36.1274 66.6577C34.0043 61.3833 33.6714 55.5578 35.1796 50.0758C36.6878 44.5939 39.9538 39.7586 44.4761 36.3125C48.9983 32.8664 54.5268 31 60.2124 31C65.898 31 71.4265 32.8664 75.9488 36.3125C80.471 39.7586 83.737 44.5939 85.2452 50.0758C86.7535 55.5578 86.4205 61.3833 84.2974 66.6577C82.1744 71.932 78.3787 76.3637 73.4932 79.2721C83.1688 82.4337 91.4878 89.0316 96.9858 98.2252C97.8083 99.5096 98.5336 100.842 99.1535 102.217C88.6077 111.423 74.8118 117 59.7133 117C44.9593 117 31.4492 111.675 21 102.841Z" fill="white"/>
<circle cx="104.474" cy="100.652" r="14" transform="rotate(11.3164 104.474 100.652)" fill="#D9D9D9" stroke="white" stroke-width="2"/>
<path d="M109.188 96.2812H107.563L106.765 95.0836C106.722 95.0195 106.664 94.9669 106.596 94.9305C106.528 94.8941 106.452 94.875 106.375 94.875H102.625C102.548 94.875 102.472 94.8941 102.404 94.9305C102.336 94.9669 102.278 95.0195 102.235 95.0836L101.436 96.2812H99.8125C99.4395 96.2812 99.0819 96.4294 98.8181 96.6931C98.5544 96.9569 98.4062 97.3145 98.4062 97.6875V104.25C98.4062 104.623 98.5544 104.981 98.8181 105.244C99.0819 105.508 99.4395 105.656 99.8125 105.656H109.188C109.56 105.656 109.918 105.508 110.182 105.244C110.446 104.981 110.594 104.623 110.594 104.25V97.6875C110.594 97.3145 110.446 96.9569 110.182 96.6931C109.918 96.4294 109.56 96.2812 109.188 96.2812ZM106.375 101.438H104.969V102.844C104.969 102.968 104.919 103.087 104.831 103.175C104.744 103.263 104.624 103.312 104.5 103.312C104.376 103.312 104.256 103.263 104.169 103.175C104.081 103.087 104.031 102.968 104.031 102.844V101.438H102.625C102.501 101.438 102.381 101.388 102.294 101.3C102.206 101.212 102.156 101.093 102.156 100.969C102.156 100.844 102.206 100.725 102.294 100.637C102.381 100.549 102.501 100.5 102.625 100.5H104.031V99.0938C104.031 98.9694 104.081 98.8502 104.169 98.7623C104.256 98.6744 104.376 98.625 104.5 98.625C104.624 98.625 104.744 98.6744 104.831 98.7623C104.919 98.8502 104.969 98.9694 104.969 99.0938V100.5H106.375C106.499 100.5 106.619 100.549 106.706 100.637C106.794 100.725 106.844 100.844 106.844 100.969C106.844 101.093 106.794 101.212 106.706 101.3C106.619 101.388 106.499 101.438 106.375 101.438Z" fill="#373A36"/>
</svg>
