<svg width="20" height="18" viewBox="0 0 20 18" fill="none" xmlns="http://www.w3.org/2000/svg">
<path d="M18.25 0.75H4.75C4.35218 0.75 3.97064 0.908035 3.68934 1.18934C3.40804 1.47064 3.25 1.85218 3.25 2.25V3.75H1.75C1.35218 3.75 0.970644 3.90804 0.68934 4.18934C0.408035 4.47064 0.25 4.85218 0.25 5.25V15.75C0.25 16.1478 0.408035 16.5294 0.68934 16.8107C0.970644 17.092 1.35218 17.25 1.75 17.25H15.25C15.6478 17.25 16.0294 17.092 16.3107 16.8107C16.592 16.5294 16.75 16.1478 16.75 15.75V14.25H18.25C18.6478 14.25 19.0294 14.092 19.3107 13.8107C19.592 13.5294 19.75 13.1478 19.75 12.75V2.25C19.75 1.85218 19.592 1.47064 19.3107 1.18934C19.0294 0.908035 18.6478 0.75 18.25 0.75ZM14.125 3.75C14.3475 3.75 14.565 3.81598 14.75 3.9396C14.935 4.06321 15.0792 4.23891 15.1644 4.44448C15.2495 4.65005 15.2718 4.87625 15.2284 5.09448C15.185 5.31271 15.0778 5.51316 14.9205 5.6705C14.7632 5.82783 14.5627 5.93498 14.3445 5.97838C14.1262 6.02179 13.9 5.99951 13.6945 5.91436C13.4889 5.82922 13.3132 5.68502 13.1896 5.50002C13.066 5.31501 13 5.0975 13 4.875C13 4.57663 13.1185 4.29048 13.3295 4.0795C13.5405 3.86853 13.8266 3.75 14.125 3.75ZM15.25 15.75H1.75V5.25H3.25V12.75C3.25 13.1478 3.40804 13.5294 3.68934 13.8107C3.97064 14.092 4.35218 14.25 4.75 14.25H15.25V15.75ZM18.25 12.75H4.75V9.375L8.125 6L12.7806 10.6556C12.9213 10.7962 13.112 10.8751 13.3108 10.8751C13.5096 10.8751 13.7003 10.7962 13.8409 10.6556L16.2466 8.25L18.25 10.2544V12.75Z" fill="#373A36"/>
</svg>
