<svg width="79" height="86" viewBox="0 0 79 86" fill="none" xmlns="http://www.w3.org/2000/svg">
<path fill-rule="evenodd" clip-rule="evenodd" d="M-8.58624e-07 71.8414C0.670048 70.2607 1.47847 68.733 2.4134 67.2681C7.91113 58.0522 16.241 51.4386 25.9316 48.2721C21.0461 45.3637 17.2504 40.932 15.1274 35.6577C13.0043 30.3833 12.6714 24.5578 14.1796 19.0758C15.6878 13.5939 18.9538 8.75858 23.4761 5.31247C27.9983 1.86636 33.5268 0 39.2124 0C44.898 0 50.4265 1.86636 54.9488 5.31247C59.471 8.75858 62.737 13.5939 64.2452 19.0758C65.7535 24.5578 65.4205 30.3833 63.2974 35.6577C61.1744 40.932 57.3787 45.3637 52.4932 48.2721C62.1688 51.4337 70.4878 58.0316 75.9858 67.2252C76.8083 68.5096 77.5336 69.8424 78.1535 71.217C67.6077 80.4231 53.8118 86 38.7133 86C23.9593 86 10.4492 80.6747 -8.58624e-07 71.8414Z" fill="white"/>
</svg>
