<svg viewBox="0 0 225 200" fill="none" xmlns="http://www.w3.org/2000/svg" class="flex-1"><path d="M201.759 121.437C198.79 114.006 193.088 107.805 186.238 104.753C179.104 101.574 170.912 102.732 163.398 101.666C156.87 100.742 152.164 97.5361 148.266 91.8365C144.533 86.3753 141.186 80.3273 135.086 77.8008C130.262 75.8042 124.778 76.3586 119.983 78.4378C111.149 82.271 104.477 90.42 98.8572 98.5392C93.7266 105.951 89.5384 114.069 80.0532 114.333C70.5681 114.597 61.5165 108.64 51.955 110.216C39.3151 112.304 28.7915 123.877 26.5914 137.66C24.5244 150.575 23.3977 178.746 59.5807 178.746C95.7637 178.746 116.596 188.979 161.003 181.756C205.409 174.532 208.878 139.251 201.759 121.437Z" fill="#DBE2E9"></path><path d="M16.1305 128.692L15.6513 128.55L16.1305 128.692C13.1785 138.61 13.1442 153.149 19.4277 165.845C25.6953 178.509 38.2712 189.387 60.6524 192C83.0599 194.615 95.4269 191.384 108.671 187.924L108.746 187.904C122.064 184.425 136.27 180.73 162.298 182.537C175.21 183.433 184.825 181.565 191.944 178.074C199.057 174.586 203.709 169.463 206.677 163.792C212.628 152.424 211.817 138.833 210.362 131.841L210.362 131.84C208.839 124.513 202.691 118.051 195.236 113.209C187.792 108.375 179.154 105.227 172.824 104.471C170.49 104.193 167.728 104.599 164.717 105.396C161.711 106.191 158.498 107.364 155.269 108.591C154.677 108.815 154.085 109.042 153.494 109.268C150.865 110.274 148.251 111.274 145.779 112.08C142.754 113.066 139.896 113.779 137.436 113.852C132.481 113.999 128.783 111.807 125.636 108.628C123.247 106.215 121.141 103.192 119.031 100.164C118.383 99.2352 117.736 98.3056 117.079 97.3931L117.485 97.1012L117.079 97.3931C110.896 88.7941 103.726 80.338 94.7435 76.7117C89.8873 74.7521 84.5022 74.4996 79.9532 76.9038C77.0778 78.4246 74.9044 80.8516 73.0191 83.7061C71.6307 85.8085 70.4185 88.1092 69.1963 90.4288C68.7527 91.2708 68.3077 92.1153 67.8526 92.9537L67.4132 92.7152L67.8525 92.9538C64.262 99.5662 59.64 103.494 52.974 104.944C50.4091 105.503 47.7282 105.783 45.0694 106.062C43.826 106.192 42.5875 106.322 41.368 106.479C37.5073 106.977 33.7701 107.756 30.3786 109.673C23.8321 113.375 18.5883 120.433 16.1305 128.692Z" stroke="#DBE2E9"></path><path d="M208.32 56.9227C207.128 52.9563 205.029 49.3097 202.025 45.9829C199.02 42.656 194.916 39.9051 189.713 37.7302C184.513 35.5559 177.905 34.4688 169.892 34.4688C163.498 34.4688 156.982 35.3308 150.343 37.0548C143.705 38.7788 137.937 41.2426 133.04 44.4461L139.403 61.9181L135.993 64.6768L140.939 66.1308C145.821 63.5757 150.269 61.7199 154.283 60.5632C158.297 59.4066 162.558 58.832 167.064 58.8395C171.574 58.8395 174.988 59.9267 177.306 62.101C179.625 64.2753 180.783 66.8977 180.78 69.9684C180.78 73.6794 179.591 76.9742 177.213 79.8529C174.835 82.7315 172.202 85.6428 169.314 88.5868C167.314 90.6303 165.372 92.7419 163.49 94.9216C161.612 97.097 159.945 99.4456 158.51 101.936C157.046 104.48 155.88 107.184 155.036 109.996C154.156 112.875 153.717 116.106 153.721 119.686C153.721 120.842 153.746 122.217 153.813 123.816C153.824 124.111 153.84 124.399 153.857 124.683H149.181L154.283 128.134H179.092C178.957 127.245 178.893 126.346 178.903 125.446V123.137C178.911 120.928 179.358 118.743 180.218 116.708C181.103 114.584 182.206 112.557 183.51 110.661C184.837 108.725 186.314 106.897 187.927 105.193C189.555 103.462 191.121 101.83 192.628 100.295C194.628 98.2515 196.694 96.0772 198.825 93.7722C200.921 91.5163 202.809 89.076 204.467 86.481C206.124 83.8589 207.478 81.057 208.503 78.1292C209.568 75.1239 210.103 71.8291 210.107 68.2448C210.111 64.6605 209.515 60.8864 208.32 56.9227Z" fill="#B0180D"></path><path d="M161.811 57.6223C157.35 57.6223 153.139 58.1784 149.18 59.2908C145.221 60.4031 140.826 62.199 135.993 64.6785L128.187 43.6958C133.017 40.5999 138.715 38.2158 145.28 36.5436C151.845 34.8713 158.285 34.0352 164.599 34.0352C172.519 34.0352 179.05 35.0872 184.19 37.1913C189.33 39.2955 193.387 41.9578 196.361 45.1784C199.33 48.401 201.404 51.9301 202.583 55.7657C203.762 59.6014 204.351 63.2535 204.349 66.722C204.349 70.1959 203.821 73.3845 202.764 76.2876C201.751 79.1264 200.414 81.839 198.779 84.3717C197.138 86.8876 195.272 89.2494 193.204 91.4279C191.1 93.6594 189.059 95.7639 187.079 97.7413C185.592 99.2276 184.044 100.808 182.435 102.481C180.842 104.127 179.38 105.896 178.065 107.772C176.78 109.604 175.689 111.566 174.812 113.625C173.963 115.59 173.521 117.707 173.512 119.847V122.078C173.502 122.949 173.565 123.819 173.699 124.679H149.177C148.909 123.301 148.753 121.903 148.711 120.5C148.645 118.952 148.621 117.622 148.621 116.504C148.621 113.039 149.054 109.912 149.921 107.125C150.757 104.4 151.91 101.782 153.355 99.325C154.776 96.9122 156.425 94.6404 158.277 92.5406C160.133 90.4372 162.052 88.3957 164.034 86.4162C166.882 83.5676 169.484 80.7496 171.84 77.9623C174.186 75.1749 175.361 71.9864 175.365 68.3966C175.365 65.422 174.22 62.8826 171.93 60.7785C169.64 58.6743 166.267 57.6223 161.811 57.6223Z" fill="#DA291C"></path><path d="M180.79 152.211C180.79 156.684 179.342 160.137 176.446 162.57C173.55 165.003 170.275 166.222 166.622 166.225C162.962 166.225 159.685 165.007 156.792 162.57C153.9 160.134 152.453 156.68 152.454 152.211C152.454 147.742 153.901 144.289 156.793 141.851C161.25 138.089 167.846 137.253 173.065 139.891C177.697 142.234 180.79 146.995 180.79 152.211Z" fill="#B0180D"></path><path d="M175.937 152.21C175.937 156.683 174.489 160.136 171.592 162.569C168.696 165.002 165.422 166.221 161.769 166.224C158.109 166.224 154.833 165.006 151.94 162.569C149.047 160.133 147.601 156.679 147.602 152.21C147.602 147.741 149.048 144.288 151.94 141.85C154.832 139.412 158.109 138.194 161.769 138.195C165.424 138.195 168.698 139.414 171.592 141.85C174.487 144.287 175.935 147.74 175.937 152.21Z" fill="#DA291C"></path><path d="M82.5695 46.6685C82.9888 44.4322 81.5159 42.2794 79.2796 41.8601C77.0433 41.4408 74.8905 42.9138 74.4712 45.15C74.0518 47.3863 75.5248 49.5391 77.7611 49.9585C79.9974 50.3778 82.1502 48.9048 82.5695 46.6685Z" fill="#DA291C"></path><path d="M84.5329 54.3919C84.7685 53.1339 83.9328 51.9217 82.6662 51.6845C81.3997 51.4472 80.1819 52.2747 79.9462 53.5327C79.7106 54.7907 80.5463 56.0029 81.8128 56.2401C83.0794 56.4774 84.2972 55.6499 84.5329 54.3919Z" fill="#DA291C"></path><path d="M79.8231 36.6298C86.1577 30.2953 86.1577 20.025 79.8231 13.6905C73.4886 7.35594 63.2183 7.35593 56.8838 13.6905C50.5492 20.025 50.5492 30.2953 56.8838 36.6298C63.2183 42.9644 73.4886 42.9644 79.8231 36.6298Z" fill="#DA291C"></path><path d="M60.8221 27.6442C61.8284 27.6442 62.6442 26.8284 62.6442 25.8221C62.6442 24.8158 61.8284 24 60.8221 24C59.8158 24 59 24.8158 59 25.8221C59 26.8284 59.8158 27.6442 60.8221 27.6442Z" fill="white"></path><path d="M68.4393 27.6442C69.4456 27.6442 70.2614 26.8284 70.2614 25.8221C70.2614 24.8158 69.4456 24 68.4393 24C67.433 24 66.6172 24.8158 66.6172 25.8221C66.6172 26.8284 67.433 27.6442 68.4393 27.6442Z" fill="white"></path><path d="M76.0565 27.6442C77.0628 27.6442 77.8786 26.8284 77.8786 25.8221C77.8786 24.8158 77.0628 24 76.0565 24C75.0502 24 74.2344 24.8158 74.2344 25.8221C74.2344 26.8284 75.0502 27.6442 76.0565 27.6442Z" fill="white"></path><path d="M56.9581 158.304L58.4288 164.118C58.8125 165.636 60.2434 166.659 61.8242 166.55C66.646 166.213 76.6656 165.002 82.4169 160.654L80.7811 152.274C72.8758 151.816 65.4811 152.274 59.0724 154.478C57.4748 155.032 56.5484 156.68 56.9581 158.304Z" fill="black"></path><path d="M66.5892 162.114C66.5302 162.114 66.4729 162.099 66.4261 162.073C66.3792 162.046 66.3454 162.009 66.3298 161.967L63.5372 154.589C63.518 154.538 63.527 154.483 63.5623 154.437C63.5976 154.391 63.6562 154.357 63.7253 154.343C63.7943 154.329 63.8682 154.336 63.9307 154.362C63.9931 154.388 64.0389 154.431 64.0581 154.482L66.8508 161.857C66.8603 161.882 66.863 161.909 66.8587 161.935C66.8544 161.961 66.8432 161.986 66.8257 162.009C66.8083 162.031 66.7849 162.051 66.7569 162.068C66.7289 162.084 66.6969 162.096 66.6627 162.103C66.639 162.109 66.6143 162.112 66.5892 162.114Z" fill="white"></path><path d="M71.0349 162.114C70.9758 162.114 70.9183 162.099 70.8713 162.073C70.8244 162.046 70.7907 162.009 70.7754 161.967L67.9816 154.589C67.972 154.564 67.9694 154.537 67.9737 154.511C67.978 154.485 67.9892 154.46 68.0067 154.437C68.0241 154.415 68.0475 154.394 68.0755 154.378C68.1035 154.362 68.1355 154.35 68.1697 154.343C68.2039 154.336 68.2397 154.334 68.2749 154.337C68.3102 154.341 68.3442 154.349 68.3752 154.362C68.4061 154.375 68.4333 154.392 68.4552 154.413C68.477 154.433 68.4932 154.457 68.5027 154.482L71.2944 161.86C71.3043 161.885 71.3073 161.912 71.3033 161.938C71.2993 161.964 71.2883 161.989 71.271 162.012C71.2537 162.034 71.2304 162.055 71.2025 162.071C71.1746 162.087 71.1426 162.099 71.1085 162.106C71.0845 162.111 71.0598 162.113 71.0349 162.114Z" fill="white"></path><path d="M75.8342 126.654L56.8613 132.29L70.9521 151.615L91.1814 153.225L119.084 141.415L108.48 125.447L75.8342 126.654Z" fill="#FFBE6C"></path><path d="M99.547 129.039C141.204 116.839 147.894 153.261 82.9047 159.892C80.6089 157.336 77.9264 152.902 76.8613 149.196L111.182 133.503L99.547 129.039Z" fill="#FFE8C8"></path><path d="M101.223 155.133C99.1778 154.484 97.2188 153.225 97.2188 153.225L90.1943 155.383L91.8039 162.875L99.1016 164.336C101.329 160.341 101.455 157.07 101.223 155.133Z" fill="#FBB990"></path><path d="M75.5109 126.414C36.7186 118.997 26.6727 156.483 91.6983 163.225C94.1154 160.518 96.4373 156.727 97.4165 153.225C87.4275 146.504 75.7051 140.679 63.4648 134.594L75.5109 126.414Z" fill="#FFE8C8"></path><path d="M120.655 153.09C115.638 149.945 105.911 155.377 103.469 155.652C102.757 155.733 101.934 155.575 101.125 155.311C101.348 157.24 101.223 160.499 99.083 164.47L100.277 164.716C100.277 164.716 108.525 167.787 117.275 165.998C125.35 164.35 124.6 155.56 120.655 153.09Z" fill="black"></path><path d="M113.11 163.225C113.097 163.225 113.084 163.221 113.071 163.215C113.055 163.207 113.04 163.194 113.027 163.177C113.015 163.16 113.004 163.138 112.996 163.115C112.989 163.091 112.984 163.065 112.982 163.038C112.981 163.011 112.983 162.985 112.988 162.959C113.371 161.015 113.539 157.193 112.428 154.628C112.415 154.585 112.413 154.535 112.42 154.489C112.428 154.443 112.445 154.402 112.47 154.374C112.494 154.346 112.524 154.333 112.554 154.336C112.583 154.34 112.612 154.36 112.633 154.393C113.797 157.082 113.626 161.063 113.227 163.087C113.218 163.126 113.203 163.16 113.182 163.185C113.161 163.21 113.136 163.223 113.11 163.225Z" fill="white"></path><path d="M109.361 164.336C109.335 164.336 109.309 164.333 109.284 164.326C109.22 164.31 109.167 164.274 109.137 164.225C109.106 164.177 109.1 164.121 109.12 164.07C109.877 162.134 110.206 158.326 108.016 155.769C107.979 155.724 107.964 155.67 107.976 155.616C107.987 155.563 108.024 155.516 108.079 155.485C108.106 155.469 108.137 155.458 108.169 155.452C108.202 155.446 108.235 155.446 108.268 155.45C108.301 155.455 108.332 155.465 108.36 155.48C108.388 155.494 108.412 155.513 108.431 155.535C110.726 158.214 110.388 162.18 109.602 164.199C109.584 164.239 109.552 164.274 109.509 164.299C109.466 164.323 109.414 164.336 109.361 164.336Z" fill="white"></path><path d="M68.7245 78.7797C68.7245 78.7797 78.7708 70.3173 78.3991 68.7091C78.1328 67.5592 75.2884 69.2446 75.2884 69.2446C75.2884 69.2446 79.279 64.5535 79.0761 63.9842C78.7124 62.9662 75.9524 64.8639 75.9524 64.8639C75.9524 64.8639 77.8178 62.2039 76.9265 61.7696C76.0352 61.3354 74.0902 62.9758 74.0902 62.9758C74.0902 62.9758 75.2267 61.4995 74.6925 61.1119C74.1584 60.7243 71.8562 62.318 71.8562 62.318C71.8562 62.318 72.6826 60.4557 70.926 61.1617C69.1693 61.8677 56.8613 73.0625 56.8613 73.0625L68.7245 78.7797Z" fill="#FBB990"></path><path d="M73.2776 68.7795C73.223 68.7788 73.1705 68.7589 73.1296 68.7235C71.1647 66.9673 70.297 66.5423 68.1341 65.8894C68.1051 65.8807 68.0781 65.8665 68.0548 65.8476C68.0314 65.8287 68.0121 65.8055 67.998 65.7792C67.9839 65.753 67.9753 65.7243 67.9726 65.6947C67.9699 65.6652 67.9732 65.6355 67.9824 65.6072C68.0003 65.5499 68.0408 65.5019 68.0949 65.4738C68.149 65.4456 68.2124 65.4396 68.271 65.4571C70.5171 66.1335 71.4163 66.573 73.4516 68.3889C73.4741 68.4089 73.4924 68.4331 73.5053 68.46C73.5183 68.487 73.5256 68.5162 73.527 68.5459C73.5284 68.5757 73.5237 68.6054 73.5133 68.6334C73.5029 68.6614 73.487 68.687 73.4664 68.709C73.4427 68.7343 73.4133 68.7538 73.3805 68.766C73.3478 68.7783 73.3125 68.7829 73.2776 68.7795Z" fill="#E9996B"></path><path d="M70.37 73.224H70.3448C70.322 73.2202 70.3001 73.2109 70.2802 73.1967C70.2604 73.1825 70.243 73.1636 70.2292 73.1412C70.2154 73.1187 70.2054 73.0932 70.1997 73.0659C70.194 73.0387 70.1928 73.0104 70.1962 72.9826C70.3658 71.4935 70.7499 70.5624 71.3695 70.1379C71.8994 69.7751 72.5877 69.811 73.4176 70.2492C73.4394 70.2598 73.4592 70.2757 73.4758 70.2959C73.4925 70.3161 73.5057 70.3401 73.5146 70.3666C73.5235 70.3931 73.5279 70.4216 73.5277 70.4502C73.5274 70.4789 73.5224 70.5072 73.513 70.5334C73.5036 70.5597 73.49 70.5834 73.473 70.6031C73.456 70.6228 73.4359 70.6381 73.4139 70.6481C73.3919 70.6582 73.3685 70.6628 73.3451 70.6616C73.3216 70.6603 73.2986 70.6534 73.2774 70.6411C72.5541 70.2594 71.9695 70.2167 71.5406 70.5111C71.0303 70.8534 70.6995 71.7092 70.5411 73.0425C70.5347 73.0926 70.5141 73.1383 70.4828 73.1715C70.4515 73.2048 70.4115 73.2233 70.37 73.224Z" fill="#E9996B"></path><path d="M69.3141 64.3355C69.2679 64.3356 69.2227 64.3259 69.1844 64.3077C69.1461 64.2895 69.1165 64.2637 69.0994 64.2336C69.0823 64.2034 69.0785 64.1704 69.0885 64.1387C69.0985 64.107 69.1218 64.0782 69.1555 64.0559L72.0202 62.1624C72.0419 62.1467 72.068 62.1343 72.0967 62.1258C72.1255 62.1174 72.1564 62.1131 72.1876 62.1133C72.2188 62.1135 72.2496 62.1181 72.2781 62.1268C72.3067 62.1356 72.3325 62.1483 72.3538 62.1643C72.3752 62.1802 72.3917 62.199 72.4024 62.2196C72.4131 62.2402 72.4177 62.262 72.416 62.2839C72.4143 62.3057 72.4063 62.3271 72.3925 62.3467C72.3787 62.3663 72.3594 62.3838 72.3357 62.398L69.4728 64.2915C69.4299 64.3199 69.3731 64.3356 69.3141 64.3355Z" fill="#E9996B"></path><path d="M71.5385 65.4468C71.5081 65.447 71.478 65.4433 71.4498 65.4359C71.4217 65.4285 71.3961 65.4176 71.3745 65.4038C71.3524 65.3896 71.3348 65.3728 71.3229 65.3542C71.3109 65.3356 71.3047 65.3157 71.3047 65.2956C71.3047 65.2755 71.3109 65.2556 71.3229 65.237C71.3348 65.2185 71.3524 65.2016 71.3745 65.1875L74.2194 63.2777C74.2406 63.2619 74.2665 63.2491 74.2956 63.24C74.3247 63.2309 74.3564 63.2257 74.3887 63.2248C74.421 63.2238 74.4533 63.2271 74.4836 63.2344C74.5139 63.2418 74.5415 63.253 74.5648 63.2675C74.5882 63.2819 74.6067 63.2993 74.6193 63.3185C74.6318 63.3377 74.6382 63.3583 74.638 63.3792C74.6378 63.4 74.631 63.4207 74.6181 63.4398C74.6051 63.4589 74.5862 63.4761 74.5626 63.4903L71.7197 65.4001C71.696 65.4154 71.6677 65.4275 71.6366 65.4355C71.6054 65.4435 71.5721 65.4474 71.5385 65.4468Z" fill="#E9996B"></path><path d="M73.7222 66.5582C73.6731 66.5582 73.6257 66.5408 73.5895 66.5096C73.5707 66.493 73.5555 66.4732 73.5449 66.4511C73.5343 66.4291 73.5283 66.4053 73.5275 66.3811C73.5266 66.3568 73.5308 66.3327 73.5398 66.31C73.5489 66.2873 73.5626 66.2666 73.5801 66.2489L75.4061 64.4005C75.4232 64.3816 75.4441 64.3662 75.4677 64.3552C75.4912 64.3441 75.5169 64.3377 75.5432 64.3362C75.5695 64.3348 75.5958 64.3384 75.6205 64.3468C75.6453 64.3552 75.668 64.3683 75.6873 64.3852C75.7065 64.4021 75.722 64.4225 75.7327 64.4451C75.7434 64.4678 75.7491 64.4923 75.7495 64.5171C75.75 64.542 75.745 64.5666 75.7351 64.5896C75.7252 64.6126 75.7104 64.6334 75.6917 64.6509L73.8657 66.4992C73.8475 66.518 73.8253 66.5329 73.8005 66.543C73.7758 66.5532 73.7491 66.5583 73.7222 66.5582Z" fill="#E9996B"></path><path d="M105.458 134.054L69.7012 135.447L65.75 102.61C65.75 102.61 77.7205 91.1725 82.326 86.9598L90.102 86.5586C114.223 97.6046 110.274 111.4 105.458 134.054Z" fill="#AB92E1"></path><path d="M90.1943 86.5586C90.1943 86.5586 117.898 88.9339 126.632 107.968C135.178 126.594 100.058 133.225 100.058 133.225L90.1943 86.5586Z" fill="#AB92E1"></path><path d="M59.1547 91.2621L70.4629 77.44L59.8896 71.002C55.4783 74.0825 46.9485 81.0604 39.7195 88.9624C38.1242 90.7065 36.8768 92.7402 36.2499 94.988C35.7253 96.8256 35.6119 98.7569 35.9177 100.644C36.7013 105.47 40.4811 109.193 45.5256 109.786C49.8336 110.293 66.2897 108.999 79.61 105.064L83.5278 89.8754C81.5141 88.7278 66.5514 88.5295 59.1547 91.2621Z" fill="#AB92E1"></path><path d="M92.4162 79.2757V79.7831L92.3444 87.6693L92.336 88.524C92.2865 89.7891 91.8053 90.984 90.9927 91.8595C90.18 92.7351 89.0987 93.2237 87.9739 93.2237C86.8491 93.2237 85.7678 92.7351 84.9551 91.8595C84.1425 90.984 83.6613 89.7891 83.6119 88.524L83.5273 78.7793L92.4162 79.2757Z" fill="#FBB990"></path><path d="M92.4169 79.8906L92.3452 87.6684C88.4587 85.9089 86.8613 81.2294 86.8613 81.2294L92.4169 79.8906Z" fill="#E9996B"></path><path d="M94.5952 66.1639C96.0958 68.1167 100.475 79.1872 96.0353 82.9645C91.0382 87.2152 83.4366 80.2293 83.4366 80.2293L82.416 67.3359L89.0167 65.4473L94.5952 66.1639Z" fill="#FBB990"></path><path d="M78.5334 65.4473C78.5334 65.4473 64.2104 73.4388 75.8899 96.4903C77.3895 99.448 80.7087 100.744 83.5537 99.299C84.2739 98.9311 84.9155 98.4084 85.4386 97.7635C85.9617 97.1186 86.3551 96.3652 86.5942 95.5504C86.8333 94.7356 86.9131 93.8768 86.8285 93.0276C86.7439 92.1784 86.4967 91.3569 86.1024 90.6144C84.1909 86.9826 82.3476 82.3041 83.1388 78.8246L78.5334 65.4473Z" fill="black"></path><path d="M82.7393 71.7393C84.3481 70.1304 84.3481 67.5219 82.7393 65.9131C81.1304 64.3042 78.522 64.3042 76.9131 65.9131C75.3042 67.5219 75.3042 70.1304 76.9131 71.7393C78.5219 73.3481 81.1304 73.3481 82.7393 71.7393Z" fill="#DA291C"></path><path d="M84.5406 74.2132C84.0908 71.7622 83.8174 70.0806 86.4382 68.8168C86.4382 68.8168 95.6737 70.4052 97.4363 67.1096C99.1989 63.8141 96.5129 58.616 90.8883 62.2287C76.4891 59.5688 74.5581 72.3092 78.9239 76.5575L83.2326 75.9324C83.4386 75.9023 83.6363 75.8337 83.814 75.7307C83.9917 75.6276 84.146 75.4921 84.2677 75.3321C84.3895 75.172 84.4763 74.9907 84.5232 74.7986C84.57 74.6065 84.5759 74.4075 84.5406 74.2132Z" fill="black"></path><path d="M91.8612 75.447C92.168 75.447 92.4168 75.1983 92.4168 74.8915C92.4168 74.5847 92.168 74.3359 91.8612 74.3359C91.5544 74.3359 91.3057 74.5847 91.3057 74.8915C91.3057 75.1983 91.5544 75.447 91.8612 75.447Z" fill="black"></path><path d="M96.3056 73.2244C96.6124 73.2244 96.8611 72.9757 96.8611 72.6688C96.8611 72.362 96.6124 72.1133 96.3056 72.1133C95.9987 72.1133 95.75 72.362 95.75 72.6688C95.75 72.9757 95.9987 73.2244 96.3056 73.2244Z" fill="black"></path><path d="M96.1272 76.5574C96.1026 76.5576 96.0781 76.5525 96.0553 76.5426C96.0325 76.5328 96.0118 76.5182 95.9945 76.4999C95.9764 76.4812 95.962 76.4589 95.9522 76.4344C95.9424 76.4098 95.9373 76.3835 95.9373 76.3569C95.9373 76.3302 95.9424 76.3039 95.9522 76.2793C95.962 76.2548 95.9764 76.2325 95.9945 76.2139C96.2688 75.9111 96.5698 75.4859 96.4423 75.1757C96.3149 74.8656 95.7573 74.717 95.5041 74.717C94.9589 74.717 94.6969 73.6993 94.6491 73.495C94.6404 73.4681 94.6371 73.4395 94.6394 73.4112C94.6418 73.3828 94.6497 73.3553 94.6628 73.3304C94.6759 73.3055 94.6938 73.2837 94.7153 73.2664C94.7369 73.2492 94.7617 73.2368 94.788 73.2302C94.8144 73.2236 94.8418 73.2228 94.8685 73.228C94.8952 73.2331 94.9205 73.244 94.9429 73.26C94.9654 73.276 94.9843 73.2968 94.9987 73.3209C95.013 73.3451 95.0224 73.3721 95.0262 73.4003C95.1253 73.8293 95.3501 74.3103 95.5041 74.3103C95.7643 74.3103 96.5662 74.4403 96.7981 75.016C96.9663 75.4264 96.7981 75.9241 96.2759 76.5017C96.2561 76.5213 96.2327 76.5363 96.2071 76.5459C96.1815 76.5555 96.1543 76.5594 96.1272 76.5574Z" fill="#E9996B"></path><path d="M95.6148 78.7791C95.5881 78.7789 95.5621 78.7644 95.5396 78.7374C94.6438 77.6015 93.7381 78.5547 93.7294 78.5639C93.7141 78.5804 93.6971 78.591 93.6796 78.5952C93.662 78.5993 93.6442 78.5969 93.6271 78.5881C93.6101 78.5793 93.5941 78.5643 93.5801 78.5438C93.5662 78.5234 93.5545 78.498 93.5458 78.4691C93.5368 78.4404 93.531 78.4087 93.5286 78.3758C93.5262 78.3429 93.5273 78.3094 93.5319 78.2773C93.5365 78.2452 93.5444 78.2151 93.5553 78.1888C93.5662 78.1626 93.5797 78.1407 93.5951 78.1244C93.6382 78.0781 94.6561 77.0069 95.6899 78.3164C95.7196 78.354 95.7401 78.412 95.747 78.4779C95.7539 78.5438 95.7467 78.6121 95.7269 78.668C95.7146 78.7026 95.6979 78.7308 95.6783 78.7502C95.6588 78.7696 95.6369 78.7795 95.6148 78.7791Z" fill="#E9996B"></path><path d="M92.292 71.3497C92.7206 72.1478 91.9725 72.3136 91.0996 72.7686C90.2268 73.2236 89.3307 73.3952 89.1261 73.0154C88.9215 72.6356 89.4651 71.9531 90.3379 71.4943C91.2107 71.0355 91.9608 70.7328 92.292 71.3497Z" fill="black"></path><path d="M94.6554 70.6805C94.8071 71.1976 95.2195 70.9706 95.8261 70.8206C96.4327 70.6707 96.924 70.3918 96.8543 70.1452C96.7845 69.8985 96.2356 69.8172 95.629 69.963C95.0224 70.1087 94.5417 70.2797 94.6554 70.6805Z" fill="black"></path><path d="M84.6264 79.0089C85.4467 77.9461 85.1328 76.329 83.9253 75.3971C82.7178 74.4652 81.074 74.5714 80.2538 75.6342C79.4335 76.697 79.7474 78.314 80.9549 79.2459C82.1623 80.1778 83.8061 80.0717 84.6264 79.0089Z" fill="#F9B384"></path><path d="M83.3671 77.6697C83.3249 77.6697 83.2844 77.6597 83.2545 77.6419C83.2247 77.624 83.2079 77.5998 83.2079 77.5746C83.2092 77.4371 83.1538 77.3015 83.0466 77.1798C82.9393 77.0581 82.7835 76.9541 82.5929 76.8769C82.4431 76.8121 82.2691 76.7703 82.0859 76.7551C81.9028 76.7399 81.7162 76.7517 81.5425 76.7897C81.5229 76.7962 81.5012 76.8002 81.4788 76.8013C81.4564 76.8025 81.4339 76.8009 81.4127 76.7965C81.3915 76.7921 81.372 76.785 81.3557 76.7758C81.3393 76.7666 81.3264 76.7555 81.3178 76.7431C81.3092 76.7307 81.3051 76.7174 81.3057 76.704C81.3064 76.6905 81.3117 76.6774 81.3215 76.6653C81.3313 76.6532 81.3452 76.6425 81.3624 76.6339C81.3796 76.6252 81.3997 76.6189 81.4213 76.6152C81.643 76.5647 81.8821 76.5476 82.1176 76.5654C82.353 76.5832 82.5774 76.6354 82.7711 76.7173C83.0052 76.8116 83.1967 76.939 83.3287 77.0881C83.4607 77.2372 83.5291 77.4034 83.5278 77.572C83.5284 77.5848 83.5247 77.5975 83.5169 77.6094C83.509 77.6213 83.4973 77.6321 83.4823 77.6413C83.4673 77.6504 83.4493 77.6576 83.4295 77.6625C83.4098 77.6674 83.3885 77.6698 83.3671 77.6697Z" fill="#E9996B"></path><path d="M58.8142 90.7232L52.5967 97.4492L52.8859 97.7166L59.1034 90.9905L58.8142 90.7232Z" fill="#9073CE"></path><path d="M102.532 119.891L102.416 119.492C106.984 118.03 111.415 116.28 115.431 111.002L115.749 111.263C111.655 116.634 107.162 118.409 102.532 119.891Z" fill="#9073CE"></path><path d="M105.475 104.336H67.1344C65.7555 104.336 64.6387 105.566 64.6387 107.083V134.922C64.6387 136.439 65.7555 137.669 67.1344 137.669H105.475C106.854 137.669 107.972 136.439 107.972 134.922V107.077C107.974 105.566 106.854 104.336 105.475 104.336Z" fill="#ACCDD6"></path><path d="M88.1298 119.472C88.1955 119.475 88.2574 119.503 88.302 119.551C88.3466 119.598 88.3703 119.66 88.368 119.725V122.28C88.3703 122.344 88.3466 122.406 88.3019 122.453C88.2572 122.5 88.1954 122.528 88.1298 122.531H84.4748C84.4092 122.528 84.3473 122.5 84.3027 122.453C84.258 122.406 84.2342 122.344 84.2365 122.28V119.725C84.2342 119.66 84.258 119.598 84.3026 119.551C84.3472 119.503 84.4091 119.475 84.4748 119.472H88.1354M88.1354 118.779H84.4748C84.221 118.782 83.9788 118.883 83.8012 119.061C83.6236 119.238 83.5251 119.477 83.5274 119.725V122.28C83.5251 122.528 83.6236 122.766 83.8013 122.943C83.9789 123.12 84.2211 123.221 84.4748 123.224H88.1354C88.3891 123.221 88.6314 123.12 88.809 122.943C88.9866 122.766 89.0851 122.528 89.0829 122.28V119.725C89.0851 119.477 88.9867 119.238 88.8091 119.061C88.6315 118.883 88.3892 118.782 88.1354 118.779Z" fill="#9CB9C1"></path></svg>