<svg xmlns="http://www.w3.org/2000/svg" width="194" height="148" viewBox="0 0 194 148" fill="none">
  <mask id="mask0_3681_3818" style="mask-type:luminance" maskUnits="userSpaceOnUse" x="0" y="0" width="194" height="148">
    <path d="M0.839935 0H193.11V148H0.839935V0Z" fill="white"/>
  </mask>
  <g mask="url(#mask0_3681_3818)">
    <path d="M141.978 110.09C143.174 109.237 144.427 108.468 145.729 107.788C152.481 104.318 158.802 100.756 164.075 95.2914C170.321 88.8179 174.698 80.0763 174.699 70.904C174.701 61.7317 169.765 52.3277 161.638 48.5234C151.525 43.7889 139.955 48.2903 128.95 49.4255C114.764 50.8884 100.66 46.5713 86.6607 43.5883C72.6621 40.6061 57.447 39.0891 44.7293 45.6544C34.4937 50.9395 26.9553 61.4016 24.9847 73.0551C23.014 84.7094 26.6593 97.2805 34.5321 105.984C45.8889 118.54 63.7547 121.921 80.3204 122.717C92.5259 123.307 104.76 122.883 116.896 121.449C122.364 120.801 127.483 119.689 132.313 116.969C135.786 115.017 138.752 112.359 141.978 110.09Z" stroke="#E7ECF1" stroke-miterlimit="10"/>
    <path d="M66.8057 121.602C58.278 120.593 49.6969 118.533 42.1623 114.017C34.6268 109.501 28.1962 102.293 25.6862 93.4739C23.1753 84.6546 25.16 74.2635 31.6158 68.382C39.6544 61.0634 51.5632 62.2274 62.0298 60.3034C75.5229 57.8303 87.3585 49.8206 99.4627 43.1243C111.567 36.4273 125.193 30.807 138.723 33.6412C149.615 35.9234 159.435 43.9198 164.441 54.5869C169.447 65.254 169.521 78.3424 164.633 88.8593C157.585 104.039 142.022 112.177 126.954 117.478C115.86 121.382 104.45 124.321 92.8508 126.263C88.5928 126.975 84.2483 127.552 79.9637 126.878C75.6791 126.204 71.3923 124.131 68.7394 120.421L66.8057 121.602Z" fill="#DBE2E9"/>
    <mask id="mask1_3681_3818" style="mask-type:luminance" maskUnits="userSpaceOnUse" x="102" y="8" width="58" height="53">
      <path d="M102.634 8.04443V60.3935L109.802 54.2241H159.702V8.04443H102.634Z" fill="white"/>
    </mask>
    <g mask="url(#mask1_3681_3818)">
      <path d="M159.702 8.04443H102.634V62.9317H159.702V8.04443Z" fill="#FFE8C8"/>
      <path d="M140.484 41.7396C134.514 45.1584 131.617 44.2186 130.674 43.688C129.738 44.2193 126.84 45.1577 120.872 41.7396C115.153 38.4614 118.486 31.4144 120.738 27.1268C121.962 24.798 122.905 22.339 125.051 20.6614C127.071 19.0823 129.332 18.5946 131.984 18.7256C135.63 18.9054 137.893 21.0766 139.012 23.6821C139.901 25.7541 141.006 27.6929 141.978 29.7227C142.888 31.6245 143.622 33.6951 143.69 35.8055C143.776 38.2601 142.716 40.4594 140.484 41.7396Z" fill="black"/>
      <path d="M141.911 41.3214C138.256 37.2085 131.524 38.0676 130.805 38.1712C130.089 38.0676 123.356 37.2092 119.7 41.3221C116.947 44.419 116.982 56.7807 116.982 56.7807C116.982 56.4759 129.789 56.3871 130.805 56.3797C131.821 56.373 144.629 56.4759 144.629 56.7807C144.629 56.7807 144.664 44.4183 141.911 41.3214Z" fill="#DA291C"/>
      <path d="M125.133 28.9131C123.698 29.0596 122.503 32.5539 126.383 32.6279L127.311 31.529L125.133 28.9131ZM136.511 28.9131C138.128 28.9982 139.278 32.5539 135.397 32.6279L134.469 31.529L136.511 28.9131Z" fill="#E9996B"/>
      <path d="M127.575 34.136H134.041V38.2126C134.041 38.8518 133.852 39.4767 133.497 40.0082C133.142 40.5397 132.638 40.954 132.047 41.1986C131.457 41.4432 130.807 41.5071 130.18 41.3822C129.553 41.2573 128.978 40.9493 128.526 40.497C127.92 39.8911 127.58 39.0695 127.58 38.2126V34.136H127.575Z" fill="#FBB990"/>
      <path d="M134.018 35.0012C131.892 38.4637 129.735 38.403 127.546 35.1204L134.018 35.0012Z" fill="#E9996B"/>
      <path d="M137.037 26.3239C137.006 26.6406 136.968 26.9507 136.929 27.2585C136.255 32.3808 134.51 36.3901 130.71 36.3901C126.81 36.3901 125.452 32.5436 124.74 27.1905C124.679 26.7422 124.625 26.2932 124.575 25.8437L132.246 22.7778L137.037 26.3239Z" fill="#FBB990"/>
      <path d="M123.952 28.7933C125.905 29.4526 129.632 27.2467 129.632 27.2467C129.344 26.409 129.752 25.5832 130.567 24.7677C130.518 25.5965 130.711 26.8989 131.454 27.3791C131.454 27.3791 131.957 27.499 132.736 27.331C132.544 26.3816 132.684 25.5499 133.263 24.8742C133.263 24.8742 134.138 27.2593 134.569 27.7987C135.115 28.4803 137.078 29.5103 138.835 28.6497L135.566 21.2438L126.9 21.0625L122.98 24.6952L123.952 28.7933Z" fill="black"/>
      <path d="M128.575 29.711C128.86 29.711 129.092 29.395 129.092 29.005C129.092 28.6151 128.86 28.2991 128.575 28.2991C128.289 28.2991 128.059 28.6151 128.059 29.005C128.059 29.395 128.289 29.711 128.575 29.711ZM132.913 29.711C133.198 29.711 133.429 29.395 133.429 29.005C133.429 28.6151 133.198 28.2991 132.913 28.2991C132.627 28.2991 132.396 28.6151 132.396 29.005C132.396 29.395 132.627 29.711 132.913 29.711Z" fill="black"/>
      <path d="M131.423 30.9082C131.423 31.5935 131.477 32.1329 130.908 32.1484C130.367 32.1632 130.392 31.5935 130.392 30.9082C130.392 30.2237 130.623 29.668 130.908 29.668C131.193 29.668 131.423 30.223 131.423 30.9082Z" fill="#E9996B"/>
      <path d="M129.318 33.3073L132.576 33.2178C132.576 33.2178 131.215 35.8211 129.318 33.3081V33.3073Z" fill="white"/>
      <path opacity="0.4" d="M123.337 46.6703C123.365 47.4029 123.366 48.1355 123.362 48.8658C123.359 49.597 123.344 50.3296 123.324 51.0607C123.304 51.7918 123.272 52.5225 123.228 53.2526L123.155 54.3478C123.121 54.7133 123.095 55.0781 123.053 55.443L122.884 55.4378C122.865 55.0707 122.863 54.7052 122.854 54.3381V53.2407C122.854 52.5089 122.874 51.777 122.899 51.0466C122.924 50.3155 122.954 49.5844 123.003 48.8547C123.052 48.1244 123.099 47.394 123.171 46.6643L123.337 46.6703ZM138.598 46.3032C138.721 47.0358 138.818 47.7684 138.91 48.5047C139.001 49.2403 139.081 49.9751 139.156 50.7121C139.231 51.4484 139.295 52.187 139.349 52.924L139.418 54.0325C139.432 54.404 139.454 54.7733 139.459 55.1447L139.292 55.161C139.225 54.7955 139.176 54.4284 139.119 54.0614L138.974 52.9603C138.88 52.2245 138.801 51.4871 138.734 50.7484C138.663 50.0084 138.598 49.2743 138.552 48.5365C138.506 47.7988 138.456 47.058 138.436 46.3165L138.598 46.3032Z" fill="#B0180D"/>
    </g>
    <path opacity="0.15" d="M133.393 131.635C133.393 129.38 113.307 127.552 88.5262 127.552C63.7459 127.552 43.6593 129.379 43.6593 131.635C43.6593 133.463 56.8742 135.012 75.0901 135.531C77.074 138.785 73.7625 142.678 71.2243 144.082C66.7695 144.304 63.5697 144.8 64.0744 145.858C66.4557 150.859 86.6955 145.537 86.6955 145.537C86.6955 145.537 94.609 146.029 94.609 145.277C94.609 144.93 93.2156 144.615 90.9231 144.375L91.0926 144.364L82.5478 135.681C84.5043 135.706 86.4972 135.717 88.5262 135.717C113.307 135.717 133.393 133.89 133.393 131.635Z" fill="#D9E1E2"/>
    <path d="M137.357 101.643C136.765 111.403 131.846 121.155 123.781 126.521C114.169 132.919 100.729 131.503 89.782 132.318C80.3189 133.022 70.7833 133.628 61.3142 132.621C53.5583 131.793 45.7343 128.721 42.0298 121.19C38.3172 113.643 37.9154 103.615 41.628 95.9765C42.8063 93.5729 44.3707 91.3788 46.2589 89.4815C47.0893 88.6383 47.9727 87.8491 48.9037 87.1187C49.0221 87.0225 49.139 86.9359 49.2589 86.8449C49.3795 86.7531 49.4979 86.6636 49.6178 86.5755C49.7384 86.4867 49.8583 86.3972 49.9804 86.3106L50.2542 86.1189C51.7729 85.0578 53.3802 84.1293 55.0583 83.3439C56.5102 82.6601 58.0079 82.0778 59.5404 81.6012C64.5206 80.0546 69.7199 79.5063 74.8584 78.8314C85.7623 77.4003 96.8631 76.9126 107.853 76.9193C116.822 76.9193 126.92 78.2661 132.916 85.9598C136.304 90.3066 137.695 96.0838 137.357 101.643Z" fill="#AB92E1"/>
    <path d="M55.0605 83.3411C53.3827 84.1265 51.7756 85.0549 50.2571 86.1161L49.9833 86.3077C49.8605 86.3943 49.7406 86.4831 49.6207 86.5726C49.5001 86.6622 49.3795 86.7502 49.2611 86.842L48.9059 87.1158C48.5544 87.3948 48.211 87.6804 47.8721 87.9735L47.8573 87.9816C47.3059 88.4596 46.7734 88.9589 46.2611 89.4786C46.2694 89.6089 46.3189 89.7331 46.4027 89.8332C46.4864 89.9333 46.5999 90.004 46.7266 90.0351C48.5307 90.3999 49.435 92.1219 50.8884 93.1009C51.9688 93.8269 53.2438 94.0267 54.4655 93.6108C53.1505 96.3998 52.4253 99.1578 52.9929 102.275C53.1674 103.218 53.4634 104.135 53.8735 105.002C52.1841 103.752 50.5561 101.059 49.8864 98.332C49.8529 98.1931 49.7788 98.0674 49.6735 97.9709C49.5681 97.8744 49.4364 97.8115 49.2951 97.7903C49.2015 97.7758 49.1059 97.7799 49.0138 97.8024C48.9218 97.825 48.8351 97.8654 48.7587 97.9215C48.6823 97.9776 48.6178 98.0483 48.5687 98.1294C48.5197 98.2105 48.4872 98.3004 48.473 98.3941C48.4587 98.4878 48.4629 98.5834 48.4856 98.6753C49.3144 102.05 51.4241 105.295 53.6175 106.562C54.1036 106.849 54.6376 107.046 55.1937 107.144C55.6275 107.702 56.1137 108.217 56.6456 108.683L59.8868 109.589L62.5315 92.5193L55.0605 83.3411Z" fill="#9073CE"/>
    <path d="M64.4548 94.8058C57.7541 92.1966 53.1017 89.4201 50.4007 87.5723C49.5444 86.984 48.8747 86.1625 48.4711 85.2052C48.0674 84.2479 47.9466 83.1949 48.123 82.1711L51.5788 62.0327C51.7523 61.0113 52.1783 60.0495 52.8182 59.2346C53.458 58.4198 54.2914 57.7778 55.2425 57.367C60.2599 55.21 65.5424 53.7313 70.9505 52.9699C72.9728 52.8466 75.0018 52.8862 77.0178 53.0883C79.257 53.3096 84.383 54.8199 87.6419 55.8323C88.5507 56.1143 89.384 56.5981 90.0794 57.2475C90.7749 57.8969 91.3145 58.6952 91.6579 59.5826C93.0247 63.1035 95.244 69.0531 95.9558 72.2654C98.4008 83.3647 97.9997 82.5433 97.9997 82.5433L100.524 99.6144L73.7122 101.117L66.8598 97.9915L64.4548 94.8058Z" fill="#DA291C"/>
    <path d="M81.0485 33.7958C81.0485 33.7958 78.6739 28.9258 72.3632 31.1503C67.7944 30.1579 64.3083 35.5681 67.6745 42.9311L74.0156 44.4037L81.0485 33.7958Z" fill="black"/>
    <path d="M77.6823 47.5598V56.1719C77.6809 57.1401 77.2953 58.0681 76.6101 58.7522C75.925 59.4362 74.9963 59.8203 74.0282 59.8201C72.7165 59.8201 71.4585 59.2991 70.531 58.3717C69.6034 57.4443 69.0822 56.1864 69.082 54.8747V47.5591L77.6823 47.5598Z" fill="#FBB990"/>
    <path d="M77.6823 51.1325V55.8308C73.852 55.8493 71.3109 50.8965 71.3109 50.8965L77.6823 51.1325Z" fill="#E9996B"/>
    <path d="M81.4681 46.4764C81.2372 47.6693 80.9072 48.8903 80.4336 49.9648C79.607 51.8525 78.3438 53.2904 76.4161 53.3311C71.9036 53.4273 68.4219 47.2601 68.4219 47.2601L69.1434 38.8448L72.5689 34.9983L82.0105 40.828C81.9973 42.7232 81.8158 44.6134 81.4681 46.4764Z" fill="#FBB990"/>
    <path d="M68.9932 44.7951C68.9932 44.7951 69.9241 41.0085 73.1705 38.5436C73.1705 38.5436 77.8895 44.7048 82.8778 41.73C87.8669 38.7552 85.7039 32.8914 81.0485 33.7957L75.6983 33.1941L68.9976 35.3275L67.8506 40.5852L68.9932 44.7951Z" fill="black"/>
    <path opacity="0.4" d="M73.7299 88.4397C69.1834 78.6162 63.4484 83.3049 62.0498 79.6981C60.0836 74.6439 60.4573 68.9267 60.4462 67.1958L57.7082 82.613C57.7082 82.613 63.8221 83.1902 66.082 86.8754L73.7299 88.4397Z" fill="#B0180D"/>
    <path d="M60.5868 66.9366C60.4166 68.2553 60.2161 69.5688 60.0096 70.8801C59.8039 72.1906 59.57 73.4997 59.3532 74.8102C59.1313 76.1202 58.8895 77.4267 58.628 78.7293L58.2358 80.6844C58.0952 81.3341 57.9635 81.9853 57.8103 82.6335L57.612 82.5973C57.6912 81.9372 57.7911 81.2801 57.8806 80.6215L58.184 78.6516C58.3897 77.3388 58.6117 76.029 58.8478 74.7207C59.0935 73.4161 59.3192 72.1063 59.5804 70.8031C59.8409 69.4993 60.0977 68.1961 60.39 66.8989L60.5868 66.9366ZM87.1483 64.4939C87.5117 66.207 87.8484 67.9253 88.1777 69.6443C88.5063 71.3626 88.8141 73.086 89.1338 74.808C89.4527 76.5293 89.7376 78.2557 90.0277 79.9821L90.4473 82.5788C90.5768 83.4446 90.7152 84.3096 90.8321 85.1754L90.6471 85.208C90.4547 84.3533 90.2911 83.4941 90.1135 82.6365L89.6111 80.0598C89.2875 78.3397 88.9713 76.6182 88.6624 74.8953C88.3671 73.1697 88.0541 71.4469 87.7744 69.719C87.4947 67.9911 87.2135 66.2632 86.9641 64.5265L87.1483 64.4939Z" fill="#B0180D"/>
    <path opacity="0.4" d="M88.4182 72.4446C88.7386 75.5703 88.2576 91.7608 80.7244 92.0006L80.8043 95.5267L92.6651 94.8052L88.4182 72.4446Z" fill="#B0180D"/>
    <path d="M72.93 91.5573C78.2802 89.2729 79.3029 89.3588 80.0229 89.3935C82.4878 89.5134 86.0339 94.4426 86.0339 94.4426L85.974 95.3446H72.449L72.93 91.5573Z" fill="#FBB990"/>
    <path d="M93.5072 94.4639H76.8572V96.9887H93.5072V94.4639Z" fill="#FFE8C8"/>
    <path d="M116.149 96.9911H87.2164L93.7085 71.137H122.64L116.149 96.9911Z" fill="#FFE8C8"/>
    <path d="M118.77 86.418C115.908 85.9903 106.653 84.0671 87.5768 95.688L87.1358 97.2909L116.153 96.9919L118.77 86.418Z" fill="#FFBE6C"/>
    <path d="M74.1924 131.111C74.6327 130.871 81.605 132.394 89.3395 126.664L79.3613 123.818L74.1924 131.111Z" fill="black"/>
    <path d="M118.496 98.0159C118.828 97.5423 119.115 96.8445 118.697 96.4456C118.261 96.0275 117.549 96.3953 117.092 96.7897C116.295 97.4814 115.555 98.2373 114.881 99.0497L98.036 102.181L74.9539 107.789L78.9232 112.855C90.4635 113.697 97.0362 113.913 104.259 112.638C107.941 111.989 111.231 111.319 113.684 109.319C114.268 108.838 114.821 108.038 114.441 107.385C114.184 106.946 113.651 106.831 113.113 106.835C114.346 106.545 115.543 106.119 116.682 105.563C117.189 105.318 117.754 104.933 117.74 104.37C117.732 103.966 117.405 103.625 117.03 103.481C116.655 103.337 116.241 103.349 115.84 103.378C114.299 103.494 112.781 103.829 111.335 104.373C113.97 102.537 116.645 100.634 118.496 98.0159ZM111.303 104.397C111.303 104.397 111.303 104.39 111.311 104.385C111.319 104.383 111.327 104.379 111.335 104.375C111.325 104.383 111.312 104.39 111.303 104.397Z" fill="#9073CE"/>
    <path d="M79.8423 100.214C79.8423 100.214 102.324 89.514 109.656 89.995C116.99 90.476 116.749 99.612 113.984 103.58C111.219 107.547 104.728 112.837 80.8043 111.274L79.8423 100.214Z" fill="black"/>
    <path d="M91.0918 144.364C89.8753 144.708 88.1488 144.791 85.7735 144.415C85.7735 144.415 82.6958 145.212 79.6662 145.84C77.6157 146.265 75.5888 146.609 74.5528 146.578C74.464 146.578 74.3752 146.57 74.2835 146.564C72.2944 146.421 69.7894 145.385 68.4597 143.905C68.1014 143.522 67.8282 143.068 67.6582 142.573C66.9375 140.327 68.4619 137.602 76.7166 138.163C76.7166 138.163 79.4405 137.524 80.0828 135.518C80.7252 133.513 75.9951 123.897 75.9951 123.897L82.7276 119.329L89.3395 126.661C89.3395 126.661 90.3415 133.272 90.3415 135.436C90.3415 135.436 93.1453 139.445 93.5471 141.207C93.8039 142.337 93.2415 143.755 91.0918 144.364Z" fill="#ACCDD6"/>
    <path d="M53.2408 83.4704C54.0117 83.1801 54.7963 82.9274 55.5918 82.7134C55.99 82.6018 56.3924 82.5056 56.798 82.4248C57.0008 82.3841 57.2065 82.3493 57.4152 82.3205C57.5195 82.3057 57.6238 82.2953 57.7326 82.2864C57.8451 82.2802 57.9579 82.2824 58.0701 82.2931C58.9359 82.3841 59.7166 82.655 60.4943 82.9428C61.2728 83.2299 62.0261 83.5666 62.7691 83.9248C63.5112 84.2833 64.2403 84.6681 64.955 85.0785C65.671 85.4878 66.3711 85.9245 67.0537 86.3875C68.4093 87.3236 69.7147 88.3515 70.8365 89.5614L70.6945 89.7042C70.0908 89.1577 69.4608 88.6411 68.8067 88.1561C68.1564 87.6668 67.4864 87.2041 66.7984 86.7694C65.4297 85.8881 64.0104 85.088 62.5478 84.3732C61.8205 84.0119 61.0784 83.6813 60.3234 83.3824C59.5686 83.1004 58.7982 82.7985 58.0301 82.6942C57.9388 82.6825 57.8468 82.6771 57.7548 82.6779C57.6586 82.6779 57.5624 82.6905 57.4662 82.7008C57.2679 82.7223 57.0688 82.7512 56.8698 82.7859C56.4717 82.8548 56.0721 82.9362 55.6754 83.025C54.8804 83.2059 54.0925 83.4167 53.3133 83.6569L53.2408 83.4704Z" fill="#B0180D"/>
    <path d="M57.242 114.942C59.9459 114.761 62.6048 114.956 64.5347 114.28C66.5993 113.56 71.988 114.04 71.988 114.04L69.0272 109.773L57.0052 112.778L57.242 114.942Z" fill="#9073CE"/>
    <path d="M57.3619 107.068C54.6009 102.618 54.6009 93.8437 58.0834 89.8766C62.0675 85.3426 70.5857 83.6251 75.0338 88.9146C79.482 94.2041 87.6567 113.56 89.3395 126.661C89.3395 126.661 80.3233 123.655 74.1924 131.109C74.1924 131.109 66.1375 112.716 64.4548 105.983L59.8868 109.59L57.3619 107.068Z" fill="black"/>
    <path d="M64.4548 105.984C64.4548 105.984 63.2523 105.543 61.5688 106.665C61.5688 106.665 48.4256 106.385 45.5004 109.349C42.5759 112.314 44.8189 116.282 49.1072 116.723C52.7051 117.093 59.6862 114.301 61.8433 113.395C62.2806 113.21 62.7455 113.1 63.219 113.068L66.7769 112.836L64.4548 105.984Z" fill="#ACCDD6"/>
    <path d="M69.6999 45.04C69.6999 45.04 68.8178 42.1185 66.8783 42.8496C64.9388 43.58 65.9725 47.3829 69.7998 48.4411L69.6999 45.04Z" fill="#FBB990"/>
    <path opacity="0.2" d="M91.0918 144.363C89.8753 144.707 88.1488 144.791 85.7734 144.414C85.7734 144.414 80.6837 145.717 77.4677 146.228C80.7747 145.566 85.5833 141.478 85.0416 138.894C89.7909 140.457 91.0822 142.832 91.0918 144.363ZM78.3091 144.816C77.6949 145.571 76.7817 146.083 75.8227 146.34C75.3198 146.473 74.8034 146.548 74.2835 146.564C72.2951 146.422 69.7894 145.386 68.4604 143.905C68.3158 143.71 68.1841 143.506 68.066 143.294C68.7534 143.94 69.5312 144.481 70.3748 144.902C70.7862 145.107 71.2132 145.28 71.652 145.421C71.8651 145.503 72.0886 145.551 72.3106 145.613C72.5319 145.672 72.7568 145.717 72.984 145.748C74.7711 146.052 76.6788 145.864 78.3091 144.816Z" fill="#5C686E"/>
    <path d="M68.8356 45.4537C68.781 45.1916 68.674 44.9431 68.5211 44.7233C68.3796 44.5027 68.2002 44.3088 67.9913 44.1506C67.7863 44.0077 67.5643 43.936 67.377 44.0381C67.1891 44.1402 67.0241 44.3748 66.8872 44.6153L66.754 44.5694C66.8124 44.2808 66.9168 43.97 67.2165 43.7628C67.3706 43.6611 67.5579 43.6226 67.7396 43.6555C67.9061 43.6873 68.0638 43.7561 68.1999 43.8575C68.4486 44.0447 68.6498 44.2882 68.7875 44.5672C68.9399 44.8373 69.0065 45.1466 68.9799 45.4552L68.8356 45.4537Z" fill="#E9996B"/>
    <path d="M80.273 45.3804C80.1879 45.7963 79.8756 46.0834 79.5745 46.0213C79.2733 45.9598 79.0986 45.5743 79.183 45.1555C79.2681 44.7374 79.5796 44.4539 79.8808 44.5154C80.1813 44.5768 80.3566 44.966 80.273 45.3804ZM75.5866 45.1984C75.6547 44.7803 75.4638 44.4014 75.1611 44.3526C74.8577 44.303 74.5573 44.6012 74.4892 45.0193C74.4211 45.4374 74.6113 45.8155 74.9139 45.8651C75.2173 45.9147 75.5185 45.6157 75.5866 45.1984Z" fill="black"/>
    <path d="M77.5757 45.7646C77.6046 46.1057 77.6179 46.4454 77.6223 46.7784C77.641 46.9121 77.7038 47.0358 77.8007 47.1299C77.9265 47.2557 78.0434 47.3889 78.15 47.531C78.2099 47.6183 78.2521 47.716 78.275 47.8196C78.2972 47.9202 78.3039 48.0231 78.295 48.1252C78.2795 48.3302 78.2025 48.5248 78.0737 48.6854C78.0057 48.7668 77.922 48.8341 77.8266 48.8822C77.7306 48.9263 77.6259 48.9483 77.5202 48.9466C77.3289 48.935 77.1451 48.8682 76.9911 48.7542L77.0577 48.6306C77.1998 48.6876 77.3537 48.7098 77.5069 48.6935C77.5713 48.6854 77.6332 48.663 77.6878 48.6279C77.7425 48.5928 77.7886 48.546 77.8229 48.4907C77.9701 48.2717 77.9916 47.9283 77.8503 47.7211C77.7755 47.6027 77.6579 47.4917 77.5365 47.3452C77.3973 47.1888 77.3186 46.9878 77.3145 46.7784C77.3404 46.4291 77.3826 46.0872 77.4351 45.7468L77.5757 45.7646Z" fill="#E9996B"/>
    <path d="M73.7003 43.751C73.8942 43.5564 74.1221 43.3995 74.3737 43.2871C74.6356 43.1674 74.9224 43.1128 75.2099 43.128C75.5027 43.1463 75.7839 43.2491 76.0195 43.424C76.243 43.5912 76.4272 43.8051 76.5604 44.05L76.4487 44.1366C76.2634 43.9689 76.0624 43.8195 75.8485 43.6904C75.6454 43.5732 75.4186 43.5031 75.1848 43.4854C74.7186 43.4499 74.245 43.6356 73.781 43.8657L73.7003 43.751ZM78.5925 44.1632C78.6851 43.9091 78.8742 43.7018 79.1186 43.586C79.3567 43.4654 79.6214 43.4066 79.8882 43.4151C80.1546 43.4188 80.4158 43.4906 80.6467 43.6223C80.8776 43.754 81.0596 43.9568 81.1662 44.1995L81.0478 44.2772C80.7378 43.965 80.3185 43.7856 79.8786 43.7769C79.4531 43.7673 79.0024 43.8842 78.7242 44.2298L78.5925 44.1632Z" fill="black"/>
    <path d="M75.3098 49.8086L78.4992 50.0365C78.4992 50.0365 76.721 52.3956 75.3098 49.8086Z" fill="white"/>
    <path d="M47.4252 44.2395C49.4971 41.9426 50.6534 38.9647 50.6743 35.8714C50.6953 32.7781 49.5794 29.7849 47.5387 27.4601C45.498 25.1354 42.6746 23.6411 39.6047 23.261C36.5348 22.8809 33.4322 23.6415 30.8861 25.3983C28.3401 27.1551 26.5279 29.7859 25.7938 32.7909C25.0597 35.7959 25.4547 38.9658 26.9039 41.6987C28.3531 44.4316 30.7556 46.5371 33.655 47.6153C36.5543 48.6935 39.7487 48.6693 42.6314 47.5473L49.4076 50.309L47.4252 44.2395Z" fill="#DA291C"/>
    <path d="M32.418 37.4322C32.7756 37.4322 33.1187 37.2901 33.3716 37.0372C33.6245 36.7842 33.7666 36.4412 33.7666 36.0835C33.7666 35.7258 33.6245 35.3828 33.3716 35.1299C33.1187 34.877 32.7756 34.7349 32.418 34.7349C32.0603 34.7349 31.7172 34.877 31.4643 35.1299C31.2114 35.3828 31.0693 35.7258 31.0693 36.0835C31.0693 36.4412 31.2114 36.7842 31.4643 37.0372C31.7172 37.2901 32.0603 37.4322 32.418 37.4322ZM38.0553 37.4322C38.413 37.4322 38.756 37.2901 39.0089 37.0372C39.2618 36.7842 39.4039 36.4412 39.4039 36.0835C39.4039 35.7258 39.2618 35.3828 39.0089 35.1299C38.756 34.877 38.413 34.7349 38.0553 34.7349C37.6976 34.7349 37.3546 34.877 37.1016 35.1299C36.8487 35.3828 36.7066 35.7258 36.7066 36.0835C36.7066 36.4412 36.8487 36.7842 37.1016 37.0372C37.3546 37.2901 37.6976 37.4322 38.0553 37.4322ZM43.6919 37.4322C44.0495 37.4322 44.3926 37.2901 44.6455 37.0372C44.8984 36.7842 45.0405 36.4412 45.0405 36.0835C45.0405 35.7258 44.8984 35.3828 44.6455 35.1299C44.3926 34.877 44.0495 34.7349 43.6919 34.7349C43.3342 34.7349 42.9911 34.877 42.7382 35.1299C42.4853 35.3828 42.3432 35.7258 42.3432 36.0835C42.3432 36.4412 42.4853 36.7842 42.7382 37.0372C42.9911 37.2901 43.3342 37.4322 43.6919 37.4322Z" fill="white"/>
    <path d="M79.7025 0.167976H54.8733C54.1949 0.16993 53.5448 0.440336 53.0652 0.920102C52.5856 1.39987 52.3154 2.04998 52.3136 2.72838V13.3822C52.3154 14.0605 52.5856 14.7107 53.0652 15.1904C53.5448 15.6702 54.1949 15.9406 54.8733 15.9426H57.1658L60.8924 21.5421L62.0002 15.9411H79.7025C80.3808 15.9389 81.0307 15.6685 81.5103 15.1887C81.9899 14.709 82.2602 14.059 82.2621 13.3807V2.72764C82.2606 2.04918 81.9904 1.39896 81.5108 0.919148C81.0311 0.439339 80.3809 0.168995 79.7025 0.167236V0.167976Z" fill="#DA291C"/>
    <path d="M77.922 4.04712H56.6544V5.26812H77.922V4.04712ZM77.922 7.26834H56.6544V8.48934H77.922V7.26834ZM77.922 10.4903H56.6544V11.7113H77.922V10.4903Z" fill="white"/>
  </g>
</svg>