<svg xmlns="http://www.w3.org/2000/svg" width="48" height="48" viewBox="0 0 48 48" fill="none">
  <path d="M23.9714 44.1066C35.0633 44.1066 44.0551 35.1369 44.0551 24.0721C44.0551 13.0073 35.0633 4.0376 23.9714 4.0376C12.8795 4.0376 3.8877 13.0073 3.8877 24.0721C3.8877 35.1369 12.8795 44.1066 23.9714 44.1066Z" fill="url(#paint0_linear_2633_6155)"/>
  <path fill-rule="evenodd" clip-rule="evenodd" d="M12.9911 23.8534C18.841 21.2945 22.7514 19.6406 24.691 18.8292C30.2593 16.5199 31.4168 16.1143 32.1676 16.1143C32.324 16.1143 32.6994 16.1455 32.9497 16.3327C33.1374 16.4887 33.1999 16.7072 33.2312 16.8632C33.2625 17.0192 33.2938 17.3625 33.2625 17.6434C32.9497 20.7952 31.6671 28.5032 30.9788 32.0295C30.6973 33.5274 30.1342 34.0267 29.6024 34.0891C28.4449 34.1828 27.5377 33.309 26.4115 32.5912C24.6597 31.4366 23.6586 30.7189 21.9381 29.5954C19.9672 28.2848 21.2498 27.567 22.376 26.4124C22.6576 26.1003 27.8193 21.4506 27.9131 21.0137C27.9131 20.9512 27.9444 20.764 27.8193 20.6704C27.6941 20.5768 27.5377 20.608 27.4126 20.6392C27.2249 20.6704 24.4094 22.5428 18.9349 26.2251C18.1215 26.7868 17.402 27.0365 16.7451 27.0365C16.0256 27.0365 14.6491 26.6308 13.6168 26.2875C12.3655 25.8819 11.3644 25.6634 11.4582 24.9769C11.5521 24.6024 12.0526 24.2279 12.9911 23.8534Z" fill="white"/>
  <defs>
    <linearGradient id="paint0_linear_2633_6155" x1="3.91748" y1="24.0576" x2="44.0558" y2="24.0576" gradientUnits="userSpaceOnUse">
      <stop stop-color="#2AABEE"/>
      <stop offset="1" stop-color="#229ED9"/>
    </linearGradient>
  </defs>
</svg>