<svg width="194" height="180" viewBox="0 0 194 180" fill="none" xmlns="http://www.w3.org/2000/svg">
<g clip-path="url(#clip0_2897_3053)">
<path d="M12.591 95.3653C12.591 95.3653 27.763 76.2708 61.7621 76.9902C95.7611 77.7099 131.447 103.441 154.078 98.9244C176.71 94.4083 198.065 117.537 192.106 142.387C186.68 165.016 139.694 168.551 112.517 157.577C85.3384 146.603 52.1926 148.059 38.9715 154.249C25.7502 160.438 12.3554 151.821 6.88204 140.354C1.40901 128.888 2.16203 106.06 12.591 95.3653Z" fill="#EBEEF3"/>
<path d="M58.5312 151.915C58.5231 152.059 58.5602 152.202 58.6376 152.324C58.7149 152.446 58.8285 152.542 58.9628 152.597C59.0969 152.653 59.2452 152.666 59.3871 152.634C59.5289 152.603 59.6575 152.528 59.7549 152.421C61.0768 150.986 61.6322 148.803 61.6322 148.803L64.3644 151.597H68.2708C68.4323 151.272 68.5905 150.947 68.7455 150.619L68.538 148.722L68.6541 147.486L66.0733 143.438H60.4473L59.1782 147.898L58.5312 151.915Z" fill="#FFD8C4"/>
<path d="M67.1493 150.672L68.6435 153.603L69.0373 157.032C69.0515 157.159 69.038 157.286 68.9977 157.407C68.9574 157.528 68.8913 157.638 68.8039 157.731C68.7162 157.824 68.6093 157.897 68.4905 157.944C68.3717 157.992 68.244 158.013 68.1161 158.007C67.9452 157.998 67.7806 157.94 67.6422 157.84C67.5037 157.74 67.3972 157.603 67.3356 157.444L66.126 154.325L63.7315 150.934L67.1493 150.672Z" fill="#FFD8C4"/>
<path d="M68.3691 148.444L70.0431 151.982C70.3907 152.716 70.5708 153.517 70.5705 154.329V156.11C70.5705 156.294 70.5048 156.472 70.385 156.612C70.2652 156.752 70.0991 156.845 69.9164 156.875C69.7602 156.899 69.6002 156.876 69.4576 156.808C69.3151 156.74 69.1966 156.631 69.1178 156.495C69.0655 156.404 69.0322 156.304 69.0198 156.201L68.4887 153.756L67.4657 151.311L68.3691 148.444Z" fill="#FFD8C4"/>
<path d="M68.6541 147.476L69.3571 149.142C69.7785 150.135 69.8757 151.234 69.6349 152.285L69.5787 152.533L68.6434 151.328L68.2917 148.164L68.6541 147.476Z" fill="#FFD8C4"/>
<path d="M45.7078 88.9773C45.7078 88.9773 52.543 88.7887 56.0275 91.8657C62.2089 97.3317 62.9404 118.759 62.9404 118.759C62.9404 118.759 65.5 133.401 66.8397 143.907L59.3364 145.457C59.3364 145.457 55.9994 132.444 54.6844 120.691C53.3693 108.938 52.2793 96.1303 52.2793 96.1303L45.7078 88.9773Z" fill="#7968A0"/>
<path d="M44.2451 87.7864C42.0404 86.5952 42.6418 80.8219 42.6418 80.8219L39.3435 81.035V80.8219L38.9918 80.93L38.6404 80.8219V81.035L35.3388 80.8219C35.3388 80.8219 35.9398 86.5952 33.7354 87.7864C31.5306 88.9774 18.5068 89.5781 19.9133 102.91H54.9587C52.7156 91.8657 46.4496 88.9808 44.2451 87.7864Z" fill="#FFD8C4"/>
<path d="M34.8744 86.2984C37.5098 85.9071 40.1435 85.5042 42.7753 85.0899C42.5562 83.6779 42.5113 82.2447 42.6417 80.8219L39.3435 81.035V80.8219L38.9918 80.93L38.6404 80.8219V81.035L35.3388 80.8219C35.3388 80.8219 35.6833 84.175 34.8744 86.2984Z" fill="#FFBF9D"/>
<path d="M31.1265 53.1387C30.1996 52.5146 29.2126 51.9833 28.18 51.5528L29.6916 48.6437C29.7796 48.49 29.9519 48.1582 30.1666 47.7285C30.8697 46.2928 32.0758 43.7397 32.2761 42.8388C32.5258 41.672 31.5484 41.791 31.246 42.4267C31.0104 42.9085 29.1783 45.8111 28.3522 47.1101L28.2854 47.0894C28.9464 45.79 30.395 42.7898 30.5916 41.7978C30.845 40.6314 29.8642 40.75 29.5618 41.3857C29.3015 41.9236 27.0334 45.4966 26.4183 46.4608L26.369 46.4431C27.0721 45.0462 28.3382 42.3567 28.5348 41.4313C28.7844 40.2645 27.807 40.3832 27.505 41.0226C27.2971 41.4452 25.9259 43.6316 25.0153 45.0706C25.4705 43.9563 25.8373 42.8084 26.1122 41.6373C26.2423 40.5651 25.3704 40.7466 25.1417 41.3368C24.9838 41.742 23.8129 43.9844 23.078 45.3569L20.5499 49.8414L18.4404 51.7731L22.2516 55.87L23.6194 54.3052L26.8964 53.7184C27.9933 53.837 29.4913 54.0223 30.1347 54.1831C31.2145 54.4588 32.3148 54.0886 31.1265 53.1387Z" fill="#FFD8C4"/>
<path d="M24.0732 46.3241C24.0905 46.3421 24.1122 46.3553 24.1362 46.3625L29.08 48.011C29.0989 48.0171 29.1188 48.0195 29.1386 48.0178C29.1584 48.0162 29.1777 48.0107 29.1954 48.0016C29.213 47.9926 29.2287 47.9801 29.2414 47.9649C29.2542 47.9498 29.2638 47.9323 29.2697 47.9135C29.2762 47.8949 29.2789 47.8752 29.2777 47.8556C29.2764 47.836 29.2712 47.8168 29.2624 47.7992C29.2535 47.7817 29.2412 47.766 29.2262 47.7532C29.2111 47.7404 29.1937 47.7308 29.1748 47.7248L24.2311 46.0763C24.1927 46.0647 24.1514 46.0682 24.1156 46.0862C24.0979 46.0952 24.0822 46.1076 24.0695 46.1227C24.0567 46.1378 24.0472 46.1553 24.0413 46.1742C24.0321 46.1996 24.0301 46.2271 24.0357 46.2536C24.0412 46.2801 24.0544 46.3045 24.0732 46.3241ZM25.0047 51.4205C25.0275 51.4451 25.058 51.4612 25.0912 51.4663C25.1244 51.4713 25.1584 51.465 25.1875 51.4484C25.9416 51.097 26.8032 51.0482 27.5926 51.3121C27.6208 51.3231 27.6516 51.3255 27.6811 51.319C27.7106 51.3124 27.7375 51.2973 27.7583 51.2754C27.779 51.2536 27.7927 51.2261 27.7975 51.1964C27.8024 51.1668 27.7982 51.1364 27.7855 51.1092C27.769 51.0727 27.7389 51.0441 27.7016 51.0292C26.8299 50.7296 25.8741 50.7848 25.0434 51.1829C25.0078 51.2022 24.9812 51.2346 24.9694 51.2731C24.9575 51.3116 24.9614 51.3532 24.98 51.3889C24.9863 51.4007 24.9944 51.4112 25.0047 51.4205Z" fill="#FFBF9D"/>
<path d="M44.9308 87.6848C43.8301 87.0878 43.4257 85.3588 43.2955 83.7697C42.3253 84.1189 40.3914 84.3426 39.1466 84.3426C37.6559 84.3426 35.7675 84.0386 34.6987 83.5321C34.5932 85.184 34.2028 87.0596 33.046 87.6848C31.9912 88.2508 28.1796 84.091 24.53 84.14C20.5428 84.1923 18.9041 95.7879 19.653 102.91H20.8804L22.6383 134.627L56.3933 135.014L56.344 105.885C57.283 93.0777 47.1143 88.8689 44.9308 87.6848Z" fill="#AB92E1"/>
<path d="M45.0397 87.6848C43.9428 87.0878 43.5349 85.3588 43.4047 83.7697C42.4377 84.1189 40.5003 84.3426 39.2593 84.3426C37.7648 84.3426 35.8768 84.0386 34.8114 83.5321C34.7021 85.184 33.9638 87.1123 32.8107 87.7232C32.459 87.9258 45.3633 87.8595 45.0397 87.6848Z" fill="#7968A0"/>
<path d="M51.5023 98.8543L49.1817 100.688L47.3287 98.8472L45.1383 100.695L43.2674 98.8367L41.2808 100.698L39.2206 98.8577L37.037 100.688L35.1699 98.8367L33.1833 100.698L31.1227 98.8577L28.9533 100.702L27.0759 98.8367L24.6886 101.072L25.1598 101.568L27.0618 99.7869L28.8478 101.561L28.957 101.456L29.0272 101.537L31.1087 99.7624L33.0498 101.495L33.1165 101.421L33.2573 101.568L35.1593 99.7869L36.9456 101.561L37.0336 101.477L37.0863 101.54L39.2065 99.7624L41.1753 101.519L41.2387 101.449L41.3514 101.568L43.2534 99.7869L45.0431 101.561L45.1626 101.442L45.2225 101.512L47.29 99.7729L49.0903 101.561L49.2029 101.453L49.2485 101.509L51.4495 99.7658L53.257 101.561L53.7423 101.079L51.5023 98.8543Z" fill="#373A36"/>
<path d="M27.0653 97.5901L28.904 99.4201L28.9252 99.4412L28.9604 99.4725L29.2241 99.2107L29.2101 99.1964L31.1121 97.5795L32.9124 99.1862L32.8915 99.207L33.1481 99.4796L35.1593 97.5901L36.7696 99.1896L36.9843 99.4412L37.0052 99.4235L37.0545 99.4725L37.3216 99.2107L37.2935 99.1825L39.21 97.5795L41.0103 99.1862L40.989 99.207L41.2459 99.4796L43.2568 97.5901L45.1523 99.4725L45.416 99.2107L45.3948 99.1896L47.2972 97.583L49.1992 99.4725L49.4663 99.2107L49.4348 99.1825L51.4601 97.5795L53.3693 99.4725L53.633 99.2107L51.4916 97.0835L49.1711 98.9173L47.3181 97.0801L45.1277 98.9241L43.264 97.073L41.2846 98.9312L39.2168 97.0869L37.0264 98.9207L35.1665 97.073L33.1868 98.9312L31.1193 97.0835L28.9464 98.9347L27.0721 97.073L24.7972 99.207L25.054 99.4796L27.0653 97.5901Z" fill="#373A36"/>
<path d="M32.5364 72.3768C31.8857 70.3757 30.3491 70.8367 30.2053 70.8857C30.0611 70.9343 28.4471 71.1369 28.7423 73.2223C29.0378 75.3073 30.2402 76.4564 31.3902 76.1212C32.5714 75.9359 33.1902 74.3887 32.5364 72.3768ZM45.5003 72.3768C46.1509 70.3757 47.6872 70.8367 47.8314 70.8857C47.9756 70.9343 49.5721 71.1369 49.2978 73.2223C49.0235 75.3073 47.7965 76.4564 46.6465 76.1212C45.465 75.9359 44.8462 74.3887 45.5003 72.3768Z" fill="#FFBF9D"/>
<path d="M30.9611 69.3446C31.7662 60.5742 38.4785 61.0634 39.1116 61.1297C39.7445 61.0634 46.4568 60.5742 47.2619 69.3446C48.067 78.1147 44.115 83.9299 39.1116 83.612C34.108 83.9299 30.1522 78.1671 30.9611 69.3446Z" fill="#FFD8C4"/>
<path d="M30.6412 63.1834C30.6412 63.1834 28.8197 64.343 30.1207 68.3458L30.8977 72.8619L31.5484 72.9911C31.5484 72.9911 31.2881 66.1523 33.4963 64.6085C35.7045 63.0647 30.6412 63.1834 30.6412 63.1834Z" fill="#C91727"/>
<path d="M44.5263 63.83C44.5263 63.83 35.824 68.8595 31.1652 64.8778C26.506 60.8961 31.4251 58.8145 33.3731 59.0729C33.3731 59.0729 32.7261 56.8794 35.3213 56.6279C37.9161 56.3766 37.4028 58.9505 41.2986 58.9505C45.1945 58.9505 47.1424 59.2092 46.752 62.4433C46.752 62.4433 48.6999 61.2837 49.3506 63.4911C50.0009 65.6985 47.5328 72.9214 47.5328 72.9214L47.2725 74.081H46.6222V67.8291C46.6222 67.8291 44.1465 68.6045 44.5263 63.83Z" fill="#ED1B2E"/>
<path d="M49.3434 63.4417C48.693 61.2486 46.7451 62.3939 46.7451 62.3939C46.9701 60.5394 46.4181 59.6664 45.1664 59.2506C44.9393 61.1237 44.2733 62.918 43.2219 64.4895C44.0411 64.1091 44.5369 63.8225 44.5369 63.8225C44.1465 68.597 46.615 67.8218 46.615 67.8218V74.0211H47.2653L47.5256 72.8615C47.5256 72.8615 49.994 65.6352 49.3434 63.4417Z" fill="#C91727"/>
<path d="M40.2532 78.6829L40.407 78.6318C40.4376 78.6199 40.4637 78.5991 40.4822 78.5722C40.5006 78.5453 40.5104 78.5135 40.5103 78.4809C40.5099 78.4543 40.5031 78.4282 40.4903 78.4049C40.4775 78.3815 40.4592 78.3616 40.4369 78.3468C40.4147 78.3321 40.3891 78.3229 40.3625 78.32C40.3359 78.3172 40.309 78.3209 40.2841 78.3306C39.6732 78.4884 39.0262 78.432 38.4523 78.1711C38.4231 78.1557 38.3899 78.1496 38.3571 78.1535C38.3243 78.1573 38.2935 78.1711 38.2688 78.1928C38.2525 78.2073 38.2395 78.225 38.2307 78.2448C38.2211 78.2639 38.2154 78.2847 38.214 78.306C38.2126 78.3273 38.2155 78.3487 38.2225 78.3689C38.2296 78.3891 38.2406 78.4076 38.255 78.4235C38.2693 78.4394 38.2868 78.4523 38.3062 78.4614C38.9154 78.7374 39.5969 78.815 40.2532 78.6829Z" fill="#E9A079"/>
<path d="M45.4441 69.722C45.0291 69.5476 44.6671 69.3728 44.3154 69.2576C43.9955 69.135 43.661 69.054 43.3202 69.0165C42.9941 68.9832 42.6646 69.0189 42.3534 69.1213C42.1723 69.1693 41.9949 69.23 41.8226 69.3031C41.6325 69.3762 41.4709 69.4775 41.2318 69.5476C41.3031 69.3358 41.4011 69.134 41.5236 68.9468C41.6577 68.7599 41.8216 68.5959 42.0089 68.4614C42.4126 68.1627 42.9146 68.0255 43.4154 68.0772C43.8935 68.1259 44.3457 68.317 44.7126 68.6253C45.0595 68.9117 45.3139 69.2931 45.4441 69.722ZM37.0826 69.722C36.6679 69.5476 36.3055 69.3728 35.9538 69.2576C35.6341 69.135 35.2997 69.054 34.959 69.0165C34.6328 68.9832 34.3032 69.0189 33.9919 69.1213C33.8099 69.1699 33.6314 69.2307 33.4576 69.3031C33.271 69.3762 33.1059 69.4775 32.8703 69.5476C32.9402 69.3353 33.0384 69.1333 33.1621 68.9468C33.2953 68.7591 33.4593 68.595 33.6474 68.4614C34.051 68.1627 34.5531 68.0255 35.0538 68.0772C35.5321 68.1259 35.9844 68.3169 36.3514 68.6253C36.6981 68.9118 36.9524 69.2932 37.0826 69.722Z" fill="#373A36"/>
<path fill-rule="evenodd" clip-rule="evenodd" d="M30.1762 70.7784L30.3816 70.517L32.596 72.2302L38.1346 72.4006L38.1505 72.3808C38.1951 72.3259 38.2603 72.2507 38.3424 72.1667C38.505 72.001 38.7406 71.7956 39.0227 71.6568C39.3067 71.517 39.6487 71.4396 40.0104 71.5514C40.3521 71.6574 40.6832 71.9235 40.9875 72.4031H46.6789L48.3891 70.8131L48.6172 71.0551L46.811 72.7343H40.7993L40.7506 72.6534C40.4585 72.1658 40.1674 71.9471 39.9112 71.8677C39.6559 71.7887 39.4047 71.8386 39.1709 71.9536C38.936 72.0691 38.7306 72.2457 38.5814 72.3978C38.5212 72.4591 38.4638 72.5231 38.4095 72.5896C38.3895 72.6138 38.3745 72.6333 38.3646 72.6463C38.3608 72.6511 38.3572 72.6559 38.3536 72.6609L38.3511 72.6643L38.3508 72.6646L38.299 72.7371L32.4768 72.558L30.1762 70.7784Z" fill="#373A36"/>
<path d="M35.2895 75.4569C36.905 75.4569 38.2148 74.156 38.2148 72.5509C38.2148 70.946 36.905 69.6451 35.2895 69.6451C33.6739 69.6451 32.3641 70.946 32.3641 72.5509C32.3641 74.156 33.6739 75.4569 35.2895 75.4569ZM43.8195 75.4569C45.4354 75.4569 46.7451 74.156 46.7451 72.5509C46.7451 70.946 45.4354 69.6451 43.8195 69.6451C42.2039 69.6451 40.8942 70.946 40.8942 72.5509C40.8942 74.156 42.2039 75.4569 43.8195 75.4569Z" fill="white"/>
<path fill-rule="evenodd" clip-rule="evenodd" d="M43.8195 69.8106C42.2963 69.8106 41.0611 71.0374 41.0611 72.5508C41.0611 74.0643 42.2963 75.2911 43.8195 75.2911C45.343 75.2911 46.5782 74.0643 46.5782 72.5508C46.5782 71.0374 45.343 69.8106 43.8195 69.8106ZM40.7272 72.5508C40.7272 70.8546 42.1119 69.4794 43.8195 69.4794C45.5274 69.4794 46.9118 70.8546 46.9118 72.5508C46.9118 74.247 45.5274 75.6223 43.8195 75.6223C42.1119 75.6223 40.7272 74.247 40.7272 72.5508Z" fill="#373A36"/>
<path d="M36.8155 72.9C36.7057 72.5451 36.5265 72.2152 36.2881 71.9291C36.1793 71.8052 36.0446 71.7063 35.8933 71.6393C35.7421 71.5724 35.578 71.539 35.4124 71.5415C35.2506 71.5261 35.0874 71.5498 34.9368 71.6106C34.7862 71.6714 34.6527 71.7675 34.5477 71.8907C34.3315 72.1898 34.1947 72.5383 34.1501 72.9038C34.0911 72.7062 34.0719 72.4989 34.0936 72.2939C34.1153 72.0889 34.1776 71.8902 34.2768 71.7091C34.3916 71.5116 34.5629 71.3523 34.7689 71.2515C34.9757 71.1652 35.1987 71.1235 35.423 71.1295C35.6468 71.1292 35.8671 71.1847 36.0637 71.2908C36.2603 71.397 36.4269 71.5504 36.5483 71.737C36.7692 72.0828 36.8635 72.4934 36.8155 72.9ZM44.3294 72.7811C44.2202 72.4259 44.041 72.0958 43.802 71.8101C43.6932 71.6862 43.5585 71.5873 43.4073 71.5204C43.256 71.4534 43.0919 71.4201 42.9263 71.4226C42.7645 71.4063 42.601 71.4296 42.4503 71.4905C42.2995 71.5513 42.1661 71.6479 42.0616 71.7717C41.8454 72.0709 41.7087 72.4193 41.664 72.7848C41.5448 72.3846 41.5904 71.9537 41.7907 71.5868C41.9055 71.39 42.0769 71.2318 42.2829 71.1326C42.4895 71.0451 42.7124 71.0023 42.937 71.0068C43.1607 71.007 43.3808 71.0628 43.5773 71.1689C43.7739 71.2751 43.9406 71.4283 44.0623 71.6146C44.2835 71.9615 44.3778 72.3734 44.3294 72.7811Z" fill="#373A36"/>
<path d="M26.4252 84.4506C28.1834 99.3435 21.0455 105.885 21.0455 105.885C21.0455 105.885 3.20464 80.3013 1.8896 73.4942L9.3405 67.4098C9.3405 67.4098 26.281 83.2247 26.4252 84.4506Z" fill="#7968A0"/>
<path d="M11.2391 71.3287L23.215 55.8735L19.052 49.4923C19.052 49.4923 2.71595 62.597 1.59813 65.3038C-0.227152 69.722 2.01629 74.0355 2.01629 74.0355C2.01629 74.0355 9.2138 73.9447 11.2391 71.3287Z" fill="#7968A0"/>
<path d="M22.6314 134.627V137.917H56.734L56.3683 135.014L22.6308 134.627H22.6314Z" fill="#B58C4E"/>
<path d="M22.6314 137.917C22.6314 137.917 22.3396 145.171 22.6314 156.051C22.9232 166.931 24.0906 179.99 24.0906 179.99H39.6812L41.6185 152.136L43.0777 151.263L46.5938 179.99H62.2196C62.2196 179.99 59.7583 152.422 56.745 137.917H22.6314Z" fill="#FFC56E"/>
<path fill-rule="evenodd" clip-rule="evenodd" d="M35.2895 69.8106C33.7659 69.8106 32.5308 71.0374 32.5308 72.5508C32.5308 74.0643 33.7659 75.2911 35.2895 75.2911C36.813 75.2911 38.0481 74.0643 38.0481 72.5508C38.0481 71.0374 36.813 69.8106 35.2895 69.8106ZM32.1972 72.5508C32.1972 70.8546 33.5815 69.4794 35.2895 69.4794C36.9974 69.4794 38.3817 70.8546 38.3817 72.5508C38.3817 74.247 36.9974 75.6223 35.2895 75.6223C33.5815 75.6223 32.1972 74.247 32.1972 72.5508Z" fill="#373A36"/>
<path d="M55.9882 135.126C55.9882 135.126 55.5276 142.227 55.7105 152.677C55.8933 163.127 57.0289 179.989 57.0289 179.989H70.1055L71.2024 150.934L72.4928 149.02L77.0146 180H90.5798L86.4169 134.071L55.9882 135.126Z" fill="#373A36"/>
<path d="M54.2687 133.631L54.6663 138.102L66.7299 139.524V136.184L54.2687 133.631Z" fill="#B58C4E"/>
<path d="M75.7242 88.1941C73.7623 87.1463 74.2968 81.9945 74.2968 81.9945L71.3572 82.1832V81.9945L71.0442 82.089L70.7315 81.9945V82.1832L67.7918 81.9945C67.7918 81.9945 68.3264 87.1324 66.3644 88.1941C64.4021 89.2558 52.8095 89.7903 54.0578 101.659H88.0306C89.2788 89.7903 77.6862 89.2593 75.7242 88.1941Z" fill="#CC9485"/>
<path d="M67.3805 86.8703C69.7259 86.5208 72.07 86.1623 74.4126 85.7946C74.2166 84.5375 74.1764 83.2613 74.2931 81.9945L71.3537 82.1832V81.9945L71.0407 82.089L70.7277 81.9945V82.1832L67.7884 81.9945C67.7884 81.9945 68.1014 84.9808 67.3805 86.8703Z" fill="#C47F6B"/>
<path d="M78.1927 88.6864C77.1376 91.414 74.3249 93.3664 71.0442 93.3664C67.7637 93.3664 64.9508 91.414 63.896 88.6864C59.856 89.7865 52.7499 92.1442 53.7519 101.658L55.3553 134.713H88.122L88.3367 101.658C89.3353 92.1442 82.2327 89.7865 78.1927 88.6864Z" fill="#FFC56E"/>
<path d="M66.7302 136.184L63.147 88.8967C59.0402 90.0914 52.8095 92.7074 53.7519 101.659L52.0431 130.547C51.9777 131.669 52.352 132.772 53.0876 133.626C53.8228 134.479 54.8624 135.017 55.9882 135.126L66.7302 136.184Z" fill="#ED1B2E"/>
<path d="M63.2594 88.8968L64.1385 101.97C64.1385 101.97 58.5128 93.6295 58.7519 90.8737C58.9909 88.118 62.7987 87.9538 63.2594 88.8968ZM90.5798 131.955L90.5624 136.443L78.6602 138.87L78.3756 135.542L90.5798 131.955Z" fill="#B58C4E"/>
<path d="M78.3756 135.541L77.9393 88.1213C82.1307 88.9699 88.5617 91.0549 88.3823 100.052L92.5349 128.692C92.6954 129.803 92.4172 130.932 91.7585 131.843C91.1 132.755 90.1119 133.378 89.0011 133.582L78.3756 135.541Z" fill="#ED1B2E"/>
<path d="M77.8269 88.1316L78.0588 101.233C78.0588 101.233 82.9498 92.4519 82.4858 89.7243C82.0217 86.9964 78.2067 87.1535 77.8269 88.1316Z" fill="#B58C4E"/>
<path d="M65.299 74.4719C64.7223 72.6905 63.3511 73.1029 63.2244 73.1481C63.0977 73.1937 61.6737 73.3718 61.92 75.2263C62.1659 77.0809 63.2559 78.1045 64.2792 77.8074C65.3305 77.6432 65.8826 76.2636 65.299 74.4719ZM76.8424 74.4719C77.4191 72.6905 78.7869 73.1029 78.917 73.1481C79.0468 73.1937 80.4639 73.3718 80.2214 75.2263C79.9786 77.0809 78.8852 78.1045 77.8619 77.8074C76.8109 77.6432 76.2588 76.2636 76.8424 74.4719Z" fill="#C47F6B"/>
<path d="M63.896 71.7754C64.5991 63.9657 70.5767 64.4023 71.1534 64.4617C71.7157 64.4023 77.6934 63.9657 78.4105 71.7754C79.1279 79.5851 75.5975 84.7612 71.1534 84.4783C66.6983 84.7612 63.1751 79.6304 63.896 71.7754Z" fill="#CC9485"/>
<path d="M72.1835 72.697C72.4239 73.3987 72.5969 74.1214 72.7003 74.8555C72.7531 75.2049 72.8058 75.582 72.8339 75.9488C72.8623 76.3156 72.8938 76.6824 72.9044 77.0489V77.2063L72.8024 77.2655C72.5599 77.4052 72.3171 77.5344 72.0674 77.6602C71.8178 77.786 71.5681 77.9046 71.301 78.0097C71.4907 77.7999 71.6983 77.6112 71.9024 77.4229C72.1061 77.2342 72.3205 77.0734 72.5352 76.8885L72.4366 77.105C72.365 76.7439 72.3064 76.3804 72.2609 76.0151C72.2151 75.652 72.1835 75.2852 72.152 74.9184C72.0937 74.1785 72.1042 73.4349 72.1835 72.697Z" fill="#C47F6B"/>
<path d="M74.2017 79.403C72.7777 80.7754 70.3692 80.6986 68.5408 79.4764L74.2017 79.403Z" fill="white"/>
<path d="M76.7896 72.1106C76.4064 71.9709 76.0865 71.838 75.7664 71.7333C75.4846 71.6331 75.192 71.5664 74.8944 71.5344C74.6131 71.5055 74.3287 71.5316 74.0575 71.6112C73.8968 71.6509 73.7382 71.6998 73.5828 71.7577C73.4106 71.8138 73.2524 71.9009 73.0414 71.957C73.0958 71.7614 73.1775 71.5744 73.2842 71.4015C73.401 71.2276 73.5472 71.0752 73.7164 70.951C74.0752 70.6783 74.526 70.5533 74.9753 70.6018C75.4093 70.6447 75.8189 70.8217 76.1461 71.1081C76.4623 71.366 76.6877 71.7171 76.7896 72.1106ZM69.3493 72.1103C68.9661 71.9709 68.6463 71.838 68.3226 71.7333C68.0421 71.6332 67.7505 71.5663 67.4542 71.5341C67.1729 71.5054 66.8887 71.5315 66.6175 71.6109C66.4555 71.6512 66.2958 71.7001 66.1391 71.7577C65.9706 71.8135 65.8086 71.9009 65.6014 71.9566C65.6542 71.7607 65.7359 71.5736 65.8439 71.4015C65.9575 71.2273 66.1015 71.0748 66.2692 70.951C66.6309 70.6784 67.0838 70.5534 67.5353 70.6015C67.9693 70.6447 68.3788 70.8218 68.7062 71.1081C69.0199 71.368 69.2447 71.7182 69.3493 72.1103ZM69.1103 74.9398C69.004 74.6301 68.8393 74.3433 68.625 74.0946C68.5306 73.9846 68.413 73.8963 68.2807 73.836C68.1483 73.7757 68.0042 73.7448 67.8586 73.7455C67.7181 73.7303 67.576 73.749 67.4444 73.8001C67.3128 73.8512 67.1956 73.9331 67.1028 74.0389C66.9118 74.3032 66.7854 74.608 66.7336 74.9293C66.6778 74.753 66.6577 74.5674 66.6746 74.3834C66.6914 74.1993 66.7449 74.0204 66.8319 73.857C66.9349 73.6768 67.0906 73.5319 67.2785 73.4416C67.4647 73.3613 67.6662 73.322 67.8692 73.3263C68.0719 73.3265 68.2714 73.3775 68.449 73.4745C68.6266 73.5716 68.7767 73.7115 68.8853 73.8815C69.0859 74.196 69.1658 74.5717 69.1103 74.9398ZM75.7982 74.8351C75.6984 74.5223 75.5383 74.2317 75.327 73.9794C75.2326 73.8693 75.115 73.781 74.9826 73.7207C74.8503 73.6604 74.7062 73.6295 74.5605 73.6302C74.42 73.6149 74.2778 73.6336 74.1462 73.6847C74.0145 73.7358 73.8972 73.8178 73.8044 73.9236C73.617 74.1895 73.4964 74.4961 73.4527 74.8177C73.3966 74.6408 73.3764 74.4546 73.3934 74.2699C73.4103 74.0852 73.464 73.9057 73.5513 73.7418C73.6543 73.5615 73.81 73.4167 73.9979 73.3263C74.1843 73.247 74.3859 73.2088 74.5886 73.2145C74.7906 73.2141 74.9894 73.2645 75.1665 73.361C75.3436 73.4574 75.4931 73.5969 75.6013 73.7662C75.7935 74.0877 75.8634 74.4669 75.7982 74.8351Z" fill="#373A36"/>
<path d="M78.7201 65.7539C78.3191 64.1509 77.3557 63.7457 76.8951 63.6583C76.628 59.5301 65.5275 58.7686 65.3833 59.5648C65.2285 60.4066 69.3144 61.7862 69.3144 61.7862C69.3144 61.7862 61.9902 59.8687 62.3768 61.5557C62.6898 62.925 65.647 62.7748 66.7476 62.6735C65.2004 62.8655 59.9156 63.7212 62.2998 66.0718C62.4904 66.2616 62.7014 66.4302 62.9289 66.5746C62.7076 69.5085 63.583 76.4136 63.583 76.4136H64.1984L63.9696 71.6496C65.1652 71.412 65.7278 68.6004 65.8966 67.3466C67.5414 67.3148 69.168 66.9981 70.7031 66.4107C70.2497 66.6201 69.536 67.109 70.3164 67.8076C71.0969 68.5063 73.9801 67.6468 75.4184 67.1301C75.6784 68.2618 76.5328 71.398 77.7882 71.6496L77.5595 76.3996H78.1749C78.1749 76.3996 79.2615 67.8984 78.7201 65.7539Z" fill="#FFC56E"/>
<path d="M78.7201 65.7536C78.3191 64.1506 77.3557 63.7454 76.8951 63.658C76.8545 63.278 76.7359 62.9102 76.5466 62.5775C76.3573 62.2447 76.1013 61.954 75.7945 61.7233C75.4431 64.5171 73.3897 66.8993 70.7702 68.0518C71.8986 68.3244 74.1842 67.6013 75.4184 67.1577C75.6787 68.2615 76.5331 71.3977 77.7882 71.6493L77.5598 76.3993H78.1749C78.1749 76.3993 79.2615 67.8981 78.7201 65.7536Z" fill="#FFC56E"/>
<path d="M85.0457 78.0763C86.0548 77.541 87.1148 77.1057 88.21 76.777L86.9902 73.6687C86.9162 73.5011 86.7789 73.1482 86.6066 72.6906C86.0371 71.1573 85.0984 68.4434 84.9964 67.5109C84.8697 66.2989 85.8474 66.5365 86.0864 67.2035C86.2727 67.7172 87.8234 70.8534 88.523 72.2612H88.5898C88.059 70.864 86.9268 67.6751 86.8316 66.6484C86.7018 65.4364 87.6792 65.674 87.9217 66.3373C88.1292 66.9139 90.0315 70.7803 90.5658 71.821H90.6185C90.0525 70.3156 89.061 67.4656 88.959 66.5052C88.8288 65.2967 89.8066 65.5306 90.049 66.1979C90.2072 66.6378 91.3641 68.9918 92.1339 70.5532C91.791 69.3751 91.5407 68.1723 91.3853 66.9557C91.3569 65.8416 92.236 66.1279 92.4048 66.7531C92.5209 67.1828 93.4596 69.5823 94.0538 71.0492L96.1637 75.8655L98.0938 78.0519L93.7058 81.1952L92.4856 79.4491L89.3213 79.1275C88.196 79.1275 86.6559 79.1625 85.9844 79.2604C84.8207 79.393 83.7375 78.9042 85.0457 78.0763Z" fill="#CC9485"/>
<path d="M87.6333 73.0951C87.5946 73.0952 87.5571 73.082 87.527 73.0578C87.4969 73.0336 87.4762 72.9998 87.4682 72.9622C87.4629 72.9407 87.4622 72.9183 87.466 72.8964C87.4698 72.8746 87.4781 72.8537 87.4904 72.8352C87.5025 72.8166 87.5183 72.8006 87.5369 72.7882C87.5555 72.7759 87.5764 72.7674 87.5983 72.7633L92.788 71.6143C92.8322 71.6054 92.8782 71.6139 92.9162 71.638C92.9542 71.6621 92.9813 71.6999 92.9918 71.7434C93.0012 71.7874 92.9929 71.8332 92.9686 71.8711C92.9443 71.909 92.906 71.9359 92.862 71.9461L87.672 73.0917L87.6333 73.0951ZM91.3394 77.0208C91.3056 77.022 91.2723 77.0122 91.2445 76.9929C90.5225 76.5554 89.6569 76.4151 88.8323 76.6019C88.788 76.6123 88.7414 76.6053 88.7022 76.5826C88.6629 76.5598 88.6339 76.5229 88.6213 76.4795C88.6106 76.436 88.6175 76.39 88.6405 76.3515C88.6636 76.313 88.7009 76.285 88.7446 76.2735C89.2005 76.1665 89.6732 76.1503 90.1355 76.2258C90.5978 76.3014 91.0403 76.4671 91.4377 76.7134C91.4744 76.7391 91.4996 76.778 91.5079 76.8219C91.5119 76.8436 91.5115 76.8659 91.5067 76.8875C91.5019 76.9091 91.4929 76.9295 91.4802 76.9476C91.465 76.9708 91.4441 76.9897 91.4194 77.0025C91.3948 77.0154 91.3672 77.0216 91.3394 77.0208Z" fill="#C47F6B"/>
<path d="M110.101 93.2521C105.998 85.5471 98.8112 76.9969 98.8112 76.9969L91.8528 81.7262L95.826 94.527L84.2227 90.2482C84.2227 90.2482 80.8403 102.319 85.7734 106.458C90.7066 110.597 100.865 108.463 100.865 108.463C100.865 108.463 105.959 108.417 109.363 106C112.767 103.583 114.208 100.953 110.101 93.2521Z" fill="#ED1B2E"/>
<path d="M95.5623 103.063C95.499 102.93 94.0925 99.8003 95.9384 97.3834L96.2339 97.6071C94.5284 99.8458 95.8822 102.877 95.9 102.905L95.5623 103.063Z" fill="#A81321"/>
<path d="M92.5805 81.2228L91.5117 79.4029L96.5644 75.4668L98.2907 77.3458L92.5805 81.2228Z" fill="#B58C4E"/>
<path d="M51.1818 125.814L57.567 106.675V91.8654C57.567 91.8654 51.702 91.9527 48.6852 97.3317C45.6685 102.71 39.3391 124.473 39.3391 124.473C39.6312 134.626 50.728 143.428 50.728 143.428L57.2012 139.125C57.5634 138.885 57.8194 138.516 57.9168 138.095C58.0143 137.674 57.9457 137.231 57.7252 136.858L51.1818 125.814Z" fill="#ED1B2E"/>
<path d="M54.0824 116.569C54.0543 115.871 53.4389 99.909 54.0824 98.2676L54.4341 98.407C53.9348 99.6611 54.2266 110.827 54.4341 116.569H54.0824ZM49.7294 124.839C49.6945 124.839 46.1185 123.614 43.6781 124.357L43.5658 124.008C46.1291 123.226 49.7013 124.441 49.8527 124.494L49.7294 124.839Z" fill="#A81321"/>
<path d="M57.2786 139.114L58.0063 140.162L60.0176 141.646L55.6577 148.44C54.1006 147.293 52.9951 145.642 52.5318 143.773L51.8533 142.747L57.2786 139.114Z" fill="#CC9485"/>
<path d="M57.7077 138.461L58.5409 140.092L52.9328 145.03L50.728 143.427L57.7077 138.461Z" fill="#B58C4E"/>
<path d="M165.094 83.1832L179.137 75.1254L184.675 81.3389C184.675 81.3389 172.689 90.0496 171.078 90.7342C169.468 91.4189 167.952 92.0859 167.952 92.0859L165.094 83.1832Z" fill="#FFBF9D"/>
<path d="M178.072 80.7069L168.005 63.0688L172.052 59.5763C172.052 59.5763 183.937 73.1977 185.305 75.5728C187.949 80.1725 181.788 86.2011 178.072 80.7069Z" fill="#FFBF9D"/>
<path d="M160.917 60.3545C161.957 59.9476 163.036 59.6447 164.137 59.4501L163.314 56.2891C163.224 55.9575 163.138 55.6246 163.058 55.2903C162.678 53.7326 162.081 50.9802 162.091 50.0511C162.091 48.8602 163.03 49.2025 163.188 49.8767C163.308 50.3968 164.454 53.6313 164.971 55.0806H165.041C164.689 53.6836 163.951 50.425 163.965 49.4119C163.965 48.221 164.904 48.5634 165.062 49.2372C165.192 49.8206 166.599 53.8023 166.996 54.8919H167.049C166.673 53.3623 166.036 50.4737 166.05 49.5272C166.05 48.3363 166.989 48.6786 167.144 49.3528C167.249 49.7998 168.103 52.2306 168.67 53.8302C168.472 52.6374 168.367 51.4312 168.357 50.2224C168.459 49.1362 169.278 49.5238 169.373 50.1419C169.436 50.5716 170.076 53.0166 170.48 54.5148L171.968 59.4325L173.592 61.7796L168.969 64.9229L167.98 63.0997L164.918 61.8075C163.834 61.6677 162.744 61.5826 161.651 61.5525C160.541 61.612 159.567 61.0113 160.917 60.3545Z" fill="#FFBF9D"/>
<path d="M169.31 55.2418C169.29 55.2554 169.267 55.2638 169.243 55.2662L164.057 55.7901C164.016 55.7941 163.975 55.782 163.944 55.7565C163.912 55.731 163.892 55.6941 163.888 55.6538C163.886 55.6341 163.888 55.6141 163.893 55.5951C163.899 55.576 163.909 55.5584 163.922 55.5431C163.934 55.5278 163.95 55.5152 163.968 55.506C163.986 55.4968 164.005 55.4913 164.025 55.4896L169.211 54.9657C169.245 54.9618 169.28 54.9694 169.309 54.9875C169.338 55.0055 169.36 55.0328 169.371 55.0649C169.383 55.0969 169.383 55.1319 169.372 55.1641C169.361 55.1963 169.339 55.2237 169.31 55.2418ZM167.27 60.0088C167.244 60.0299 167.212 60.0415 167.179 60.0415C167.145 60.0415 167.113 60.0299 167.087 60.0088C166.429 59.5014 165.599 59.2649 164.77 59.3486C164.75 59.3518 164.73 59.3509 164.711 59.346C164.691 59.3411 164.673 59.3323 164.657 59.3201C164.641 59.3081 164.627 59.2929 164.617 59.2755C164.605 59.2541 164.598 59.2301 164.598 59.2056C164.597 59.181 164.602 59.1567 164.613 59.1346C164.624 59.1126 164.64 59.0935 164.66 59.0791C164.68 59.0647 164.704 59.0553 164.728 59.0518C165.184 58.9974 165.647 59.034 166.089 59.1593C166.531 59.2847 166.943 59.4963 167.302 59.7817C167.33 59.8102 167.346 59.8484 167.347 59.8883C167.346 59.9283 167.33 59.9665 167.302 59.9949L167.27 60.0088Z" fill="#9A7566"/>
<path d="M137.524 125.692C137.524 125.692 135.59 132.269 135.228 142.038C134.866 151.807 136.244 180 136.244 180H151.247L153.238 140.355L155.052 139.234C155.052 139.234 156.314 149.68 158.157 158.192C159.999 166.704 162.211 180 162.211 180H176.359C176.359 180 173.047 147.137 171.296 137.48C169.545 127.823 167.963 124.145 167.963 124.145L137.524 125.692Z" fill="#373A36"/>
<path d="M136.103 92.5187L135.228 101.443L138.631 121.742L165.182 121.63L167.095 97.1256L166.215 89.0643L136.103 92.5187Z" fill="#ED1B2E"/>
<path d="M140.737 60.959C140.737 60.959 137.221 64.717 137.654 70.2459C138.086 75.7748 141.363 77.818 138.818 80.483C136.272 83.148 130.33 86.3821 134.795 92.3583L150.175 90.7132L147.01 61.4445L140.737 60.959ZM152.886 59.6597C152.886 59.6597 157.105 62.5762 157.875 68.0806C158.645 73.585 155.874 76.264 158.93 78.3351C161.986 80.4065 168.487 82.3028 165.403 89.0858L150.024 90.7306L146.859 61.4621L152.886 59.6597Z" fill="#373A36"/>
<path d="M167.952 91.5936L132.693 95.3655C132.693 95.3655 132.035 89.8088 134.074 88.7294C134.496 88.5094 135.189 88.0868 136.03 87.563L136.381 87.3396L136.919 88.4849C138.677 87.3814 140.903 85.9073 142.591 84.7864C144.029 83.8294 145.073 83.1274 145.073 83.1274L145.347 83.1587C147.914 83.4477 150.513 83.1491 152.946 82.2856L155.294 83.176C156.114 83.4871 157.053 84.458 158.107 84.2238C159.32 83.9586 161.912 83.2913 163.03 83.6023C165.235 84.2309 167.952 91.5936 167.952 91.5936Z" fill="#ED1B2E"/>
<path d="M140.696 94.5093L139.757 94.6106C138.593 92.7015 137.527 90.7349 136.564 88.7186L136.915 88.4915C137.461 89.522 139.215 92.7771 140.696 94.5093ZM159.31 92.5185L160.252 92.4172C160.808 90.7442 161.824 87.6148 162.2 85.7392L161.848 85.61C161.535 86.7312 160.386 90.5174 159.31 92.5185Z" fill="#C91727"/>
<path d="M148.473 93.6784L140.773 94.5028C139.268 92.7251 137.763 90.0741 136.922 88.4919C136.497 87.6919 136.244 87.1646 136.244 87.1646C138.058 85.3903 142.594 84.793 142.594 84.793C144.447 86.7737 147.031 91.1324 148.473 93.6784ZM151.606 93.3438L159.306 92.5194C160.396 90.4657 161.296 87.5562 161.768 85.8343C162.014 84.9613 162.151 84.3918 162.151 84.3918C159.995 83.0438 155.287 83.1836 155.287 83.1836C153.913 85.513 152.471 90.5496 151.606 93.3438Z" fill="#ED1B2E"/>
<path d="M155.298 83.1829C155.289 84.4675 155.204 85.7504 155.041 87.0249C154.886 88.39 154.554 89.7295 154.053 91.0103C153.767 91.6708 153.308 92.2433 152.724 92.6683C152.139 93.0933 151.451 93.3553 150.73 93.4271C149.768 93.5346 148.799 93.2967 147.999 92.7564C146.342 91.6355 145.02 89.7249 144.085 88.0169C143.514 86.9738 143.016 85.8932 142.594 84.7828C144.032 83.8258 145.076 83.1237 145.076 83.1237L145.351 83.155C147.917 83.4444 150.517 83.1457 152.949 82.282L155.298 83.1829Z" fill="#FFBF9D"/>
<path d="M155.041 87.0251C154.886 88.3902 154.554 89.7297 154.053 91.0105C153.767 91.6708 153.307 92.2431 152.723 92.668C152.139 93.0929 151.451 93.3551 150.73 93.4274C149.768 93.5349 148.799 93.2969 147.998 92.7566C146.342 91.6357 145.02 89.7251 144.085 88.0172C145.946 88.5023 147.885 88.621 149.792 88.3666C151.602 88.1981 153.374 87.7453 155.041 87.0251Z" fill="white"/>
<path d="M153.238 83.183C153.238 83.183 152.78 85.4149 149.602 85.7538C145.896 86.1519 144.809 84.2797 144.809 84.2797C145.02 83.4904 145.166 82.6858 145.249 81.8734C145.357 80.8933 145.35 79.9041 145.228 78.9256L151.704 77.9441C151.824 78.4853 151.993 79.1211 152.172 79.7568C152.654 81.4577 153.238 83.183 153.238 83.183Z" fill="#FFBF9D"/>
<path d="M149.742 86.7312C148.992 86.8147 148.232 86.7327 147.518 86.4912C146.803 86.2497 146.15 85.8545 145.607 85.3339C145.075 84.847 144.632 84.2728 144.296 83.6365C144.283 83.6172 144.276 83.5949 144.275 83.5719C144.274 83.5489 144.279 83.5261 144.289 83.5056C144.3 83.4852 144.316 83.468 144.336 83.4558C144.355 83.4435 144.378 83.4367 144.401 83.436C144.429 83.4348 144.457 83.4429 144.48 83.459C144.503 83.4751 144.52 83.4983 144.528 83.5249C144.852 84.1347 145.279 84.6851 145.79 85.1524C146.303 85.6502 146.922 86.0278 147.601 86.2574C148.28 86.4871 149.002 86.563 149.714 86.4796C150.4 86.427 151.063 86.2086 151.645 85.8433C152.226 85.4781 152.709 84.9771 153.051 84.384C153.388 83.8221 153.615 83.2025 153.722 82.5574C153.725 82.5364 153.733 82.5164 153.745 82.4991C153.758 82.4818 153.774 82.4678 153.793 82.4582C153.812 82.4487 153.833 82.4439 153.854 82.4444C153.876 82.4448 153.896 82.4504 153.915 82.4607C153.938 82.473 153.956 82.4918 153.967 82.5147C153.979 82.5376 153.983 82.5634 153.979 82.5887C153.869 83.2662 153.63 83.9169 153.276 84.5064C152.911 85.1327 152.4 85.6621 151.784 86.0495C151.169 86.4369 150.468 86.6708 149.742 86.7312Z" fill="white"/>
<path d="M152.183 79.7673C151.251 80.5741 149.159 81.8629 145.252 81.8629C145.36 80.8828 145.353 79.8935 145.231 78.915L151.704 77.9441C151.844 78.5567 152.004 79.1647 152.183 79.7673Z" fill="#373A36"/>
<path d="M141.821 70.7391C141.821 70.7391 139.524 68.2315 138.118 70.0091C136.711 71.7868 140.358 77.0818 142.967 75.5659L141.821 70.7391Z" fill="#FFBF9D"/>
<path d="M141.335 74.0497C141.302 74.0534 141.268 74.0449 141.24 74.0256C141.212 74.0063 141.192 73.9776 141.184 73.945C140.84 72.7669 140.087 71.7483 139.057 71.0705C139.041 71.0612 139.027 71.0488 139.016 71.0341C139.005 71.0194 138.996 71.0026 138.992 70.9847C138.987 70.9668 138.986 70.9483 138.989 70.93C138.992 70.9118 138.998 70.8942 139.008 70.8784C139.017 70.8625 139.029 70.8487 139.044 70.8376C139.059 70.8265 139.076 70.8184 139.094 70.8139C139.112 70.8093 139.131 70.8084 139.149 70.8111C139.168 70.8137 139.185 70.82 139.201 70.8295C140.298 71.5414 141.099 72.6232 141.455 73.8752C141.464 73.9113 141.458 73.9494 141.439 73.9813C141.42 74.0133 141.389 74.0366 141.353 74.0463L141.335 74.0497Z" fill="#9A7566"/>
<path d="M140.766 72.733C140.743 72.7367 140.719 72.734 140.697 72.7253C140.676 72.7168 140.657 72.7026 140.643 72.6841C140.407 72.4117 139.799 72.443 139.588 72.4817C139.56 72.4863 139.532 72.4827 139.507 72.4713C139.482 72.4599 139.46 72.4413 139.446 72.4178C139.431 72.3943 139.424 72.3671 139.425 72.3395C139.426 72.3119 139.435 72.2853 139.452 72.263C139.473 72.233 139.506 72.2125 139.542 72.2057C139.581 72.2057 140.474 72.0554 140.861 72.5059C140.884 72.5343 140.895 72.5708 140.892 72.6074C140.889 72.6441 140.871 72.6779 140.843 72.7017C140.821 72.7191 140.794 72.7299 140.766 72.733Z" fill="#9A7566"/>
<path d="M141.736 75.824L141.613 75.8066C141.529 75.854 141.435 75.8803 141.339 75.8833C141.243 75.8863 141.147 75.866 141.061 75.824C140.558 75.5479 140.878 74.7238 140.885 74.7133C140.896 74.686 140.899 74.6562 140.892 74.6275C140.886 74.5988 140.872 74.5726 140.85 74.5522C140.836 74.5386 140.819 74.5281 140.801 74.5212C140.783 74.5138 140.764 74.51 140.744 74.51C140.725 74.5101 140.705 74.514 140.687 74.5215C140.669 74.5289 140.653 74.5398 140.639 74.5536C140.626 74.5673 140.615 74.5835 140.608 74.6014C140.59 74.647 140.186 75.6808 140.917 76.0823C141.067 76.1634 141.24 76.1952 141.409 76.1731C141.582 76.1569 141.747 76.0915 141.884 75.9847C141.937 75.9411 141.985 75.8918 142.028 75.8379L141.736 75.824Z" fill="white"/>
<path d="M154.099 69.4255C154.099 69.4255 155.818 66.4881 157.559 67.9306C159.299 69.3731 156.887 75.314 154.011 74.3852L154.099 69.4255Z" fill="#FFBF9D"/>
<path d="M155.256 72.5586C155.219 72.5569 155.184 72.5411 155.158 72.5144C155.133 72.4877 155.118 72.4522 155.119 72.4154C155.196 71.1154 155.747 69.8877 156.669 68.9614C156.697 68.9389 156.732 68.9276 156.767 68.9298C156.803 68.932 156.836 68.9475 156.861 68.9732C156.885 68.9988 156.899 69.0327 156.899 69.0681C156.9 69.1035 156.887 69.1376 156.862 69.1637C156.001 70.0435 155.483 71.1985 155.4 72.4226C155.399 72.4409 155.395 72.459 155.388 72.4758C155.381 72.4927 155.37 72.5078 155.356 72.5205C155.343 72.5331 155.327 72.543 155.31 72.5495C155.293 72.5561 155.274 72.5592 155.256 72.5586Z" fill="#9A7566"/>
<path d="M155.53 71.1546C155.505 71.1626 155.478 71.1626 155.453 71.1546C155.436 71.1462 155.422 71.1346 155.41 71.1205C155.398 71.1064 155.389 71.0901 155.383 71.0725C155.372 71.0371 155.375 70.9988 155.393 70.9659C155.67 70.442 156.578 70.3965 156.616 70.3931C156.635 70.3929 156.653 70.3965 156.67 70.4035C156.687 70.4104 156.703 70.4207 156.716 70.4337C156.729 70.4467 156.74 70.4622 156.747 70.4792C156.754 70.4962 156.757 70.5144 156.757 70.5328C156.757 70.5699 156.742 70.6054 156.716 70.6316C156.689 70.6578 156.654 70.6725 156.616 70.6725C156.398 70.6725 155.797 70.7772 155.625 71.0951C155.614 71.1113 155.6 71.125 155.584 71.1353C155.568 71.1456 155.549 71.1522 155.53 71.1546Z" fill="#9A7566"/>
<path d="M155.27 74.3747C155.309 74.3638 155.348 74.3499 155.386 74.3328C155.478 74.3619 155.575 74.3683 155.67 74.3512C155.765 74.3341 155.855 74.2942 155.931 74.2349C156.36 73.8576 155.871 73.1208 155.864 73.1103C155.848 73.0776 155.845 73.0405 155.855 73.0058C155.865 72.971 155.887 72.9408 155.917 72.9207C155.947 72.9008 155.984 72.8923 156.02 72.897C156.056 72.9017 156.089 72.9191 156.114 72.9461C156.138 72.9845 156.754 73.9103 156.114 74.4549C155.983 74.5665 155.821 74.635 155.649 74.6507C155.477 74.6689 155.303 74.6387 155.147 74.5633C155.091 74.5337 155.04 74.496 154.995 74.4515L155.27 74.3747Z" fill="white"/>
<path d="M147.981 61.8184C142.003 62.2828 139.563 65.744 140.723 72.2299C141.448 76.2571 144.18 80.9616 149.029 80.5529C154.085 80.1338 155.762 74.2068 155.417 69.998C155.066 65.5693 153.68 62.7298 149.873 61.9265C149.245 61.8518 148.613 61.8157 147.981 61.8184Z" fill="#FFBF9D"/>
<path d="M143.905 73.1729C143.91 73.2185 143.896 73.2639 143.867 73.2996C143.838 73.3354 143.797 73.3588 143.751 73.365C143.704 73.37 143.658 73.3565 143.621 73.3275C143.584 73.2982 143.561 73.2559 143.556 73.2096C143.551 73.1634 143.564 73.117 143.593 73.0806C143.612 73.0581 143.635 73.0405 143.662 73.0292C143.689 73.018 143.718 73.0135 143.747 73.0161C143.776 73.0187 143.804 73.0284 143.828 73.0443C143.852 73.0602 143.872 73.0818 143.886 73.1072C143.897 73.1276 143.903 73.1499 143.905 73.1729ZM144.799 73.4982C144.804 73.544 144.79 73.5898 144.761 73.6258C144.732 73.6618 144.69 73.685 144.644 73.6903C144.598 73.6948 144.553 73.6814 144.517 73.6528C144.49 73.6311 144.47 73.6019 144.46 73.569C144.45 73.5362 144.45 73.501 144.46 73.4681C144.466 73.4459 144.477 73.4252 144.492 73.4072C144.506 73.3892 144.524 73.3743 144.545 73.3634C144.575 73.3465 144.61 73.339 144.645 73.342C144.68 73.345 144.713 73.3583 144.741 73.3802C144.759 73.3945 144.774 73.4124 144.785 73.4326C144.796 73.4529 144.803 73.4752 144.806 73.4982H144.799ZM144.014 74.1891C144.017 74.2115 144.015 74.2343 144.008 74.256C143.995 74.2996 143.965 74.3363 143.925 74.3582C143.899 74.3716 143.871 74.3787 143.842 74.3788C143.814 74.3789 143.785 74.3721 143.76 74.3588C143.734 74.3456 143.713 74.3264 143.696 74.3029C143.68 74.2795 143.67 74.2524 143.666 74.2241C143.664 74.2016 143.666 74.1789 143.672 74.1572C143.686 74.1135 143.716 74.0768 143.756 74.0549C143.782 74.0411 143.81 74.0337 143.839 74.0334C143.868 74.0331 143.896 74.0399 143.922 74.0532C143.947 74.0665 143.969 74.0859 143.985 74.1096C144.001 74.1333 144.011 74.1606 144.014 74.1891ZM145.365 74.2173C145.369 74.2516 145.362 74.2862 145.346 74.3168C145.33 74.3475 145.305 74.3727 145.275 74.3892C145.244 74.4058 145.209 74.413 145.175 74.4099C145.14 74.4068 145.107 74.3936 145.08 74.3719C145.044 74.3426 145.02 74.3002 145.015 74.254C145.01 74.2078 145.024 74.1614 145.053 74.1249C145.075 74.0979 145.104 74.0778 145.137 74.0674C145.171 74.057 145.207 74.0566 145.24 74.0664C145.274 74.0764 145.303 74.096 145.326 74.1229C145.348 74.1498 145.361 74.1827 145.365 74.2173ZM146.233 73.9518C146.236 73.9742 146.234 73.997 146.227 74.0187C146.221 74.0404 146.21 74.0606 146.196 74.0782C146.181 74.0957 146.163 74.1102 146.143 74.1208C146.123 74.1315 146.101 74.138 146.078 74.1401C146.032 74.1447 145.986 74.1309 145.95 74.1018C145.914 74.0726 145.891 74.0304 145.887 73.9846C145.882 73.9387 145.896 73.8929 145.925 73.8573C145.955 73.8216 145.997 73.799 146.043 73.7944C146.067 73.792 146.09 73.7942 146.112 73.8009C146.134 73.8075 146.155 73.8185 146.173 73.8331C146.191 73.8478 146.206 73.8658 146.217 73.8861C146.228 73.9065 146.234 73.9288 146.237 73.9518H146.233ZM145.738 73.1524C145.742 73.1868 145.735 73.2216 145.719 73.2523C145.703 73.2831 145.679 73.3084 145.648 73.325C145.618 73.3414 145.583 73.3485 145.548 73.3454C145.514 73.3423 145.481 73.3292 145.454 73.3077C145.427 73.2862 145.407 73.2572 145.396 73.2244C145.385 73.1916 145.385 73.1565 145.394 73.1233C145.404 73.0901 145.423 73.0606 145.45 73.0384C145.477 73.0163 145.51 73.0025 145.544 72.9988C145.567 72.9956 145.59 72.9972 145.613 73.0034C145.635 73.0095 145.656 73.0202 145.674 73.0347C145.692 73.049 145.707 73.0668 145.718 73.087C145.729 73.1073 145.736 73.1295 145.738 73.1524ZM152.731 72.2295C152.734 72.2553 152.742 72.2802 152.755 72.3024C152.769 72.3246 152.787 72.3435 152.809 72.3577C152.831 72.3719 152.856 72.3811 152.882 72.3845C152.908 72.388 152.934 72.3856 152.959 72.3776C152.984 72.3697 153.006 72.3564 153.025 72.3388C153.044 72.3212 153.059 72.2996 153.069 72.2756C153.079 72.2515 153.083 72.2257 153.081 72.1999C153.079 72.1741 153.072 72.149 153.06 72.1263C153.043 72.0962 153.017 72.0717 152.986 72.0559C152.955 72.0401 152.92 72.0337 152.886 72.0374C152.84 72.0428 152.798 72.066 152.769 72.1019C152.74 72.1379 152.726 72.1837 152.731 72.2295ZM151.929 72.7367C151.932 72.7595 151.939 72.7816 151.95 72.8018C151.961 72.8219 151.976 72.8397 151.994 72.8541C152.012 72.8685 152.033 72.8793 152.055 72.8858C152.077 72.8923 152.1 72.8943 152.123 72.8919C152.146 72.8895 152.168 72.8825 152.189 72.8715C152.209 72.8606 152.227 72.8457 152.241 72.8278C152.256 72.81 152.267 72.7894 152.273 72.7674C152.28 72.7454 152.282 72.7223 152.279 72.6995C152.275 72.6534 152.251 72.6112 152.215 72.582C152.179 72.5529 152.132 72.5394 152.086 72.5443C152.039 72.5492 151.997 72.5723 151.967 72.6083C151.938 72.6444 151.924 72.6906 151.929 72.7367ZM152.84 73.2429C152.845 73.2892 152.868 73.3316 152.904 73.3611C152.94 73.3905 152.987 73.4045 153.033 73.4C153.057 73.3978 153.079 73.391 153.1 73.3802C153.12 73.3693 153.138 73.3545 153.153 73.3367C153.168 73.3188 153.179 73.2982 153.185 73.2761C153.192 73.254 153.194 73.2308 153.192 73.2079C153.187 73.1617 153.164 73.1192 153.128 73.0897C153.091 73.0603 153.045 73.0463 152.998 73.0508C152.952 73.0556 152.909 73.0785 152.879 73.1145C152.85 73.1505 152.835 73.1966 152.84 73.2429ZM151.529 73.5571C151.529 73.5811 151.535 73.6047 151.546 73.6264C151.556 73.6481 151.571 73.6675 151.589 73.6833C151.607 73.6992 151.628 73.7111 151.652 73.7185C151.675 73.7258 151.699 73.7284 151.723 73.726C151.747 73.7236 151.77 73.7163 151.792 73.7046C151.813 73.6929 151.831 73.677 151.846 73.658C151.861 73.6389 151.871 73.617 151.877 73.5937C151.883 73.5703 151.884 73.5461 151.88 73.5224C151.875 73.4766 151.852 73.4348 151.815 73.406C151.779 73.3772 151.733 73.3638 151.687 73.3687C151.664 73.3703 151.641 73.3766 151.621 73.3873C151.6 73.3976 151.582 73.412 151.568 73.4297C151.553 73.4472 151.542 73.4676 151.535 73.4895C151.528 73.5113 151.526 73.5343 151.529 73.5571ZM150.621 73.4802C150.625 73.5146 150.639 73.5471 150.662 73.5736C150.684 73.6 150.714 73.6193 150.747 73.6288C150.781 73.6384 150.816 73.6378 150.849 73.6272C150.883 73.6165 150.912 73.5963 150.933 73.5691C150.963 73.5328 150.976 73.4863 150.971 73.4399C150.966 73.3937 150.942 73.3514 150.906 73.3223C150.869 73.2931 150.823 73.2795 150.776 73.2844C150.729 73.2902 150.687 73.3138 150.657 73.3501C150.629 73.387 150.616 73.4338 150.621 73.4802ZM150.934 72.5969C150.939 72.643 150.963 72.6853 150.999 72.7144C151.035 72.7435 151.082 72.7571 151.128 72.7522C151.175 72.7472 151.217 72.7242 151.247 72.6881C151.276 72.652 151.29 72.6059 151.285 72.5598C151.28 72.5137 151.256 72.4714 151.22 72.4423C151.184 72.4132 151.137 72.3996 151.091 72.4046C151.044 72.4095 151.002 72.4325 150.973 72.4686C150.943 72.5047 150.93 72.5509 150.934 72.5969Z" fill="#9A7566"/>
<path d="M141.089 73.365C141.089 73.365 142.01 70.7385 141.413 68.9397L140.07 68.7024C140.07 68.7024 140.228 71.8841 141.089 73.365ZM155.365 71.8383C155.365 71.8383 153.902 69.4667 154.099 67.5843L155.347 67.0675C155.347 67.0675 155.899 70.2074 155.365 71.8383Z" fill="#373A36"/>
<path d="M140.738 60.9593C139.447 62.531 138.575 64.9723 138.652 66.3974C138.73 67.8222 139.254 69.2263 140.411 69.6594C143.983 71.0077 150.294 63.8232 150.294 63.8232C150.294 63.8232 153.304 68.5487 155.217 68.1051C157.13 67.6617 157.358 61.9476 152.379 59.2931C147.401 56.6387 142.714 58.5527 140.738 60.9593Z" fill="#373A36"/>
<path d="M142.963 70.1486C143.211 69.4931 143.647 68.9245 144.218 68.514C145.505 67.5115 146.662 68.8632 146.662 68.8632C146.662 68.8632 145.537 68.6048 144.735 68.9574C144.101 69.286 143.506 69.6856 142.963 70.1486ZM153.135 69.0627C152.752 68.4797 152.204 68.0216 151.56 67.7457C150.087 67.0474 149.254 68.6156 149.254 68.6156C149.254 68.6156 150.308 68.123 151.156 68.2978C151.842 68.4787 152.506 68.7352 153.135 69.0627Z" fill="#373A36"/>
<path d="M148.818 74.8429C148.544 74.863 148.268 74.8274 148.009 74.7382C147.968 74.7271 147.933 74.7028 147.908 74.6692C147.883 74.6357 147.87 74.5948 147.872 74.5532L147.942 71.434C147.942 71.3831 147.962 71.3342 147.999 71.2982C148.035 71.2622 148.084 71.2419 148.136 71.2419C148.187 71.2419 148.236 71.2622 148.272 71.2982C148.309 71.3342 148.329 71.3831 148.329 71.434L148.262 74.4029C148.421 74.4618 148.592 74.4799 148.76 74.4555C148.928 74.4311 149.087 74.3649 149.222 74.2632C149.242 74.2469 149.264 74.2347 149.289 74.2271C149.313 74.2195 149.339 74.2168 149.364 74.2191C149.39 74.2213 149.415 74.2286 149.437 74.2403C149.46 74.2521 149.48 74.2682 149.496 74.2877C149.513 74.3072 149.525 74.3297 149.533 74.3539C149.54 74.3781 149.543 74.4036 149.541 74.4289C149.539 74.4542 149.531 74.4788 149.519 74.5013C149.508 74.5238 149.491 74.5437 149.472 74.56C149.288 74.7179 149.06 74.8165 148.818 74.8429ZM149.268 78.5024C148.987 78.5296 148.703 78.5203 148.424 78.4745C148.373 78.4641 148.329 78.4346 148.3 78.3922C148.271 78.3498 148.26 78.2978 148.269 78.2474C148.274 78.2226 148.284 78.1991 148.298 78.1783C148.312 78.1572 148.331 78.1391 148.352 78.1251C148.373 78.1111 148.397 78.1015 148.422 78.0968C148.447 78.0921 148.473 78.0923 148.498 78.0974C148.498 78.0974 149.419 78.2684 150.003 77.8527C150.045 77.8236 150.096 77.8118 150.147 77.8196C150.197 77.8275 150.243 77.8544 150.273 77.8948C150.288 77.9155 150.299 77.9388 150.305 77.9635C150.31 77.9882 150.311 78.0137 150.307 78.0387C150.302 78.0637 150.293 78.0876 150.28 78.109C150.266 78.1305 150.248 78.1491 150.228 78.1637C149.942 78.3567 149.612 78.4733 149.268 78.5024Z" fill="#9A7566"/>
<path d="M145.727 71.0257C145.794 71.5601 145.642 72.0177 145.375 72.049C145.108 72.0806 144.876 71.658 144.799 71.1409C144.721 70.6242 144.883 70.1489 145.15 70.1176C145.417 70.086 145.66 70.4913 145.727 71.0257ZM150.537 70.5117C150.586 71.0461 150.832 71.4616 151.085 71.4408C151.339 71.4198 151.507 70.9622 151.462 70.4277C151.416 69.8936 151.166 69.4779 150.91 69.4989C150.653 69.5197 150.488 69.9739 150.537 70.5117Z" fill="#373A36"/>
<path d="M146.363 76.1242L151.156 75.1219C151.156 75.1219 150.681 77.1407 148.934 77.3083C148.437 77.3614 147.936 77.2792 147.483 77.0706C147.03 76.862 146.643 76.5348 146.363 76.1242Z" fill="white"/>
<path d="M135.397 88.2157C135.397 88.2157 133.744 87.9155 132.559 88.2157C131.374 88.5163 130.171 89.9169 130.171 89.9169L124.971 91.0868L128.691 101.1L137.664 100.751C138.871 99.2109 135.397 88.2157 135.397 88.2157ZM161.082 83.4589C161.082 83.4589 162.031 82.0827 163.083 81.4538C164.134 80.8252 165.98 80.9649 165.98 80.9649L170.224 79.0754C170.565 78.9231 170.952 78.9032 171.307 79.0195C171.662 79.1358 171.961 79.38 172.144 79.704L176.159 86.8011C176.387 87.2017 176.456 87.672 176.354 88.1205C176.252 88.5691 175.986 88.9641 175.607 89.2288L165.938 96.0326C163.976 95.7949 161.082 83.4589 161.082 83.4589Z" fill="#ED1B2E"/>
<path d="M140.773 94.5025C140.773 94.5025 143.378 99.4936 150.175 98.6691C156.971 97.845 159.317 92.5188 159.317 92.5188L160.262 92.4175C160.262 92.4175 157.425 100.101 150.333 100.168C143.241 100.234 140.432 95.7424 139.785 94.6109C139.757 94.6109 139.897 94.307 140.773 94.5025Z" fill="#C91727"/>
<path d="M138.118 117.544L137.538 125.692C137.538 125.692 146.251 127.844 152.714 127.292C159.176 126.74 167.966 124.149 167.966 124.149L165.713 116.985L138.118 117.544Z" fill="#373A36"/>
<path d="M95.9717 96.923L91.8016 113.569L99.045 115.602C99.045 115.602 103.939 100.901 103.968 99.1583C103.996 97.4156 103.968 96.4515 103.968 96.4515L95.9717 96.923ZM133.035 94.3596C133.035 94.3596 139.899 106.874 142.237 111.998L136.685 116.448L126.756 101.939L133.035 94.3596Z" fill="#EBBAAA"/>
<path d="M106.889 91.9493C106.889 91.9493 100.525 93.2208 100.255 87.8945C100.138 85.5892 99.8254 85.9527 97.7933 84.007C95.7608 82.0617 95.7645 81.2723 96.2005 79.4665C96.6364 77.6609 98.4614 77.0496 97.5577 75.3872C96.369 73.1937 96.7313 69.4497 99.3155 67.9932C101.812 66.596 102.094 66.596 102.094 65.1535C102.094 63.264 104.07 60.2182 108.145 60.5361C111.661 60.8087 111.105 59.1147 113.588 58.3603C118.215 56.963 120.458 60.9345 122.051 61.0776C123.644 61.2208 126.404 61.2487 127.803 63.3547C129.54 65.964 128.007 68.0942 130.18 68.3108C132.353 68.5273 134.551 70.4029 134.463 72.3554C134.375 74.3078 133.229 75.9529 134.027 76.8157C134.825 77.6782 135.135 82.7951 131.917 83.7765C127.522 85.1143 131.917 91.5757 123.83 91.4605C116.566 91.3418 106.889 91.9493 106.889 91.9493Z" fill="#373A36"/>
<path d="M133.035 96.9231H95.8416C95.8416 96.9231 95.8416 93.2943 99.1573 91.5302C99.5898 91.3034 100.371 90.9995 101.285 90.5524L101.671 90.3638L102.396 90.0146C104.227 89.0935 106.053 88.1621 107.874 87.2204L108.423 86.9376L110.595 85.7987L110.873 85.8582C113.463 86.4359 116.151 86.4156 118.732 85.7987L120.982 86.941L121.031 86.9655L123.774 88.3624C126.432 89.6896 129.364 91.1287 130.454 91.5652C132.67 92.4036 133.035 96.9231 133.035 96.9231Z" fill="#AB92E1"/>
<path d="M115.174 94.5099C114.392 94.5101 113.613 94.4127 112.856 94.2199C111.951 94.0008 111.091 93.6273 110.314 93.1161C110.278 93.0828 110.256 93.0377 110.252 92.9893C110.247 92.9409 110.261 92.8925 110.29 92.8534C110.319 92.8143 110.361 92.7871 110.409 92.7769C110.457 92.7668 110.507 92.7745 110.55 92.7985C111.291 93.2821 112.11 93.6364 112.972 93.8463C115.001 94.3515 117.144 94.1543 119.045 93.2874C119.088 93.2799 119.133 93.2869 119.172 93.3074C119.211 93.3279 119.242 93.3606 119.26 93.4005C119.279 93.4402 119.283 93.4849 119.274 93.5276C119.264 93.5702 119.24 93.6085 119.206 93.6365C117.938 94.2045 116.565 94.502 115.174 94.5099Z" fill="#7968A0"/>
<path d="M120.985 86.9199C120.553 88.7744 119.168 92.2427 114.815 92.2427C110.177 92.2427 108.806 88.5439 108.426 86.9161L110.599 85.7776L110.877 85.8371C113.466 86.4147 116.155 86.3943 118.735 85.7776L120.985 86.9199Z" fill="#EBBAAA"/>
<path d="M118.921 86.7002C118.921 86.7002 118.218 88.9321 114.924 88.9321C111.091 88.9321 110.191 86.9028 110.191 86.9028C110.487 86.1173 110.722 85.3105 110.894 84.4894C111.115 83.5 111.217 82.4884 111.2 81.4752L117.93 81.2097C117.993 81.7791 118.092 82.4428 118.208 83.1132C118.426 84.3126 118.664 85.5084 118.921 86.7002Z" fill="#EBBAAA"/>
<path d="M118.222 83.1132C117.167 83.8363 114.899 84.9048 110.908 84.4894C111.129 83.5 111.232 82.4884 111.214 81.4752L117.944 81.2097C118.025 81.786 118.106 82.4428 118.222 83.1132Z" fill="#373A36"/>
<path d="M121.819 73.1379C121.819 73.1379 123.398 71.0077 124.632 72.2683C125.866 73.5292 123.496 77.9229 121.348 76.9659L121.819 73.1379Z" fill="#EBBAAA"/>
<path d="M121.168 76.9245C120.522 77.2358 120.009 77.7662 119.722 78.42C119.435 79.0738 119.393 79.8079 119.604 80.4898C119.814 81.1715 120.262 81.7562 120.869 82.1384C121.475 82.5205 122.199 82.675 122.91 82.5739C123.621 82.4725 124.272 82.122 124.745 81.5857C125.219 81.0494 125.483 80.3626 125.491 79.6496C125.5 78.9365 125.252 78.2438 124.791 77.6966C124.33 77.1494 123.688 76.7838 122.979 76.6658C122.842 76.6444 122.703 76.6314 122.564 76.6274C122.574 76.5087 122.598 76.3916 122.635 76.2782C122.864 76.2884 123.091 76.3222 123.313 76.3795C124.085 76.5784 124.759 77.0435 125.217 77.6916C125.558 78.1754 125.764 78.7406 125.812 79.3292C125.861 79.9179 125.752 80.5088 125.495 81.0417C125.238 81.5745 124.844 82.0301 124.351 82.3617C123.859 82.6934 123.287 82.8892 122.693 82.9292C121.898 82.9819 121.11 82.7517 120.471 82.2798C119.831 81.8077 119.381 81.1251 119.202 80.3539C119.023 79.5828 119.125 78.7735 119.492 78.0708C119.859 77.3683 120.466 76.8183 121.204 76.5192L121.168 76.9245Z" fill="white"/>
<path d="M122.455 75.6561H122.438C122.409 75.6517 122.384 75.6365 122.367 75.6137C122.35 75.5908 122.342 75.5622 122.346 75.534C122.517 74.536 123.045 73.6328 123.834 72.9914C123.845 72.9827 123.858 72.9762 123.872 72.9726C123.886 72.9689 123.901 72.968 123.915 72.97C123.93 72.9719 123.944 72.9765 123.956 72.9837C123.969 72.9909 123.98 73.0006 123.989 73.0121C123.997 73.0235 124.004 73.0366 124.007 73.0506C124.011 73.0646 124.012 73.0791 124.01 73.0933C124.008 73.1076 124.003 73.1214 123.996 73.1338C123.989 73.1463 123.979 73.1572 123.967 73.1658C123.225 73.7737 122.727 74.6247 122.561 75.5653C122.557 75.5907 122.545 75.6139 122.525 75.6307C122.506 75.6474 122.481 75.6565 122.455 75.6561Z" fill="#C47F6B"/>
<path d="M122.786 74.5944C122.763 74.5938 122.741 74.5865 122.722 74.5733C122.71 74.5655 122.7 74.5553 122.692 74.5435C122.684 74.5316 122.678 74.5183 122.676 74.5042C122.673 74.4901 122.674 74.4757 122.677 74.4618C122.68 74.4478 122.686 74.4347 122.694 74.423C122.955 74.0423 123.658 74.0739 123.69 74.0739C123.718 74.0739 123.746 74.0853 123.767 74.1055C123.782 74.1206 123.792 74.1399 123.796 74.1609C123.801 74.1819 123.798 74.2037 123.79 74.2235C123.782 74.2432 123.768 74.2602 123.75 74.2721C123.732 74.284 123.711 74.2904 123.69 74.2904C123.521 74.2904 123.046 74.2904 122.888 74.5349C122.879 74.5538 122.864 74.5696 122.846 74.5802C122.828 74.5908 122.807 74.5957 122.786 74.5944Z" fill="#C47F6B"/>
<path d="M108.145 73.1379C108.145 73.1379 106.57 71.0077 105.332 72.2683C104.094 73.5292 106.471 77.9229 108.616 76.9659L108.145 73.1379Z" fill="#EBBAAA"/>
<path d="M108.574 76.5471C109.313 76.8461 109.92 77.3966 110.288 78.1C110.655 78.8033 110.758 79.6136 110.579 80.3856C110.399 81.1575 109.949 81.8408 109.309 82.3133C108.669 82.7858 107.88 83.0165 107.084 82.9642C106.288 82.9106 105.537 82.5777 104.965 82.025C104.394 81.4723 104.04 80.7358 103.965 79.9473C103.891 79.1588 104.101 78.3697 104.559 77.7211C105.017 77.0726 105.692 76.6069 106.464 76.4073C106.686 76.35 106.913 76.3163 107.142 76.306C107.18 76.4194 107.203 76.5365 107.213 76.6552C107.074 76.6592 106.935 76.672 106.798 76.6936C106.088 76.8113 105.443 77.1774 104.981 77.7257C104.519 78.274 104.269 78.9683 104.278 79.6833C104.286 80.3982 104.551 81.0868 105.025 81.6246C105.5 82.1624 106.153 82.514 106.865 82.6159C107.578 82.7175 108.304 82.5626 108.912 82.1792C109.52 81.7959 109.969 81.2094 110.18 80.5257C110.39 79.8419 110.347 79.1061 110.059 78.4508C109.771 77.7956 109.257 77.264 108.609 76.952L108.574 76.5471Z" fill="white"/>
<path d="M108.574 76.5471C109.313 76.8461 109.92 77.3966 110.288 78.1C110.655 78.8033 110.758 79.6136 110.579 80.3856C110.399 81.1575 109.949 81.8408 109.309 82.3133C108.669 82.7858 107.88 83.0165 107.084 82.9642C106.288 82.9106 105.537 82.5777 104.965 82.025C104.394 81.4723 104.04 80.7358 103.965 79.9473C103.891 79.1588 104.101 78.3697 104.559 77.7211C105.017 77.0726 105.692 76.6069 106.464 76.4073C106.686 76.35 106.913 76.3163 107.142 76.306C107.18 76.4194 107.203 76.5365 107.213 76.6552C107.074 76.6592 106.935 76.672 106.798 76.6936C106.088 76.8113 105.443 77.1774 104.981 77.7257C104.519 78.274 104.269 78.9683 104.278 79.6833C104.286 80.3982 104.551 81.0868 105.025 81.6246C105.5 82.1624 106.153 82.514 106.865 82.6159C107.578 82.7175 108.304 82.5626 108.912 82.1792C109.52 81.7959 109.969 81.2094 110.18 80.5257C110.39 79.8419 110.347 79.1061 110.059 78.4508C109.771 77.7956 109.257 77.264 108.609 76.952L108.574 76.5471Z" fill="white"/>
<path d="M107.512 75.6564C107.541 75.6527 107.567 75.6378 107.585 75.6149C107.594 75.6036 107.6 75.5906 107.604 75.5767C107.608 75.5628 107.609 75.5483 107.607 75.5341C107.436 74.5355 106.906 73.6323 106.116 72.9914C106.092 72.9745 106.063 72.9673 106.035 72.9713C106.006 72.9759 105.98 72.9914 105.963 73.0145C105.946 73.0376 105.939 73.0665 105.943 73.0949C105.947 73.1233 105.963 73.1487 105.986 73.1662C106.727 73.7741 107.226 74.625 107.392 75.5657C107.397 75.5927 107.413 75.6168 107.435 75.6335C107.457 75.6502 107.484 75.6584 107.512 75.6564Z" fill="#C47F6B"/>
<path d="M107.181 74.5944C107.203 74.5944 107.224 74.5869 107.241 74.5733C107.259 74.5614 107.273 74.5446 107.282 74.5249C107.29 74.5052 107.292 74.4835 107.289 74.4624C107.286 74.4484 107.28 74.435 107.273 74.423C107.012 74.0423 106.309 74.0739 106.277 74.0739C106.249 74.074 106.221 74.0853 106.2 74.1055C106.185 74.1206 106.175 74.1399 106.171 74.1609C106.166 74.1819 106.169 74.2037 106.177 74.2235C106.185 74.2432 106.199 74.2602 106.217 74.2721C106.235 74.284 106.256 74.2904 106.277 74.2904C106.446 74.2904 106.921 74.2904 107.076 74.5349C107.085 74.5541 107.1 74.57 107.119 74.5806C107.138 74.5912 107.16 74.596 107.181 74.5944Z" fill="#C47F6B"/>
<path d="M122.621 73.4837C122.505 77.8216 120.135 83.6963 114.924 83.5742C110.311 83.4658 108.022 79.121 107.462 75.1532C107.417 74.8238 107.384 74.4929 107.361 74.1612C106.914 67.7698 109.47 64.497 114.969 64.3188H115.926C116.573 64.3873 117.215 64.4936 117.849 64.6367C121.647 65.8732 122.736 68.9223 122.621 73.4837Z" fill="#EBBAAA"/>
<path opacity="0.5" d="M112.325 76.0858C112.325 76.5852 111.393 76.9904 110.247 76.9904C109.101 76.9904 108.169 76.5852 108.169 76.0858C108.169 75.5864 109.101 75.1812 110.247 75.1812C111.393 75.1812 112.325 75.5864 112.325 76.0858ZM122.093 76.0858C122.093 76.5852 121.165 76.9904 120.015 76.9904C118.865 76.9904 117.941 76.5852 117.941 76.0858C117.941 75.5864 118.869 75.1812 120.015 75.1812C121.161 75.1812 122.093 75.5864 122.093 76.0858Z" fill="#C47F6B"/>
<path d="M111.931 68.2234C110.581 68.3247 110.986 69.879 109.656 70.6402C108.197 71.4752 108.377 71.9746 108.732 73.1448C109.256 74.8908 107.529 75.2927 107.529 75.2927C107.529 75.2927 107.484 75.2019 107.462 75.1529C107.417 74.8235 107.384 74.4926 107.361 74.1609C106.914 67.7695 108.971 64.0323 114.969 64.3186C115.715 67.1162 113.739 68.0871 111.931 68.2234Z" fill="#373A36"/>
<path d="M117.898 67.7662C119.695 67.7346 119.066 69.5823 120.128 70.4346C121.439 71.4824 121.868 71.0353 121.292 72.7572C120.697 74.5383 122.41 75.293 122.41 75.293L122.473 75.1533C122.522 74.8038 122.557 74.486 122.578 74.1613C123.021 67.7696 120.838 64.0605 114.966 64.3223C114.224 67.1165 116.084 67.7941 117.898 67.7662ZM113.18 70.4349C112.477 70.4349 110.94 70.6375 110.247 71.9087C110.247 71.9087 111.837 71.1614 113.166 71.2416C113.256 71.2473 113.345 71.2229 113.419 71.1724C113.493 71.1219 113.549 71.0481 113.576 70.9628C113.595 70.9015 113.6 70.8365 113.589 70.773C113.579 70.7096 113.553 70.6496 113.514 70.598C113.475 70.5464 113.425 70.5047 113.367 70.4764C113.309 70.448 113.244 70.4338 113.18 70.4349Z" fill="#373A36"/>
<path d="M117.083 70.4348C117.786 70.4348 119.322 70.6374 120.015 71.9086C120.015 71.9086 118.426 71.1613 117.1 71.2416C117.01 71.2466 116.921 71.222 116.847 71.1716C116.772 71.1212 116.716 71.0478 116.688 70.9627C116.67 70.9062 116.664 70.8464 116.671 70.7874C116.685 70.6891 116.734 70.5991 116.81 70.5343C116.886 70.4694 116.983 70.4341 117.083 70.4348Z" fill="#373A36"/>
<path d="M115.339 77.7136C115.056 77.7058 114.779 77.6404 114.523 77.5215C114.483 77.5043 114.451 77.475 114.429 77.438C114.407 77.4009 114.399 77.358 114.403 77.3155L114.822 74.1371C114.828 74.0853 114.855 74.0382 114.897 74.0061C114.939 73.974 114.991 73.9595 115.043 73.9658C115.095 73.9725 115.143 73.9994 115.175 74.0406C115.207 74.0818 115.222 74.134 115.216 74.1858L114.818 77.2142C114.975 77.2894 115.147 77.3254 115.32 77.3189C115.494 77.3121 115.663 77.2629 115.813 77.1758C115.835 77.1586 115.86 77.1461 115.886 77.1391C115.913 77.1321 115.941 77.1308 115.968 77.1352C115.995 77.1393 116.021 77.1489 116.045 77.1634C116.068 77.178 116.088 77.1972 116.103 77.2198C116.119 77.2424 116.129 77.2679 116.135 77.2948C116.14 77.3217 116.139 77.3493 116.133 77.3759C116.127 77.4026 116.115 77.4277 116.099 77.4498C116.083 77.4718 116.062 77.4902 116.038 77.5038C115.832 77.6426 115.588 77.7158 115.339 77.7136ZM114.945 79.8157C114.78 79.816 114.616 79.8066 114.453 79.7878C113.904 79.7263 113.37 79.5679 112.877 79.32C112.849 79.3039 112.825 79.2812 112.807 79.2538C112.79 79.2265 112.779 79.1953 112.776 79.1629C112.774 79.1306 112.779 79.0981 112.792 79.0682C112.805 79.0384 112.825 79.0121 112.85 78.9916C112.881 78.9668 112.918 78.9519 112.958 78.9487C112.997 78.9456 113.036 78.9544 113.071 78.9739C113.169 79.0266 115.448 80.2488 117.42 78.4361C117.459 78.4032 117.51 78.3866 117.561 78.3898C117.612 78.393 117.66 78.4158 117.694 78.4533C117.729 78.4908 117.748 78.5402 117.746 78.591C117.745 78.6419 117.724 78.6903 117.688 78.726C116.95 79.4284 115.967 79.819 114.945 79.8157ZM115.293 80.9756C115.001 80.9765 114.711 80.9353 114.431 80.8535C114.381 80.838 114.338 80.8032 114.313 80.7567C114.288 80.7102 114.283 80.6558 114.298 80.6054C114.315 80.5562 114.35 80.5153 114.397 80.4913C114.443 80.4672 114.497 80.4618 114.548 80.4762C114.548 80.4762 115.472 80.7522 116.112 80.3925C116.135 80.3795 116.161 80.3712 116.187 80.3681C116.213 80.365 116.24 80.3672 116.265 80.3745C116.291 80.3815 116.315 80.3935 116.336 80.4098C116.356 80.426 116.374 80.4463 116.387 80.4694C116.412 80.5157 116.419 80.5704 116.405 80.6215C116.39 80.6724 116.356 80.7156 116.309 80.7417C115.996 80.904 115.646 80.9845 115.293 80.9756Z" fill="#C47F6B"/>
<path d="M112.606 73.4769C112.606 74.0287 112.41 74.4825 112.146 74.4863C111.882 74.4897 111.664 74.046 111.654 73.4942C111.643 72.9425 111.851 72.4883 112.111 72.4849C112.371 72.4815 112.596 72.9248 112.606 73.4769ZM117.575 73.4769C117.575 74.0287 117.772 74.4825 118.035 74.4863C118.299 74.4897 118.517 74.046 118.528 73.4942C118.538 72.9425 118.331 72.4883 118.071 72.4849C117.81 72.4815 117.585 72.9248 117.575 73.4769Z" fill="#373A36"/>
<path d="M100.662 94.3596C100.662 94.3596 99.9802 99.3544 99.8816 101.663L102.023 128.152H127.824C127.824 128.152 129.583 103.416 129.583 101.663C129.583 99.9096 128.897 94.3596 128.897 94.3596C128.897 94.3596 110.289 95.5961 100.662 94.3596Z" fill="#AB92E1"/>
<path d="M101.615 123.122C101.615 123.122 98.4929 130.107 97.881 142.572C97.2693 155.038 95.8416 180 95.8416 180H134.551C134.551 180 133.735 146.533 132.237 136.593C130.739 126.653 128.222 122.748 128.222 122.748L101.615 123.122Z" fill="#ED1B2E"/>
<path d="M98.3347 110.642L84.2702 95.9313L79.7309 98.7533C79.7309 98.7533 89.3684 114.027 91.2636 116.014C94.917 119.856 102.522 115.78 98.3347 110.642Z" fill="#EBBAAA"/>
<path d="M83.7497 88.3902C83.0545 89.2606 82.4468 90.1964 81.9353 91.1844L79.1223 89.473C78.8308 89.2887 78.5354 89.1105 78.2364 88.9385C76.8477 88.1213 74.3686 86.7485 73.4861 86.4935C72.3327 86.1444 72.3926 87.1364 72.9974 87.4821C73.4614 87.751 76.2392 89.7837 77.484 90.6989L77.4559 90.7618C76.2042 90.0108 73.2964 88.3657 72.3152 88.0828C71.1618 87.7334 71.2217 88.7254 71.8265 89.0711C72.3467 89.3717 75.7645 91.8864 76.6857 92.5639V92.6129C75.3217 91.8096 72.7303 90.36 71.8159 90.091C70.6625 89.7419 70.719 90.7373 71.3238 91.0831C71.7245 91.3101 73.8131 92.8295 75.1915 93.8422C74.1076 93.3088 72.9837 92.8592 71.83 92.4976C70.7505 92.2774 70.8772 93.1681 71.4574 93.4404C71.8512 93.6257 74.0135 94.9529 75.3251 95.7702L79.6357 98.6238L81.4185 100.852L85.8137 97.3874L84.3476 95.9133L83.9959 92.6268C84.1744 91.5571 84.409 90.4973 84.699 89.4519C85.0719 88.4007 84.7835 87.2795 83.7497 88.3902Z" fill="#EBBAAA"/>
<path d="M76.373 94.8662C76.3917 94.85 76.4062 94.8296 76.4151 94.8067L78.4367 90.0356C78.4468 90.0126 78.451 89.9876 78.4489 89.9626C78.4468 89.9377 78.4385 89.9136 78.4247 89.8927C78.4109 89.8717 78.392 89.8545 78.3698 89.8426C78.3476 89.8308 78.3228 89.8246 78.2975 89.8246C78.2673 89.8242 78.2376 89.8327 78.2123 89.8492C78.187 89.8657 78.1672 89.8892 78.1555 89.9169L76.1374 94.7088C76.1294 94.7269 76.1252 94.7463 76.1249 94.7661C76.1247 94.7858 76.1284 94.8054 76.1358 94.8237C76.1433 94.8421 76.1544 94.8587 76.1686 94.8726C76.1828 94.8865 76.1997 94.8974 76.2182 94.9046C76.245 94.914 76.2739 94.9153 76.3015 94.9085C76.329 94.9017 76.3539 94.8869 76.373 94.8662ZM81.5593 94.3246C81.5847 94.3034 81.6026 94.2746 81.6102 94.2425C81.6178 94.2104 81.6147 94.1767 81.6014 94.1465C81.3008 93.374 81.3159 92.5156 81.6435 91.7541C81.6605 91.7175 81.6623 91.6756 81.6484 91.6377C81.6346 91.5998 81.6062 91.5688 81.5695 91.5515C81.5327 91.5345 81.4906 91.5326 81.4524 91.5464C81.4142 91.5602 81.383 91.5884 81.3658 91.6249C80.9997 92.4659 80.9845 93.4168 81.3236 94.2688C81.3315 94.2871 81.343 94.3035 81.3575 94.3172C81.3719 94.331 81.3889 94.3417 81.4076 94.3488C81.4262 94.3559 81.4461 94.3593 81.4661 94.3588C81.4861 94.3583 81.5058 94.3538 81.524 94.3457L81.5593 94.3246Z" fill="#C47F6B"/>
<path d="M128.412 100.255L135.032 95.9307C133.921 94.3599 132.56 92.9786 131.003 91.8406C131.003 91.8406 127.35 96.6117 128.412 100.255Z" fill="#AB92E1"/>
<path d="M138.341 113.122L129.579 126.615L133.183 131.155C133.183 131.155 143.211 121.966 143.795 118.68C144.378 115.393 141.892 111.265 141.892 111.265L138.341 113.122Z" fill="#EBBAAA"/>
<path d="M136.523 137.135L137.434 136.932C137.529 136.908 137.614 136.857 137.679 136.784C137.744 136.712 137.786 136.622 137.798 136.525C137.807 136.462 137.803 136.397 137.786 136.335L137.765 136.258C137.716 136.078 137.611 135.919 137.465 135.803C137.319 135.687 137.139 135.62 136.952 135.612L135.106 135.531C135.106 135.531 134.899 129.018 134.266 128.494C134.248 128.478 134.224 128.469 134.199 128.469L129.544 126.615L129.006 134.277C129.006 134.277 129.882 137.449 130.127 137.903C130.233 138.098 131.028 138.161 131.945 138.175C131.967 138.235 131.993 138.293 132.023 138.35C132.265 138.804 136.267 138.559 136.791 138.559C137.262 138.563 137.427 137.543 136.523 137.135Z" fill="#EBBAAA"/>
<path d="M104.006 89.2877C103.716 88.9802 103.334 88.7733 102.916 88.6975C102.384 88.5934 101.844 88.5338 101.302 88.5194C100.483 88.5194 100.448 89.5077 100.37 90.1819C100.293 90.856 100.149 92.9934 100.944 92.976C101.738 92.9584 101.868 90.3321 101.868 90.3321L104.006 89.3051V89.2877Z" fill="#FFBF9D"/>
<path d="M102.294 89.2782C101.548 89.1099 100.789 89.0071 100.026 88.9708C99.2066 88.9708 99.1714 89.9591 99.0905 90.6333C99.0097 91.3074 98.869 93.4274 99.6672 93.4064C100.466 93.3856 100.592 90.7659 100.592 90.7659L102.726 89.7391L102.294 89.2782Z" fill="#FFBF9D"/>
<path d="M101.232 89.9449C100.486 89.7785 99.7273 89.6757 98.9638 89.6376C98.1447 89.6376 98.1097 90.6296 98.0286 91.3037C97.9478 91.9776 97.8073 94.0979 98.6053 94.0769C99.4036 94.0558 99.5299 91.4329 99.5299 91.4329L101.664 90.4059L101.232 89.9449Z" fill="#FFBF9D"/>
<path d="M99.4775 90.9363C98.8923 90.8065 98.297 90.7271 97.6981 90.699C97.0546 90.699 97.0265 91.4744 96.9632 92.0017C96.9001 92.529 96.7909 94.2091 97.4169 94.1775C98.0429 94.1462 98.1412 92.1064 98.1412 92.1064L99.8183 91.2997L99.4775 90.9363Z" fill="#FFBF9D"/>
<path fill-rule="evenodd" clip-rule="evenodd" d="M143.479 16.7716C143.479 19.5859 141.45 22.2361 137.874 24.5541L139.614 33.4081L133.264 26.9951C127.74 29.4221 120.295 31.2965 111.725 32.3408L111.035 41.3523L106.271 32.8799C102.856 33.1393 99.4324 33.2682 96.0073 33.2666C88.7415 33.2666 81.8566 32.6993 75.6999 31.6856L70.5951 40.7847L69.892 30.5486C64.7542 29.3704 60.3144 27.8542 56.8342 26.0916L47.8748 34.4011L51.8777 22.8634C49.721 20.9785 48.5354 18.9232 48.5354 16.7716C48.5354 7.66163 69.7893 0.276672 96.0073 0.276672C122.225 0.276672 143.479 7.66163 143.479 16.7716Z" fill="#ED1B2E"/>
<path d="M87.4913 21.7041C87.4913 21.9371 87.3787 22.0533 87.1537 22.0533H86.0424C85.7987 22.0533 85.6766 21.9368 85.6766 21.7041V17.8082H81.6822V21.7041C81.6822 21.9371 81.5649 22.0533 81.3305 22.0533H80.2333C79.9802 22.0533 79.8535 21.9368 79.8535 21.7041V12.7255C79.8535 12.6047 79.8866 12.5207 79.9521 12.4739C80.027 12.4181 80.1209 12.3903 80.2333 12.3903H81.3305C81.4432 12.3903 81.5274 12.4135 81.5836 12.46C81.6494 12.5064 81.6822 12.595 81.6822 12.7255V16.3701H85.6766V12.7255C85.6766 12.5018 85.7987 12.3903 86.0424 12.3903H87.1537C87.2663 12.3903 87.3506 12.4135 87.4067 12.46C87.4632 12.5064 87.4913 12.595 87.4913 12.7255V21.7041ZM92.8005 20.8664C93.1004 20.8664 93.3959 20.8385 93.6865 20.7827C93.9773 20.7177 94.2585 20.6337 94.5303 20.5312C94.6429 20.4847 94.7225 20.4754 94.7696 20.5033C94.8258 20.5312 94.8633 20.5823 94.882 20.6569L95.0789 21.3692C95.107 21.4621 95.107 21.5415 95.0789 21.6065C95.0602 21.6716 94.9946 21.7273 94.882 21.7738C94.5353 21.9321 94.1461 22.044 93.7145 22.109C93.2833 22.1834 92.8848 22.2209 92.519 22.2209C91.9657 22.2209 91.4689 22.1372 91.028 21.9696C90.5967 21.802 90.2309 21.5647 89.9311 21.2574C89.6308 20.9407 89.4012 20.5637 89.2417 20.1265C89.0822 19.6888 89.0027 19.1953 89.0027 18.646C89.0027 18.1249 89.0869 17.6453 89.2557 17.2078C89.4246 16.7704 89.6589 16.398 89.9591 16.0906C90.2688 15.7739 90.6428 15.5264 91.0564 15.3644C91.4876 15.1879 91.9657 15.0992 92.4909 15.0992C92.9222 15.0992 93.3114 15.1736 93.6584 15.3226C93.9938 15.4636 94.2958 15.6729 94.5446 15.937C94.8726 16.2722 95.0929 16.6539 95.2056 17.082C95.3183 17.5105 95.3744 17.9619 95.3744 18.4365V18.646C95.3744 18.8136 95.3417 18.9254 95.2758 18.9812C95.2103 19.0276 95.0883 19.0509 94.9101 19.0509H90.7889C90.8451 19.5909 91.0517 20.0286 91.4077 20.3636C91.7735 20.6988 92.2378 20.8664 92.8005 20.8664ZM93.7005 17.948V17.8364C93.7005 17.6499 93.6724 17.473 93.6163 17.3054C93.5642 17.1364 93.4779 16.9796 93.3628 16.8447C93.258 16.7036 93.1172 16.5927 92.955 16.5234C92.7958 16.4398 92.6083 16.398 92.3923 16.398C92.1673 16.398 91.9611 16.4398 91.7735 16.5234C91.5933 16.6088 91.4311 16.7273 91.2954 16.8726C91.164 17.0123 91.0564 17.1753 90.9718 17.3615C90.8969 17.5474 90.8451 17.7432 90.817 17.948H93.7005ZM98.3512 21.7041C98.3512 21.9371 98.2482 22.0533 98.042 22.0533H96.9728C96.7572 22.0533 96.6495 21.9417 96.6495 21.718V12.6C96.6495 12.4885 96.6683 12.4045 96.7057 12.3488C96.7432 12.2837 96.8181 12.2416 96.9307 12.223L98.0701 12.0693C98.1387 12.0587 98.2088 12.0737 98.267 12.1114C98.3231 12.1393 98.3512 12.209 98.3512 12.3209V21.7041ZM101.826 21.7041C101.826 21.9371 101.723 22.0533 101.517 22.0533H100.448C100.232 22.0533 100.125 21.9417 100.125 21.718V12.6C100.125 12.4885 100.143 12.4045 100.181 12.3488C100.218 12.2837 100.294 12.2416 100.406 12.223L101.545 12.0693C101.614 12.0587 101.684 12.0737 101.742 12.1114C101.798 12.1393 101.826 12.209 101.826 12.3209V21.7041ZM109.972 18.6599C109.972 19.1627 109.896 19.6327 109.746 20.0705C109.602 20.4894 109.372 20.8744 109.071 21.2013C108.78 21.5179 108.42 21.7695 107.988 21.9557C107.566 22.1323 107.083 22.2209 106.54 22.2209C105.968 22.2209 105.47 22.1326 105.048 21.9557C104.627 21.7695 104.28 21.5179 104.008 21.2016C103.736 20.8757 103.529 20.4986 103.389 20.0705C103.258 19.633 103.192 19.1581 103.192 18.646C103.192 18.1434 103.267 17.6778 103.417 17.2496C103.567 16.8122 103.787 16.4352 104.078 16.1188C104.383 15.7992 104.752 15.5468 105.161 15.3784C105.583 15.1925 106.071 15.0992 106.624 15.0992C107.196 15.0992 107.693 15.1875 108.115 15.3644C108.537 15.5413 108.884 15.7883 109.156 16.1049C109.428 16.4209 109.629 16.7983 109.761 17.2357C109.901 17.6732 109.972 18.1481 109.972 18.6599ZM108.213 18.6599C108.213 18.3715 108.185 18.097 108.129 17.8361C108.082 17.5663 107.998 17.329 107.876 17.1242C107.76 16.916 107.59 16.7424 107.383 16.6213C107.177 16.4912 106.919 16.4259 106.61 16.4259C106.301 16.4259 106.038 16.4909 105.822 16.621C105.61 16.7384 105.432 16.9064 105.302 17.1099C105.18 17.3057 105.091 17.5384 105.034 17.8082C104.978 18.0688 104.95 18.3389 104.95 18.6181C104.95 18.9068 104.974 19.186 105.02 19.4561C105.071 19.7104 105.161 19.9553 105.288 20.182C105.406 20.3922 105.575 20.5699 105.78 20.6988C105.986 20.8289 106.244 20.8943 106.554 20.8943C106.863 20.8943 107.121 20.8338 107.327 20.7127C107.538 20.5875 107.716 20.4155 107.848 20.2102C107.979 19.9961 108.073 19.7585 108.129 19.4976C108.185 19.2281 108.213 18.9483 108.213 18.6599ZM113.218 21.3274C113.218 21.6062 113.115 21.8252 112.909 21.9836C112.712 22.1416 112.501 22.2209 112.276 22.2209C112.051 22.2209 111.835 22.1465 111.628 21.9975C111.422 21.8488 111.319 21.6297 111.319 21.341C111.319 21.0433 111.417 20.8199 111.614 20.6709C111.811 20.5129 112.032 20.4336 112.276 20.4336C112.519 20.4336 112.735 20.5126 112.923 20.6709C113.119 20.8196 113.218 21.0389 113.218 21.3274ZM112.951 19.6377C112.951 19.8143 112.862 19.9029 112.684 19.9029H111.924C111.811 19.9029 111.736 19.8843 111.699 19.8471C111.661 19.8006 111.642 19.7263 111.642 19.6237L111.488 12.6555C111.488 12.5532 111.502 12.4832 111.53 12.446C111.568 12.4089 111.638 12.3903 111.741 12.3903H112.866C112.969 12.3903 113.035 12.4089 113.063 12.446C113.101 12.4832 113.119 12.5532 113.119 12.6555L112.951 19.6377Z" fill="white"/>
<path d="M40.3468 76.6317C40.3241 76.6291 40.3022 76.6215 40.2828 76.6094C40.2629 76.5967 40.2457 76.5802 40.2323 76.5607C40.2178 76.5402 40.2074 76.517 40.2017 76.4926C40.19 76.4419 40.1969 76.3887 40.221 76.3426C40.2326 76.3204 40.2484 76.3006 40.2675 76.2844C40.5559 76.0229 40.8832 75.6462 40.8049 75.3314C40.7266 75.017 40.2354 74.8094 40.0038 74.7803C39.5055 74.7177 39.3913 73.7034 39.3728 73.5004C39.3631 73.4456 39.3748 73.3892 39.4056 73.3427C39.4202 73.3205 39.4392 73.3014 39.4615 73.2867C39.4829 73.2728 39.507 73.2637 39.5323 73.26C39.5574 73.2565 39.583 73.2589 39.6069 73.267C39.6309 73.2751 39.6526 73.2888 39.6702 73.3068C39.689 73.3248 39.7036 73.3471 39.7139 73.3719C39.724 73.3973 39.7292 73.4244 39.7292 73.4518C39.767 73.8781 39.913 74.3691 40.0541 74.3868C40.2919 74.4165 41.009 74.6343 41.1501 75.2177C41.253 75.6341 41.038 76.096 40.4894 76.5948C40.4695 76.6114 40.4462 76.6233 40.4211 76.6298C40.3968 76.6362 40.3714 76.6368 40.3468 76.6317Z" fill="#FFBF9D"/>
</g>
<defs>
<clipPath id="clip0_2897_3053">
<rect width="192.857" height="180" fill="white" transform="translate(0.571426)"/>
</clipPath>
</defs>
</svg>
