<svg width="176" height="160" viewBox="0 0 176 160" fill="none" xmlns="http://www.w3.org/2000/svg">
<rect width="176" height="160" fill="#F5F5F5"/>
<g id="Login/sign up">
<rect width="3013" height="1566" transform="translate(-1166 -358)" fill="white"/>
<g id="Login - OTP" clip-path="url(#clip0_817_650)">
<rect width="390" height="844" transform="translate(-107 -112)" fill="#F8F9FB"/>
<g id="Frame 427320934">
<g id="Clip path group">
<mask id="mask0_817_650" style="mask-type:luminance" maskUnits="userSpaceOnUse" x="0" y="0" width="176" height="160">
<g id="clip0_1470_297">
<path id="Vector" d="M175.986 0H0.0137024V160H175.986V0Z" fill="white"/>
</g>
</mask>
<g mask="url(#mask0_817_650)">
<g id="Group">
<path id="Vector_2" d="M72.3483 15.9711H7.83618C3.64618 15.9711 0.249481 19.338 0.249481 23.4911V152.128C0.249481 156.281 3.64618 159.648 7.83618 159.648H72.3483C76.5382 159.648 79.9348 156.281 79.9348 152.128V23.4911C79.9348 19.338 76.5382 15.9711 72.3483 15.9711Z" fill="#BBC7D6"/>
<path id="Vector_3" d="M76.0733 26.9587H4.11212V148.66H76.0733V26.9587Z" fill="#EBEEF3"/>
<path id="Vector_4" d="M46.4944 21.9127H33.6911C33.4173 21.9125 33.1548 21.8045 32.9612 21.6125C32.7677 21.4204 32.659 21.1601 32.659 20.8887C32.659 20.6174 32.7677 20.3572 32.9613 20.1653C33.1548 19.9735 33.4174 19.8657 33.6911 19.8657H46.4944C46.768 19.8657 47.0304 19.9735 47.224 20.1653C47.4176 20.3572 47.5264 20.6174 47.5264 20.8887C47.5264 21.1601 47.4179 21.4204 47.2244 21.6125C47.0308 21.8045 46.768 21.9125 46.4944 21.9127Z" fill="white"/>
<path id="Vector_5" d="M40.5803 103.29H47.3226C49.4021 101.688 50.9434 99.4987 51.7436 97.0114C49.4573 97.2232 47.2992 98.1558 45.5867 99.6723C46.3966 98.4286 46.8104 96.9832 46.9348 95.5075C47.0595 94.0314 46.9279 92.5496 46.8025 91.0757C44.2058 92.4522 42.2463 94.7702 41.334 97.5452C41.1635 96.0694 40.7732 94.6266 40.1755 93.2642C39.7949 94.9391 39.4135 96.6285 39.3984 98.3449C39.3829 100.061 39.5595 101.903 40.5803 103.29Z" fill="#AB92E1"/>
<path id="Vector_6" d="M76.0733 103.331H4.11212V148.659H76.0733V103.331Z" fill="white"/>
<path id="Vector_7" d="M40.6301 82.3822H36.5926V103.33H40.6301V82.3822Z" fill="#373A36"/>
<path id="Vector_8" d="M31.1511 61.781H53.4278V82.3858H24.8106C24.3811 82.3858 23.9692 82.2165 23.6654 81.9155C23.3617 81.6145 23.1911 81.2064 23.1911 80.7805V69.667C23.191 68.6309 23.3968 67.6052 23.7968 66.6481C24.1968 65.691 24.7832 64.8212 25.5225 64.089C26.2617 63.3567 27.1393 62.776 28.1051 62.3797C29.0709 61.9838 30.1059 61.7803 31.1511 61.781Z" fill="#ED1B2E"/>
<g id="Mask group">
<mask id="mask1_817_650" style="mask-type:luminance" maskUnits="userSpaceOnUse" x="23" y="61" width="31" height="22">
<g id="Group_2">
<path id="Vector_9" d="M31.1515 61.781H53.4283V82.3858H24.8111C24.3815 82.3858 23.9696 82.2165 23.6659 81.9155C23.3622 81.6145 23.1915 81.2064 23.1915 80.7805V69.667C23.1914 68.6309 23.3972 67.6052 23.7973 66.6481C24.1973 65.691 24.7837 64.8212 25.5229 64.089C26.2621 63.3567 27.1397 62.776 28.1055 62.3797C29.0713 61.9838 30.1064 61.7803 31.1515 61.781Z" fill="white"/>
</g>
</mask>
<g mask="url(#mask1_817_650)">
<g id="Group_3">
<path id="Vector_10" d="M50.3919 68.3893H20.4724V72.0831H50.3919V68.3893Z" fill="#FFC56E"/>
</g>
</g>
</g>
<path id="Vector_11" d="M53.1446 61.781H53.7116C55.3744 61.781 56.969 62.4357 58.1445 63.601C59.3203 64.7664 59.9807 66.3467 59.9807 67.995V81.4568C59.9807 81.7026 59.8822 81.9383 59.7071 82.1122C59.5315 82.2862 59.2936 82.3836 59.0456 82.3836H46.8766V67.995C46.8766 66.3471 47.537 64.7667 48.7124 63.6014C49.8879 62.436 51.4822 61.7814 53.1446 61.781Z" fill="#C91727"/>
<path id="Vector_12" d="M10.5631 111.013L12.409 110.972L14.255 110.941L17.9458 110.878C20.4064 110.846 22.8673 110.819 25.3286 110.797C27.7895 110.772 30.2494 110.766 32.7103 110.75L40.093 110.735L47.4759 110.75C49.9367 110.766 52.3976 110.771 54.8577 110.797C57.3174 110.823 59.7793 110.845 62.2402 110.877L65.9319 110.939L67.7771 110.971L69.623 111.013L67.7771 111.056L65.9319 111.087L62.2402 111.15C59.779 111.182 57.3181 111.209 54.8577 111.23C52.3976 111.256 49.9367 111.261 47.4759 111.276L40.093 111.291L32.7103 111.275C30.2494 111.261 27.7895 111.255 25.3286 111.23C22.8676 111.204 20.4067 111.181 17.9458 111.149L14.255 111.086L12.409 111.055L10.5631 111.013Z" fill="#BBC7D6"/>
<path id="Vector_13" d="M10.5631 118.528L12.409 118.487L14.255 118.455L17.9458 118.393C20.4064 118.36 22.8673 118.334 25.3286 118.313C27.7895 118.287 30.2494 118.282 32.7103 118.266L40.093 118.251L47.4759 118.265C49.9367 118.281 52.3976 118.286 54.8577 118.312C57.3174 118.338 59.7793 118.359 62.2402 118.393L65.9319 118.455L67.7771 118.487L69.623 118.528L67.7771 118.571L65.9319 118.602L62.2402 118.665C59.779 118.697 57.3181 118.724 54.8577 118.745C52.3976 118.771 49.9367 118.776 47.4759 118.792L40.093 118.806L32.7103 118.791C30.2494 118.776 27.7895 118.77 25.3286 118.745C22.8676 118.719 20.4067 118.696 17.9458 118.663L14.255 118.602L12.409 118.571L10.5631 118.528Z" fill="#BBC7D6"/>
<path id="Vector_14" d="M10.5631 126.045L12.409 126.002L14.255 125.971L17.9458 125.91C20.4064 125.877 22.8673 125.85 25.3286 125.829C27.7895 125.804 30.2494 125.797 32.7103 125.782L40.093 125.767L47.4759 125.781C49.9367 125.797 52.3976 125.802 54.8577 125.828C57.3174 125.853 59.7793 125.876 62.2402 125.909L65.9319 125.971L67.7771 126.002L69.623 126.045L67.7771 126.086L65.9319 126.118L62.2402 126.18C59.779 126.213 57.3181 126.24 54.8577 126.262C52.3976 126.288 49.9367 126.293 47.4759 126.308L40.093 126.322L32.7103 126.307C30.2494 126.292 27.7895 126.287 25.3286 126.26C22.8676 126.234 20.4067 126.213 17.9458 126.18L14.255 126.118L12.409 126.086L10.5631 126.045Z" fill="#BBC7D6"/>
<path id="Vector_15" d="M10.5631 133.559L12.409 133.518L14.255 133.486L17.9458 133.424C20.4064 133.392 22.8673 133.365 25.3286 133.343C27.7895 133.318 30.2494 133.312 32.7103 133.297L40.093 133.281L47.4759 133.297C49.9367 133.312 52.3976 133.317 54.8577 133.342C57.3174 133.367 59.7793 133.391 62.2402 133.423L65.9319 133.486L67.7771 133.517L69.623 133.559L67.7771 133.601L65.9291 133.638L62.2373 133.701C59.7761 133.733 57.3149 133.76 54.8544 133.781C52.3947 133.807 49.9335 133.812 47.4726 133.828L40.0898 133.843L32.7072 133.826C30.2463 133.812 27.7864 133.806 25.3255 133.781C22.8646 133.756 20.4037 133.732 17.9428 133.7L14.2519 133.637L12.4059 133.606L10.5631 133.559Z" fill="#BBC7D6"/>
<path id="Vector_16" d="M10.5631 141.074L12.409 141.033L14.255 141.001L17.9458 140.938C20.4064 140.906 22.8673 140.88 25.3286 140.859C27.7895 140.832 30.2494 140.827 32.7103 140.812L40.093 140.797L47.4759 140.811C49.9367 140.826 52.3976 140.832 54.8577 140.858C57.3174 140.884 59.7793 140.905 62.2402 140.938L65.9319 141L67.7771 141.033L69.623 141.074L67.7771 141.116L65.9319 141.148L62.2402 141.21C59.779 141.243 57.3181 141.27 54.8577 141.291C52.3976 141.317 49.9367 141.322 47.4759 141.337L40.093 141.352L32.7103 141.337C30.2494 141.322 27.7895 141.315 25.3286 141.29C22.8676 141.265 20.4067 141.242 17.9458 141.209L14.255 141.148L12.409 141.116L10.5631 141.074Z" fill="#BBC7D6"/>
<path id="Vector_17" d="M39.4598 103.29H29.0571C25.4876 102.41 22.2241 99.6695 20.9819 96.2435C24.3648 95.9703 27.7231 97.0061 30.3523 99.1336C26.2199 96.3962 23.6651 91.4641 23.7834 86.5393C26.5789 86.9709 29.1071 88.6993 30.9224 90.8473C32.7378 92.9958 33.9922 95.5513 35.1518 98.1097C35.06 95.8393 35.4343 93.5757 36.5337 91.5825C38.8701 94.8757 40.1461 99.3259 39.4598 103.29Z" fill="#AB92E1"/>
<path id="Vector_18" d="M102.323 10.0778V10.0726L47.7302 0.0472468C47.4465 -0.0126631 47.1535 -0.0156286 46.8687 0.038526C46.5836 0.0926803 46.3125 0.202858 46.0714 0.362552C45.8302 0.52225 45.6237 0.728229 45.464 0.968331C45.3043 1.20844 45.1951 1.4778 45.1421 1.76052L39.1402 33.8693C39.0886 34.1484 39.0933 34.4349 39.1542 34.7121L39.1968 34.8755C39.3107 35.2549 39.5284 35.5957 39.8254 35.8605C40.1224 36.125 40.4872 36.3033 40.8801 36.3752L95.6798 46.4413C96.0723 46.5135 96.4775 46.4767 96.8502 46.3349C97.2233 46.1934 97.5495 45.9527 97.7931 45.6391L97.8923 45.5012C98.0487 45.2637 98.1558 44.9977 98.2073 44.7191L104.209 12.6115C104.451 11.314 103.501 10.2129 102.323 10.0778Z" fill="#FFC56E"/>
<path id="Vector_19" d="M75.5706 24.7179C77.5589 26.2914 79.4928 27.9237 81.4169 29.5691C83.3406 31.2145 85.2359 32.8896 87.1182 34.5771C89.0001 36.2646 90.8648 37.9767 92.71 39.7079C94.5548 41.4388 96.3794 43.191 98.1539 44.9983C96.1649 43.4255 94.2314 41.7939 92.3037 40.1479C90.3756 38.5018 88.4843 36.828 86.6028 35.1399C84.7215 33.4516 82.8569 31.7403 81.0124 30.0086C79.1684 28.2769 77.3455 26.5247 75.5706 24.7179Z" fill="#B58C4E"/>
<path id="Vector_20" d="M39.0876 34.1544C41.3985 33.1001 43.7411 32.115 46.0833 31.149C48.4252 30.1829 50.7901 29.2531 53.1572 28.3431C55.5247 27.4331 57.9026 26.5468 60.2907 25.6889C62.6787 24.8309 65.0772 23.9987 67.503 23.2369C65.1929 24.2912 62.8535 25.2797 60.5073 26.2431C58.1614 27.2065 55.8005 28.1389 53.4326 29.0449C51.0644 29.951 48.6872 30.8406 46.2985 31.6985C43.9101 32.5565 41.512 33.394 39.0876 34.1544Z" fill="#B58C4E"/>
<path id="Vector_21" d="M104.193 12.5719C101.373 13.6104 98.576 14.7017 95.7771 15.7896L91.5889 17.4462C90.89 17.7203 90.1929 18.0024 89.4986 18.2831L87.4105 19.1252L85.3231 19.9674L83.24 20.824L79.0761 22.5373C78.3811 22.8206 77.6897 23.1125 76.9977 23.4025L74.9204 24.2697L74.1299 24.5991C73.2565 24.965 72.2944 25.0689 71.3623 24.8977C70.4302 24.7266 69.5694 24.288 68.8863 23.6364L68.2721 23.0493L66.6486 21.5001C66.1061 20.9841 65.5676 20.4648 65.0212 19.9542L61.7526 16.8775L60.1143 15.3395L58.4692 13.8121L56.8244 12.284C56.2751 11.7752 55.7286 11.2639 55.1757 10.7598L51.8642 7.72863C49.6438 5.71948 47.4259 3.70902 45.1676 1.73743L45.1143 1.79146L68.6304 24.4212C69.3391 25.1034 70.2352 25.5626 71.2066 25.7411C72.1777 25.9196 73.1804 25.8093 74.0884 25.4241L104.223 12.6405L104.193 12.5719Z" fill="#B58C4E"/>
<path id="Vector_22" d="M110.509 10.2532C110.509 10.2532 105.791 10.2532 105.118 15.434C104.548 19.7538 107.347 21.9893 107.347 21.9893L111.836 13.0588L110.509 10.2532Z" fill="#373A36"/>
<path id="Vector_23" d="M126.292 31.0013L122.063 16.9267L122.003 16.9437C121.628 15.0863 120.561 13.4374 119.014 12.3261C117.466 11.2147 115.553 10.7228 113.656 10.9486C110.096 11.372 107.728 13.6808 107.159 17.336C107.02 18.2712 107.011 19.2209 107.132 20.1585L107.354 21.9932C107.596 23.9719 108.621 25.7744 110.203 27.0052C111.785 28.236 113.794 28.7946 115.791 28.5584C116.12 28.5186 116.445 28.4573 116.765 28.3749L118.678 36.4444L126.292 31.0013Z" fill="#F8E0D9"/>
<path id="Vector_24" d="M116.763 28.3775C116.763 28.3775 119.38 27.6324 120.362 26.3806C120.362 26.3806 120.258 28.5497 117.202 29.8904L116.763 28.3775Z" fill="#F1B29D"/>
<path id="Vector_25" d="M110.973 16.2979C111.04 16.5865 111.09 16.8786 111.124 17.1729C111.146 17.314 111.155 17.4622 111.169 17.6076C111.183 17.753 111.196 17.8969 111.199 18.0423L111.219 18.4755C111.219 18.6166 111.219 18.7578 111.219 18.9074V19.3392L111.205 19.7711L111.189 20.2594L110.677 20.2283C110.493 20.2184 110.308 20.21 110.123 20.1958L109.98 20.186H109.946H109.926H109.893C109.85 20.1888 109.806 20.1945 109.764 20.2029C109.675 20.2308 109.594 20.2791 109.527 20.344C109.457 20.4147 109.408 20.503 109.385 20.5995C109.358 20.7058 109.363 20.8176 109.399 20.9212C109.421 20.9777 109.447 21.032 109.479 21.0835C109.516 21.1362 109.559 21.1837 109.609 21.2247C109.663 21.2675 109.722 21.3044 109.785 21.3347C109.867 21.3648 109.95 21.3898 110.034 21.4095C110.215 21.4646 110.397 21.5196 110.577 21.5902H110.585C110.592 21.5932 110.597 21.5985 110.599 21.6051C110.602 21.6116 110.602 21.6189 110.599 21.6255C110.598 21.6306 110.594 21.6351 110.59 21.6382C110.585 21.6412 110.58 21.6427 110.574 21.6424L110.02 21.6128C109.928 21.6128 109.836 21.6057 109.735 21.593C109.64 21.5772 109.548 21.5482 109.46 21.5069C109.287 21.4193 109.143 21.2831 109.047 21.1154C108.951 20.9477 108.906 20.7556 108.919 20.5631C108.931 20.3704 109 20.1857 109.118 20.0317C109.235 19.8776 109.395 19.761 109.579 19.6963C109.671 19.6655 109.766 19.647 109.863 19.6412C109.963 19.6412 110.053 19.6483 110.148 19.6539L110.702 19.692L110.645 19.7414L110.769 18.0211C110.809 17.4481 110.854 16.8751 110.902 16.3021C110.902 16.2949 110.906 16.2883 110.911 16.2835C110.917 16.2788 110.924 16.2764 110.931 16.2768C110.937 16.2772 110.943 16.2796 110.947 16.2834C110.951 16.2872 110.955 16.2923 110.956 16.2979H110.973Z" fill="#F1B29D"/>
<path id="Vector_26" d="M114.191 16.2618C114.178 16.4607 113.708 16.5934 113.143 16.5567C112.578 16.52 112.129 16.3295 112.146 16.1333C112.163 15.9372 112.629 15.8017 113.194 15.8369C113.759 15.8722 114.204 16.0614 114.191 16.2618Z" fill="#373A36"/>
<path id="Vector_27" d="M110.084 16.2021C110.141 16.394 109.746 16.6777 109.201 16.8372C108.655 16.9966 108.17 16.967 108.113 16.775C108.056 16.5831 108.451 16.298 108.996 16.14C109.541 15.9819 110.027 16.0102 110.084 16.2021Z" fill="#373A36"/>
<path id="Vector_28" d="M113.75 17.7419C113.764 17.8565 113.743 17.9725 113.69 18.0754C113.638 18.1782 113.556 18.2633 113.454 18.3198C113.353 18.3762 113.237 18.4017 113.121 18.3928C113.004 18.3838 112.894 18.341 112.802 18.2697C112.711 18.1984 112.643 18.1018 112.607 17.9921C112.571 17.8824 112.568 17.7646 112.599 17.6535C112.631 17.5425 112.695 17.4432 112.783 17.3682C112.872 17.2932 112.981 17.2458 113.096 17.2322C113.173 17.2229 113.251 17.2288 113.325 17.2494C113.4 17.27 113.469 17.305 113.53 17.3524C113.591 17.3998 113.642 17.4586 113.679 17.5254C113.717 17.5923 113.741 17.6659 113.75 17.7419Z" fill="#373A36"/>
<path id="Vector_29" d="M109.731 18.2449C109.746 18.3687 109.723 18.4941 109.667 18.6054C109.61 18.7167 109.521 18.8087 109.412 18.8701C109.302 18.9313 109.177 18.9592 109.051 18.9499C108.926 18.9407 108.806 18.8948 108.707 18.8181C108.608 18.7415 108.534 18.6374 108.494 18.5191C108.455 18.4007 108.451 18.2734 108.485 18.1532C108.518 18.033 108.586 17.9252 108.682 17.8435C108.776 17.7619 108.894 17.7099 109.018 17.6942C109.102 17.6838 109.186 17.6897 109.267 17.7118C109.348 17.7338 109.424 17.7715 109.49 17.8227C109.557 17.8739 109.612 17.9375 109.653 18.01C109.694 18.0825 109.721 18.1623 109.731 18.2449Z" fill="#373A36"/>
<path id="Vector_30" d="M110.151 23.3058C110.151 23.3058 112.129 22.6539 113.165 21.2793C113.165 21.2793 112.159 24.4998 110.151 23.3058Z" fill="#373A36"/>
<path id="Vector_31" d="M124.476 10.8925C124.214 10.4502 123.877 10.0562 123.48 9.72821C123.856 8.96079 124.046 8.11604 124.031 7.26258C124.016 6.40917 123.799 5.5712 123.396 4.81681C122.993 4.06243 122.416 3.41295 121.712 2.92117C121.009 2.4294 120.198 2.10923 119.346 1.98671C118.493 1.86419 117.624 1.94277 116.808 2.21607C115.992 2.48936 115.253 2.94964 114.651 3.55948C114.048 4.16932 113.599 4.91155 113.341 5.7257C113.082 6.53989 113.021 7.40305 113.163 8.24499C110.671 8.90261 108.772 10.2575 108.749 12.2304C108.749 12.2304 108.5 14.9569 112.795 15.1319C112.795 15.1319 111.49 14.5675 110.986 13.6064C111.162 13.8773 112.125 14.8243 117.119 15.9773L120.772 16.8848L121.705 16.3061L123.669 22.2701C123.669 22.2701 127.23 15.6555 124.476 10.8925Z" fill="#373A36"/>
<path id="Vector_32" d="M123.337 17.5107C123.461 18.5268 122.89 19.4314 122.056 19.5316C121.222 19.6318 120.454 18.8867 120.33 17.8706C120.206 16.8545 120.777 15.9498 121.612 15.851C122.446 15.7522 123.209 16.4946 123.337 17.5107Z" fill="#F8E0D9"/>
<path id="Vector_33" d="M120.876 17.278C120.871 17.0836 120.935 16.8938 121.058 16.7417C121.199 16.5667 121.403 16.4532 121.627 16.4256C121.685 16.4168 121.744 16.413 121.802 16.4143C121.977 16.4278 122.145 16.4814 122.295 16.5709C122.481 16.6912 122.635 16.8556 122.741 17.0493C122.788 17.1444 122.826 17.2436 122.854 17.3457C122.866 17.3979 122.88 17.4487 122.887 17.4996C122.898 17.5549 122.903 17.6111 122.903 17.6675C122.906 17.7557 122.889 17.8435 122.853 17.9243C122.804 18.0357 122.712 18.1233 122.598 18.1685C122.466 18.2143 122.321 18.2143 122.188 18.1685C121.807 18.0598 121.573 17.8552 121.247 17.7451H121.239C121.236 17.7445 121.234 17.7434 121.232 17.7419C121.23 17.7403 121.229 17.7385 121.228 17.7363C121.227 17.7342 121.226 17.7319 121.226 17.7295C121.226 17.7271 121.226 17.7248 121.227 17.7225C121.228 17.7193 121.23 17.7165 121.233 17.7145C121.236 17.7125 121.239 17.7113 121.243 17.7112C121.592 17.6816 121.91 17.8312 122.24 17.8792C122.316 17.8953 122.395 17.8919 122.47 17.8693C122.501 17.852 122.525 17.8254 122.539 17.7934C122.554 17.7614 122.557 17.7257 122.55 17.6915C122.534 17.5311 122.486 17.3755 122.408 17.2342C122.34 17.0882 122.233 16.9638 122.098 16.8752C121.962 16.7866 121.805 16.7374 121.643 16.7332C121.48 16.7469 121.325 16.8077 121.196 16.908C121.068 17.0084 120.973 17.1439 120.921 17.2977C120.92 17.2999 120.919 17.3019 120.917 17.3036C120.916 17.3053 120.914 17.3066 120.912 17.3076C120.91 17.3085 120.907 17.309 120.905 17.309C120.903 17.309 120.9 17.3085 120.898 17.3076C120.895 17.3065 120.892 17.3044 120.89 17.3016C120.888 17.2988 120.887 17.2955 120.887 17.2921L120.876 17.278Z" fill="#F1B29D"/>
<path id="Vector_34" d="M113.166 8.2512C113.24 8.45586 118.753 6.22183 123.484 9.73446C123.685 9.34772 123.829 8.9342 123.911 8.50664C123.911 8.50664 120.013 5.05613 113.09 7.01494C113.014 7.42702 113.04 7.85125 113.166 8.2512Z" fill="#ED1B2E"/>
<path id="Vector_35" d="M127.781 113.404L163.808 119.381L166.894 111.32L134.191 100.611L127.781 113.404Z" fill="#F8E0D9"/>
<path id="Vector_36" d="M124.795 113.962C124.783 114.668 124.792 115.373 124.822 116.079L125.723 149.916H117.616L110.537 114.748C110.442 114.266 110.356 113.782 110.278 113.297L124.795 113.962Z" fill="#F8E0D9"/>
<path id="Vector_37" d="M136.89 86.6583C136.89 86.6583 138.855 77.1082 136.89 69.9054C136.863 69.7261 136.836 69.5467 136.808 69.3677C135.811 62.8758 134.736 56.3966 133.818 49.8922C133.55 47.987 133.39 46.0677 133.106 44.1654C133.084 44.0243 133.063 43.8901 133.039 43.7417C132.798 42.2855 132.479 40.8434 132.083 39.4207C132.062 39.3485 132.042 39.2796 132.021 39.202C130.961 35.4606 129.173 30.0286 124.715 29.1974C119.513 28.225 115.586 33.8743 113.792 37.8526C111.708 42.4732 111.149 47.6116 110.6 52.5906C109.866 59.2109 109.344 65.8565 108.975 72.5118L105.985 118.818C105.985 118.818 139.574 119.987 148.347 103.32L136.89 86.6583Z" fill="#ED1B2E"/>
<path id="Vector_38" d="M102.642 36.0873L102.029 34.8582C101.79 34.3802 101.376 34.0111 100.871 33.8272C100.366 33.6434 99.8089 33.6588 99.3151 33.8703L96.2667 35.2816C95.969 35.4186 95.7318 35.6583 95.5995 35.9559C95.4672 36.2537 95.4485 36.5889 95.5473 36.8989C95.646 37.2093 95.8551 37.4731 96.1359 37.6417C96.4167 37.8102 96.7494 37.8719 97.0727 37.8149L99.3151 37.4266L98.8436 40.0092L104.562 55.0294L112.559 51.8935L102.642 36.0873Z" fill="#F8E0D9"/>
<path id="Vector_39" d="M98.7829 37.5212C98.9015 37.4375 99.0313 37.3707 99.169 37.3234C99.4314 37.2296 99.7086 37.182 99.9875 37.1823C100.132 37.1809 100.276 37.1993 100.415 37.2375C100.295 37.3206 100.165 37.387 100.027 37.435C99.8964 37.4812 99.7615 37.5165 99.6246 37.5407C99.4876 37.5649 99.3492 37.5772 99.21 37.5775C99.0659 37.5782 98.922 37.5591 98.7829 37.5212Z" fill="#F1B29D"/>
<path id="Vector_40" d="M126.175 152.84L125.723 149.916H117.616V151.313L107.106 155.785C106.336 156.112 105.682 156.657 105.226 157.353C104.77 158.048 104.532 158.862 104.543 159.691L127.386 159.769L126.175 152.84Z" fill="#373A36"/>
<path id="Vector_41" d="M127.395 158.267C125.513 158.365 123.63 158.408 121.748 158.444C120.809 158.464 119.868 158.465 118.926 158.475H116.103L113.281 158.452C112.34 158.436 111.399 158.428 110.458 158.402C108.577 158.358 106.694 158.297 104.814 158.187C106.696 158.088 108.577 158.046 110.459 158.011C111.4 157.989 112.341 157.988 113.282 157.978H116.104L118.928 158.002C119.869 158.019 120.81 158.028 121.75 158.053C123.632 158.097 125.514 158.157 127.395 158.267Z" fill="#AB92E1"/>
<path id="Vector_42" d="M124.552 155.623C124.944 154.556 124.389 153.376 123.313 152.987C122.236 152.598 121.045 153.148 120.653 154.216C120.261 155.283 120.816 156.463 121.893 156.851C122.969 157.24 124.16 156.69 124.552 155.623Z" fill="#AB92E1"/>
<path id="Vector_43" d="M108.53 154.973C108.776 154.878 109.045 154.855 109.305 154.905C109.552 154.952 109.786 155.048 109.994 155.187C110.208 155.328 110.388 155.514 110.521 155.731C110.665 155.96 110.727 156.23 110.696 156.499L110.652 156.524C110.592 156.431 110.527 156.343 110.456 156.259C110.42 156.216 110.387 156.171 110.349 156.131L110.234 156.013C110.075 155.86 109.901 155.723 109.714 155.605C109.53 155.482 109.337 155.372 109.136 155.278C109.035 155.23 108.934 155.186 108.83 155.145C108.727 155.101 108.623 155.063 108.517 155.029L108.53 154.973Z" fill="#AB92E1"/>
<path id="Vector_44" d="M111.215 153.854C111.462 153.759 111.731 153.736 111.991 153.786C112.237 153.833 112.471 153.929 112.678 154.069C112.892 154.209 113.072 154.394 113.205 154.612C113.349 154.841 113.411 155.112 113.382 155.38L113.337 155.405C113.277 155.313 113.212 155.224 113.141 155.14C113.104 155.098 113.072 155.052 113.034 155.013L112.919 154.894C112.76 154.742 112.586 154.605 112.399 154.487C112.215 154.363 112.021 154.253 111.821 154.158C111.72 154.111 111.618 154.066 111.515 154.026C111.413 153.982 111.308 153.944 111.202 153.911L111.215 153.854Z" fill="#AB92E1"/>
<path id="Vector_45" d="M113.703 152.84C113.95 152.744 114.219 152.72 114.479 152.771C114.725 152.817 114.959 152.913 115.167 153.053C115.38 153.193 115.56 153.379 115.693 153.596C115.837 153.826 115.9 154.097 115.87 154.365L115.826 154.389C115.766 154.297 115.7 154.209 115.629 154.124C115.592 154.082 115.561 154.036 115.522 153.997L115.407 153.88C115.248 153.727 115.074 153.59 114.887 153.471C114.703 153.347 114.51 153.238 114.31 153.143C114.208 153.095 114.106 153.052 114.002 153.01C113.898 152.97 113.795 152.929 113.69 152.895L113.703 152.84Z" fill="#AB92E1"/>
<path id="Vector_46" d="M168.13 111.664L166.117 111.084L163.688 119.363L165.041 119.753L166.439 131.006C166.54 131.829 166.886 132.604 167.433 133.232C167.979 133.86 168.701 134.313 169.507 134.534L175.963 112.815L168.13 111.664Z" fill="#373A36"/>
<path id="Vector_47" d="M174.51 112.388C174.083 114.207 173.599 116.012 173.103 117.811C172.86 118.711 172.6 119.607 172.346 120.506L171.561 123.188L170.751 125.869C170.467 126.76 170.202 127.653 169.913 128.541C169.343 130.319 168.761 132.093 168.129 133.853C168.556 132.034 169.039 130.23 169.534 128.431C169.778 127.529 170.04 126.633 170.292 125.734L171.076 123.052L171.888 120.371C172.172 119.48 172.437 118.587 172.726 117.699C173.294 115.921 173.882 114.147 174.51 112.388Z" fill="#AB92E1"/>
<path id="Vector_48" d="M170.894 117.842C171.9 117.298 172.271 116.049 171.723 115.052C171.175 114.055 169.915 113.687 168.909 114.23C167.903 114.773 167.532 116.022 168.08 117.019C168.628 118.017 169.888 118.385 170.894 117.842Z" fill="#AB92E1"/>
<path id="Vector_49" d="M166.051 129.425C166.025 129.164 166.074 128.901 166.193 128.667C166.305 128.445 166.461 128.248 166.653 128.088C166.849 127.924 167.079 127.805 167.326 127.74C167.589 127.667 167.868 127.683 168.119 127.787L168.131 127.836C168.025 127.867 167.921 127.905 167.819 127.949C167.768 127.971 167.715 127.988 167.667 128.015L167.524 128.091C167.332 128.2 167.151 128.328 166.983 128.472C166.812 128.613 166.652 128.766 166.504 128.931C166.431 129.013 166.361 129.097 166.29 129.185C166.219 129.272 166.147 129.36 166.09 129.45L166.051 129.425Z" fill="#AB92E1"/>
<path id="Vector_50" d="M165.715 126.555C165.693 126.293 165.745 126.03 165.866 125.797C165.978 125.575 166.135 125.378 166.326 125.218C166.522 125.054 166.752 124.934 167 124.868C167.262 124.796 167.541 124.813 167.793 124.916L167.804 124.966C167.698 124.997 167.594 125.034 167.492 125.078C167.441 125.101 167.389 125.118 167.34 125.143L167.198 125.221C167.005 125.33 166.824 125.458 166.657 125.602C166.485 125.743 166.325 125.896 166.177 126.061C166.103 126.142 166.031 126.227 165.963 126.315C165.893 126.401 165.821 126.49 165.764 126.58L165.715 126.555Z" fill="#AB92E1"/>
<path id="Vector_51" d="M165.426 123.899C165.403 123.638 165.455 123.376 165.577 123.143C165.688 122.92 165.845 122.724 166.037 122.564C166.232 122.399 166.462 122.28 166.71 122.214C166.972 122.141 167.252 122.158 167.503 122.262L167.514 122.31C167.408 122.341 167.304 122.379 167.203 122.423C167.151 122.445 167.099 122.464 167.05 122.489L166.908 122.565C166.715 122.674 166.534 122.802 166.367 122.947C166.196 123.088 166.035 123.241 165.887 123.405C165.813 123.488 165.745 123.573 165.674 123.66C165.602 123.748 165.531 123.834 165.474 123.926L165.426 123.899Z" fill="#AB92E1"/>
<path id="Vector_52" d="M95.3313 60.4307L117.448 59.7519C118.775 59.6458 120.044 59.1679 121.108 58.3751C122.171 57.5818 122.986 56.5052 123.457 55.2713L127.26 42.454C127.648 41.1458 127.503 39.7386 126.855 38.5357C126.207 37.3325 125.108 36.4295 123.796 36.0217C123.102 35.8063 122.371 35.7361 121.649 35.8155C120.926 35.8947 120.229 36.1221 119.6 36.4826C118.971 36.8431 118.424 37.3293 117.995 37.9103C117.565 38.4914 117.261 39.1543 117.104 39.8574L114.719 50.4956L95.1034 55.9556L91.3021 54.1211C91.0624 54.0053 90.7888 53.9797 90.5318 54.0486C90.2748 54.1175 90.0517 54.2767 89.9039 54.4965C89.7525 54.7217 89.6908 54.9945 89.7312 55.2619C89.7716 55.5297 89.9107 55.773 90.1216 55.9444L91.3731 56.9621L87.8136 57.6027H82.3235C82.3786 58.0243 82.547 58.4238 82.8108 58.7587C83.0747 59.094 83.4247 59.3527 83.8241 59.5079L85.05 59.9836C86.3206 60.4784 87.6644 60.7646 89.028 60.8302L95.3313 60.4307Z" fill="#F8E0D9"/>
<path id="Vector_53" d="M83.8193 59.5078C84.1369 59.488 84.4545 59.4854 84.772 59.4826C85.0896 59.4797 85.4057 59.4826 85.7233 59.4937C86.0405 59.5049 86.3551 59.5136 86.6713 59.5262C86.9874 59.5389 87.3049 59.5573 87.6196 59.5811H87.5825C87.8561 59.5389 88.1279 59.4909 88.4011 59.4555C88.6747 59.4205 88.9479 59.3779 89.2215 59.3454C89.4947 59.3129 89.7708 59.2833 90.0458 59.2552C90.3205 59.227 90.5966 59.2057 90.8745 59.1931C90.6082 59.2722 90.3389 59.3342 90.0714 59.405C89.8036 59.4753 89.5333 59.5306 89.2626 59.5869C88.9922 59.6432 88.7215 59.6984 88.4512 59.7507C88.1805 59.8027 87.9087 59.8492 87.6366 59.8918H87.6211H87.5998C87.2837 59.8777 86.9676 59.8492 86.6529 59.8283C86.3382 59.807 86.0206 59.776 85.706 59.7449C85.3913 59.7139 85.0766 59.6785 84.7619 59.6377C84.4473 59.5966 84.1326 59.5656 83.8193 59.5078Z" fill="#F1B29D"/>
<path id="Vector_54" d="M114.709 50.48C114.864 50.3775 115.043 50.3147 115.229 50.2977C115.411 50.2761 115.595 50.2761 115.777 50.2977C115.823 50.2977 115.868 50.3078 115.912 50.3147L116.045 50.3428C116.133 50.3627 116.221 50.3825 116.305 50.4092C116.475 50.463 116.642 50.5258 116.805 50.5969C116.963 50.6745 117.118 50.7564 117.27 50.8441C117.423 50.9315 117.566 51.0318 117.698 51.1433C117.834 51.2512 117.965 51.366 118.091 51.4876C118.214 51.6136 118.329 51.7475 118.435 51.8882L118.415 51.9149L117.988 51.6327C117.846 51.5396 117.703 51.4551 117.561 51.3645C117.419 51.2743 117.265 51.1996 117.118 51.1162C116.971 51.0329 116.816 50.9639 116.662 50.8961C116.357 50.751 116.039 50.6355 115.711 50.5518C115.388 50.4547 115.045 50.4403 114.715 50.5096L114.709 50.48Z" fill="#F1B29D"/>
<path id="Vector_55" d="M111.363 46.5742L111.079 49.1146L110.822 51.6434L110.81 51.7704L110.691 51.8015C110.122 51.9527 109.552 52.1093 108.983 52.2548C108.413 52.3998 107.844 52.5539 107.274 52.6965C106.135 52.987 104.982 53.2609 103.83 53.5305C104.952 53.1588 106.078 52.8037 107.209 52.4648C107.778 52.2898 108.348 52.1248 108.906 51.9556C109.464 51.786 110.045 51.6254 110.606 51.4586L110.475 51.6181C110.495 51.1948 110.531 50.7715 110.573 50.3395C110.616 49.9078 110.673 49.4928 110.746 49.0695C110.78 48.8591 110.817 48.6461 110.861 48.4386C110.905 48.2311 110.948 48.0153 111.003 47.8121C111.097 47.3924 111.217 46.9788 111.363 46.5742Z" fill="#F1B29D"/>
<path id="Vector_56" d="M136.89 86.658C136.89 86.658 134.336 96.068 129.152 100.611C129.152 100.614 136.399 97.1421 136.89 86.658Z" fill="#373A36"/>
</g>
</g>
</g>
</g>
</g>
</g>
<defs>
<clipPath id="clip0_817_650">
<rect width="390" height="844" fill="white" transform="translate(-107 -112)"/>
</clipPath>
</defs>
</svg>
